<svg width="24" height="24" viewBox="0 0 24 24" fill="none" xmlns="http://www.w3.org/2000/svg">
<path fill-rule="evenodd" clip-rule="evenodd" d="M2 12C2 20.235 3.765 22 12 22C20.235 22 22 20.235 22 12C22 3.765 20.235 2 12 2C3.765 2 2 3.765 2 12ZM7.83333 12C7.83333 11.5398 8.20643 11.1667 8.66667 11.1667H11.1667V8.66667C11.1667 8.20643 11.5398 7.83333 12 7.83333C12.4602 7.83333 12.8333 8.20643 12.8333 8.66667V11.1667H15.3333C15.7936 11.1667 16.1667 11.5398 16.1667 12C16.1667 12.4602 15.7936 12.8333 15.3333 12.8333H12.8333V15.3333C12.8333 15.7936 12.4602 16.1667 12 16.1667C11.5398 16.1667 11.1667 15.7936 11.1667 15.3333V12.8333H8.66667C8.20643 12.8333 7.83333 12.4602 7.83333 12Z" fill="white"/>
</svg>
