<svg width="16" height="16" viewBox="0 0 16 16" fill="none" xmlns="http://www.w3.org/2000/svg">
<path fill-rule="evenodd" clip-rule="evenodd" d="M1.29289 13.2929C0.902369 13.6834 0.902369 14.3166 1.29289 14.7071C1.68342 15.0976 2.31658 15.0976 2.70711 14.7071L8.00001 9.4142L13.2929 14.7071C13.6834 15.0976 14.3166 15.0976 14.7071 14.7071C15.0976 14.3166 15.0977 13.6834 14.7071 13.2929L9.41422 7.99998L14.7071 2.70711C15.0976 2.31658 15.0976 1.68342 14.7071 1.29289C14.3166 0.902369 13.6834 0.902368 13.2929 1.29289L8.00001 6.58577L2.70714 1.2929C2.31661 0.902373 1.68345 0.902373 1.29292 1.2929C0.902399 1.68342 0.902399 2.31659 1.29292 2.70711L6.58579 7.99998L1.29289 13.2929Z" fill="white"/>
</svg>
