<svg width="24" height="24" viewBox="0 0 24 24" fill="none" xmlns="http://www.w3.org/2000/svg">
<path d="M13.5 11.25C13.5 12.0784 12.8284 12.75 12 12.75C11.1716 12.75 10.5 12.0784 10.5 11.25C10.5 10.4216 11.1716 9.75 12 9.75C12.8284 9.75 13.5 10.4216 13.5 11.25Z" fill="white"/>
<path fill-rule="evenodd" clip-rule="evenodd" d="M7.5 19.173C3.89902 18.4511 3 16.361 3 11.25C3 4.45612 4.5885 3 12 3C19.4115 3 21 4.45612 21 11.25C21 16.361 20.101 18.4511 16.5 19.173V20.25C16.5 20.6642 16.1642 21 15.75 21C15.3358 21 15 20.6642 15 20.25V19.3846C14.1255 19.4661 13.1305 19.5 12 19.5C10.8695 19.5 9.87455 19.4661 9 19.3846V20.25C9 20.6642 8.66421 21 8.25 21C7.83579 21 7.5 20.6642 7.5 20.25V19.173ZM12.7443 8.34305C12.7481 8.31256 12.75 8.28151 12.75 8.25V7.5C12.75 7.08579 12.4142 6.75 12 6.75C11.5858 6.75 11.25 7.08579 11.25 7.5V8.25C11.25 8.28151 11.2519 8.31256 11.2557 8.34305C10.1969 8.61334 9.36334 9.44689 9.09305 10.5057C9.06256 10.5019 9.03151 10.5 9 10.5H8.25C7.83579 10.5 7.5 10.8358 7.5 11.25C7.5 11.6642 7.83579 12 8.25 12H9C9.03151 12 9.06256 11.9981 9.09305 11.9943C9.36334 13.0531 10.1969 13.8867 11.2557 14.1569C11.2519 14.1874 11.25 14.2185 11.25 14.25V15C11.25 15.4142 11.5858 15.75 12 15.75C12.4142 15.75 12.75 15.4142 12.75 15V14.25C12.75 14.2185 12.7481 14.1874 12.7443 14.1569C13.8031 13.8867 14.6367 13.0531 14.9069 11.9943C14.9374 11.9981 14.9685 12 15 12H15.75C16.1642 12 16.5 11.6642 16.5 11.25C16.5 10.8358 16.1642 10.5 15.75 10.5H15C14.9685 10.5 14.9374 10.5019 14.9069 10.5057C14.6367 9.44689 13.8031 8.61334 12.7443 8.34305Z" fill="white"/>
</svg>
