<svg width="24" height="24" viewBox="0 0 24 24" fill="none" xmlns="http://www.w3.org/2000/svg">
<path d="M11.8182 21C3.73291 21 2 19.4115 2 12C2 9.96306 2.13089 8.36595 2.48858 7.12078C3.40443 8.03897 4.56014 9.1431 5.8154 10.1266C7.59572 11.5214 9.75188 12.8182 11.8182 12.8182C13.8845 12.8182 16.0406 11.5214 17.821 10.1266C19.0762 9.1431 20.2319 8.03897 21.1478 7.12078C21.5055 8.36595 21.6364 9.96306 21.6364 12C21.6364 19.4115 19.9035 21 11.8182 21Z" fill="white"/>
<path d="M20.4347 5.51436C19.476 6.49144 18.2044 7.74736 16.8118 8.83847C15.0575 10.2129 13.2864 11.1818 11.8182 11.1818C10.3499 11.1818 8.57882 10.2129 6.8246 8.83847C5.43195 7.74736 4.16034 6.49144 3.20163 5.51436C4.5011 3.55031 7.05931 3 11.8182 3C16.5771 3 19.1353 3.55031 20.4347 5.51436Z" fill="white"/>
</svg>
