<svg width="24" height="24" viewBox="0 0 24 24" fill="none" xmlns="http://www.w3.org/2000/svg">
<path d="M16.3247 4.00333L14.2498 4C11.9188 4 10.4124 5.54552 10.4124 7.93762V9.75313H8.32625C8.14598 9.75313 8 9.89927 8 10.0795V12.71C8 12.8903 8.14615 13.0363 8.32625 13.0363H10.4124V19.6738C10.4124 19.854 10.5584 20 10.7387 20H13.4605C13.6408 20 13.7868 19.8539 13.7868 19.6738V13.0363H16.226C16.4062 13.0363 16.5522 12.8903 16.5522 12.71L16.5532 10.0795C16.5532 9.99299 16.5188 9.91009 16.4577 9.84884C16.3966 9.78758 16.3134 9.75313 16.2268 9.75313H13.7868V8.2141C13.7868 7.47438 13.963 7.09886 14.9266 7.09886L16.3243 7.09836C16.5044 7.09836 16.6504 6.95222 16.6504 6.77211V4.32958C16.6504 4.14964 16.5046 4.00366 16.3247 4.00333Z" fill="white"/>
</svg>
