<svg width="24" height="24" viewBox="0 0 24 24" fill="none" xmlns="http://www.w3.org/2000/svg">
<path d="M3.55138 17.5727C2.7805 14.05 2.98893 10.9201 3.16599 9.74436C3.29244 8.90472 7.76044 5.47155 10.3046 3.57734C11.3344 2.81062 12.7347 2.80715 13.7677 3.56943C16.3332 5.46249 20.845 8.90533 20.9006 9.74436C20.9023 9.77083 20.9042 9.79829 20.906 9.82673C20.9881 11.059 21.1927 14.1294 20.5148 17.5727C20.1295 19.5298 18.9874 20.4133 16.6595 20.7041C16.4934 20.7248 16.3278 20.7444 16.1626 20.763C15.9419 20.7878 15.75 20.6138 15.75 20.3913V15.0855C15.75 13.8402 14.7426 12.8306 13.5 12.8306H10.5C9.25735 12.8306 8.25 13.8402 8.25 15.0855L8.24999 20.3849C8.24999 20.6079 8.0573 20.782 7.83624 20.7564C7.69323 20.7398 7.55004 20.7224 7.40666 20.7041C5.07949 20.4072 3.97658 19.5158 3.55138 17.5727Z" fill="white"/>
<path d="M9.74999 20.5756C9.74999 20.7739 9.9038 20.9383 10.1014 20.9489C11.3643 21.0166 12.6239 21.017 13.898 20.9503C14.0959 20.9399 14.25 20.7754 14.25 20.5768L14.25 15.0855C14.25 14.6704 13.9142 14.3339 13.5 14.3339H10.5C10.0858 14.3339 9.74999 14.6704 9.74999 15.0855L9.74999 20.5756Z" fill="white"/>
</svg>
