<svg width="24" height="24" viewBox="0 0 24 24" fill="none" xmlns="http://www.w3.org/2000/svg">
<path fill-rule="evenodd" clip-rule="evenodd" d="M24 10.6667C24 1.77781 21.882 0 12 0C2.118 0 0 1.88267 0 10.6667C0 16.3307 1.00024 20 5.50024 20C7.9051 20 8.62048 21.1424 9.28663 22.2061C9.86699 23.1329 10.41 24 12.0002 24C13.5906 24 14.1336 23.1329 14.714 22.2061C15.3801 21.1424 16.0954 20 18.5002 20C23.0002 20 24 16.4445 24 10.6667ZM12 13C14.2091 13 16 11.2091 16 9C16 6.79086 14.2091 5 12 5C9.79086 5 8 6.79086 8 9C8 11.2091 9.79086 13 12 13Z" fill="white"/>
</svg>
