<svg width="24" height="24" viewBox="0 0 24 24" fill="none" xmlns="http://www.w3.org/2000/svg">
<path fill-rule="evenodd" clip-rule="evenodd" d="M1.99622 5.99756C1.99622 5.44527 2.44393 4.99756 2.99622 4.99756H21.0037C21.556 4.99756 22.0037 5.44527 22.0037 5.99756C22.0037 6.54984 21.556 6.99756 21.0037 6.99756H2.99622C2.44393 6.99756 1.99622 6.54984 1.99622 5.99756Z" fill="white"/>
<path fill-rule="evenodd" clip-rule="evenodd" d="M1.99622 12C1.99622 11.4477 2.44393 11 2.99622 11H17.002C17.5543 11 18.002 11.4477 18.002 12C18.002 12.5523 17.5543 13 17.002 13H2.99622C2.44393 13 1.99622 12.5523 1.99622 12Z" fill="white"/>
<path fill-rule="evenodd" clip-rule="evenodd" d="M1.99622 18.0024C1.99622 17.4502 2.44393 17.0024 2.99622 17.0024H13.0004C13.5527 17.0024 14.0004 17.4502 14.0004 18.0024C14.0004 18.5547 13.5527 19.0024 13.0004 19.0024H2.99622C2.44393 19.0024 1.99622 18.5547 1.99622 18.0024Z" fill="white"/>
</svg>
