<svg width="24" height="24" viewBox="0 0 24 24" fill="none" xmlns="http://www.w3.org/2000/svg">
<path d="M12.9987 1.05206C12.9995 1.03479 13 1.01746 13 1C13 0.447693 12.5523 0 12 0C11.4478 0 11 0.447693 11 1C11 1.01746 11.0005 1.03485 11.0014 1.05212C7.6537 1.53461 4.50367 5.2995 5.00001 9.5C5.25709 10.7854 4.44764 11.4664 3.60511 12.1752C2.80897 12.845 1.98341 13.5396 2.00025 14.7925C2.00025 16.5484 3.00001 17.5 4.46827 17.9719C4.46827 17.9719 7.15736 19 12.0001 19C16.8429 19 19.532 17.9719 19.532 17.9719C21.0003 17.5 22.0003 16.5 22 14.7925C21.9999 13.5288 21.1748 12.8339 20.3831 12.1672C19.5443 11.4609 18.7431 10.7861 19.0003 9.5C19.4966 5.29938 16.3464 1.53442 12.9987 1.05206Z" fill="white"/>
<path d="M8.42738 20.2C7.98548 20.5314 7.89601 21.1581 8.2273 21.6C10.1273 24.1334 13.9274 24.1334 15.8274 21.6C16.1587 21.1581 16.0692 20.5314 15.6273 20.2C15.1856 19.8687 14.5587 19.9582 14.2273 20.4C13.1273 21.8666 10.9274 21.8666 9.8274 20.4C9.49598 19.9582 8.86915 19.8687 8.42738 20.2Z" fill="white"/>
</svg>
