<svg width="24" height="24" viewBox="0 0 24 24" fill="none" xmlns="http://www.w3.org/2000/svg">
<path d="M20.6921 10.3364C20.7755 10.469 20.9902 10.4091 20.9854 10.2525C20.9039 7.58206 20.5939 5.10025 19.8501 4.32164C18.1647 2.55762 11.2429 2.86213 9.55762 3.50359C9.09603 3.67928 8.77291 3.91336 8.54705 4.17714C8.46974 4.26743 8.54015 4.39746 8.65901 4.3984C9.36097 4.40392 10.0771 4.45575 10.7927 4.55382C13.8177 4.96834 16.9884 6.22823 19.2441 8.51422C19.7875 9.06486 20.2746 9.67206 20.6921 10.3364Z" fill="white"/>
<path fill-rule="evenodd" clip-rule="evenodd" d="M20.7905 16.9143C20.7384 17.4626 20.6824 17.8915 20.6288 18.1536C20.6267 18.1638 20.6125 18.1623 20.6125 18.1518C20.6125 18.1414 20.5969 18.1406 20.5943 18.1507C19.9695 20.6108 17.9247 21 12.9652 21C5.76157 21 4.04044 19.6557 3.21371 13.3838C2.5458 8.31662 3.30959 6.46584 7.4264 5.94178C8.4148 5.86123 9.48688 5.88889 10.5891 6.03993C13.3793 6.42227 16.2114 7.57644 18.1764 9.56779C19.8843 11.2985 20.9791 13.7011 20.7905 16.9143ZM14.25 16.5C14.25 16.0858 13.9142 15.75 13.5 15.75H7.50001C7.08579 15.75 6.75001 16.0858 6.75001 16.5C6.75001 16.9142 7.08579 17.25 7.50001 17.25H13.5C13.9142 17.25 14.25 16.9142 14.25 16.5ZM7.50001 12.75C7.08579 12.75 6.75001 13.0858 6.75001 13.5C6.75001 13.9142 7.08579 14.25 7.50001 14.25H10.5C10.9142 14.25 11.25 13.9142 11.25 13.5C11.25 13.0858 10.9142 12.75 10.5 12.75H7.50001Z" fill="white"/>
</svg>
