<svg width="24" height="24" viewBox="0 0 24 24" fill="none" xmlns="http://www.w3.org/2000/svg">
<path d="M10.3333 14.5C10.3333 15.4205 11.0795 16.1667 12 16.1667C12.9205 16.1667 13.6667 15.4205 13.6667 14.5C13.6667 13.5795 12.9205 12.8333 12 12.8333C11.0795 12.8333 10.3333 13.5795 10.3333 14.5Z" fill="white"/>
<path fill-rule="evenodd" clip-rule="evenodd" d="M15.9911 3.46049C17.0403 4.39308 17.7358 5.74521 17.8238 7.46024C21.1407 8.24353 22 10.1905 22 14.5C22 20.6762 20.235 22 12 22C3.765 22 2 20.6762 2 14.5C2 10.1905 2.85929 8.24353 6.17615 7.46024C6.26423 5.74521 6.9597 4.39308 8.00886 3.46049C9.11764 2.47491 10.5724 2 12 2C13.4276 2 14.8824 2.47491 15.9911 3.46049ZM12 7C10.3879 7 9.02381 7.05073 7.87232 7.17865C8.00779 6.07798 8.48449 5.26764 9.11614 4.70617C9.88236 4.02509 10.9276 3.66667 12 3.66667C13.0724 3.66667 14.1176 4.02509 14.8839 4.70617C15.5155 5.26764 15.9922 6.07798 16.1277 7.17865C14.9762 7.05073 13.6121 7 12 7ZM8.66667 14.5C8.66667 16.3409 10.1591 17.8333 12 17.8333C13.8409 17.8333 15.3333 16.3409 15.3333 14.5C15.3333 12.6591 13.8409 11.1667 12 11.1667C10.1591 11.1667 8.66667 12.6591 8.66667 14.5Z" fill="white"/>
</svg>
