<svg width="24" height="24" viewBox="0 0 24 24" fill="none" xmlns="http://www.w3.org/2000/svg">
<path d="M12.4878 14.6182C13.1323 15.0721 13.8079 15.4538 14.5043 15.7427C14.9367 15.8995 15.6153 15.4555 16.1142 15.1289C16.2389 15.0473 16.3524 14.9731 16.448 14.9173L16.4794 14.8997C16.9494 14.6358 17.4713 14.3427 18.1423 14.484C18.7452 14.6078 20.8136 16.2379 21.3853 16.8157C21.7595 17.1871 21.9674 17.5791 21.9986 17.9815C22.0609 19.4775 20.0549 21.1591 19.5767 21.448C18.5581 22.1908 17.1964 22.1805 15.5541 21.4377C13.7975 20.7258 11.6979 19.2299 9.67099 17.4141C8.94543 16.7641 7.55208 15.3955 7.15555 14.9385C5.10788 12.7203 3.38244 10.3371 2.57169 8.4078C2.1871 7.59276 2 6.83962 2 6.16901C2 5.50872 2.1871 4.92065 2.5509 4.41512C2.76918 4.03339 4.52581 1.94936 6.07455 2.00094C6.45914 2.04221 6.85412 2.23823 7.23871 2.60964C7.82079 3.17708 9.49426 5.23016 9.61899 5.83887C9.7613 6.49468 9.46622 7.01235 9.20038 7.47874L9.18243 7.51022C9.12252 7.61374 9.04128 7.73655 8.95248 7.8708C8.62531 8.36538 8.19534 9.01535 8.34985 9.42919C8.73548 10.3784 9.28638 11.3069 9.95057 12.1632C10.6877 13.0445 11.8434 14.1642 12.4878 14.6182Z" fill="white"/>
</svg>
