<svg width="24" height="24" viewBox="0 0 24 24" fill="none" xmlns="http://www.w3.org/2000/svg">
<path d="M10.75 12C10.75 12.8284 11.4216 13.5 12.25 13.5C13.0784 13.5 13.75 12.8284 13.75 12C13.75 11.1716 13.0784 10.5 12.25 10.5C11.4216 10.5 10.75 11.1716 10.75 12Z" fill="white"/>
<path fill-rule="evenodd" clip-rule="evenodd" d="M14.4793 4.81982C14.0186 2.39339 10.4814 2.39339 10.0207 4.81982C9.76548 6.16431 8.34946 6.96771 7.03698 6.51269C4.66833 5.69151 2.8997 8.70189 4.8077 10.3071C5.86493 11.1966 5.86493 12.8034 4.8077 13.6929C2.8997 15.2981 4.66833 18.3085 7.03698 17.4873C8.34946 17.0323 9.76548 17.8357 10.0207 19.1802C10.4814 21.6066 14.0186 21.6066 14.4793 19.1802C14.7345 17.8357 16.1505 17.0323 17.463 17.4873C19.8317 18.3085 21.6003 15.2981 19.6923 13.6929C18.6351 12.8034 18.6351 11.1966 19.6923 10.3071C21.6003 8.70189 19.8317 5.69151 17.463 6.51269C16.1505 6.96771 14.7345 6.16431 14.4793 4.81982ZM9.25 12C9.25 13.6569 10.5931 15 12.25 15C13.9069 15 15.25 13.6569 15.25 12C15.25 10.3431 13.9069 9 12.25 9C10.5931 9 9.25 10.3431 9.25 12Z" fill="white"/>
</svg>
