<svg width="0" height="0" class="hidden">
  <symbol  xmlns="http://www.w3.org/2000/svg" viewBox="0 0 24 24" id="eye">
    <path fill-rule="evenodd" clip-rule="evenodd" d="M13.5915 10.4101C12.7126 9.5305 11.2878 9.53009 10.4076 10.4101C9.5289 11.2905 9.52957 12.7167 10.4072 13.5945C11.2877 14.4732 12.7139 14.4724 13.5917 13.5947C14.4702 12.7142 14.4694 11.288 13.5917 10.4103M14.6515 9.34881C13.1863 7.88357 10.8121 7.88426 9.3467 9.34966L9.34625 9.35012C7.88321 10.8157 7.88256 13.1912 9.3467 14.6553L9.34715 14.6558C10.8127 16.1188 13.1882 16.1195 14.6524 14.6553L14.6528 14.6549C16.1158 13.1894 16.1165 10.8141 14.6526 9.34989" ></path>
    <path fill-rule="evenodd" clip-rule="evenodd" d="M12 5.75C8.56983 5.75 5.49798 7.60008 4.11971 10.4176L3.43974 10.0849L4.11971 10.4176C3.87516 10.9175 3.75 11.4569 3.75 12C3.75 12.5431 3.87516 13.0825 4.11971 13.5824C5.49798 16.3999 8.56983 18.25 12 18.25C15.4302 18.25 18.502 16.3999 19.8803 13.5824C20.1248 13.0825 20.25 12.5431 20.25 12C20.25 11.4569 20.1248 10.9175 19.8803 10.4176C18.502 7.60008 15.4302 5.75 12 5.75ZM2.77229 9.75843C4.42402 6.38192 8.04817 4.25 12 4.25C15.9518 4.25 19.576 6.38192 21.2277 9.75843C21.5712 10.4605 21.75 11.2251 21.75 12C21.75 12.7749 21.5712 13.5395 21.2277 14.2416C19.576 17.6181 15.9518 19.75 12 19.75C8.04817 19.75 4.42402 17.6181 2.77229 14.2416C2.42884 13.5395 2.25 12.7749 2.25 12C2.25 11.2251 2.42884 10.4605 2.77229 9.75843Z" ></path>
  </symbol>
  <symbol  xmlns="http://www.w3.org/2000/svg" viewBox="0 0 24 24" id="eye-closed">
    <path fill-rule="evenodd" clip-rule="evenodd" d="M12 5.75C8.56983 5.75 5.49798 7.60008 4.11971 10.4176C3.87516 10.9175 3.75 11.4569 3.75 12C3.75 12.5431 3.87516 13.0825 4.11971 13.5824C5.49798 16.3999 8.56983 18.25 12 18.25C15.4302 18.25 18.502 16.3999 19.8803 13.5824C20.1248 13.0825 20.25 12.5431 20.25 12C20.25 11.4569 20.1248 10.9175 19.8803 10.4176C18.502 7.60008 15.4302 5.75 12 5.75ZM2.77229 9.75843C4.42402 6.38192 8.04817 4.25 12 4.25C15.9518 4.25 19.576 6.38192 21.2277 9.75843C21.5712 10.4605 21.75 11.2251 21.75 12C21.75 12.7749 21.5712 13.5395 21.2277 14.2416C19.576 17.6181 15.9518 19.75 12 19.75C8.04817 19.75 4.42402 17.6181 2.77229 14.2416C2.42884 13.5395 2.25 12.7749 2.25 12C2.25 11.2251 2.42884 10.4605 2.77229 9.75843Z" ></path>
  </symbol>
  <symbol  xmlns="http://www.w3.org/2000/svg" viewBox="0 0 24 24" id="facebook">
    <path d="M16.3247 4.00333L14.2498 4C11.9188 4 10.4124 5.54552 10.4124 7.93762V9.75313H8.32625C8.14598 9.75313 8 9.89927 8 10.0795V12.71C8 12.8903 8.14615 13.0363 8.32625 13.0363H10.4124V19.6738C10.4124 19.854 10.5584 20 10.7387 20H13.4605C13.6408 20 13.7868 19.8539 13.7868 19.6738V13.0363H16.226C16.4062 13.0363 16.5522 12.8903 16.5522 12.71L16.5532 10.0795C16.5532 9.99299 16.5188 9.91009 16.4577 9.84884C16.3966 9.78758 16.3134 9.75313 16.2268 9.75313H13.7868V8.2141C13.7868 7.47438 13.963 7.09886 14.9266 7.09886L16.3243 7.09836C16.5044 7.09836 16.6504 6.95222 16.6504 6.77211V4.32958C16.6504 4.14964 16.5046 4.00366 16.3247 4.00333Z" ></path>
  </symbol>
  <symbol  xmlns="http://www.w3.org/2000/svg" viewBox="0 0 24 24" id="home">
    <path d="M3.55138 17.5727C2.7805 14.05 2.98893 10.9201 3.16599 9.74436C3.29244 8.90472 7.76044 5.47155 10.3046 3.57734C11.3344 2.81062 12.7347 2.80715 13.7677 3.56943C16.3332 5.46249 20.845 8.90533 20.9006 9.74436C20.9023 9.77083 20.9042 9.79829 20.906 9.82673C20.9881 11.059 21.1927 14.1294 20.5148 17.5727C20.1295 19.5298 18.9874 20.4133 16.6595 20.7041C16.4934 20.7248 16.3278 20.7444 16.1626 20.763C15.9419 20.7878 15.75 20.6138 15.75 20.3913V15.0855C15.75 13.8402 14.7426 12.8306 13.5 12.8306H10.5C9.25735 12.8306 8.25 13.8402 8.25 15.0855L8.24999 20.3849C8.24999 20.6079 8.0573 20.782 7.83624 20.7564C7.69323 20.7398 7.55004 20.7224 7.40666 20.7041C5.07949 20.4072 3.97658 19.5158 3.55138 17.5727Z" ></path>
    <path d="M9.74999 20.5756C9.74999 20.7739 9.9038 20.9383 10.1014 20.9489C11.3643 21.0166 12.6239 21.017 13.898 20.9503C14.0959 20.9399 14.25 20.7754 14.25 20.5768L14.25 15.0855C14.25 14.6704 13.9142 14.3339 13.5 14.3339H10.5C10.0858 14.3339 9.74999 14.6704 9.74999 15.0855L9.74999 20.5756Z" ></path>
  </symbol>
  <symbol  xmlns="http://www.w3.org/2000/svg" viewBox="0 0 24 24" id="image">
    <path d="M7.00002 9C7.00002 7.89543 7.89545 7 9.00002 7C10.1046 7 11 7.89543 11 9C11 10.1046 10.1046 11 9.00002 11C7.89545 11 7.00002 10.1046 7.00002 9Z" ></path>
    <path fill-rule="evenodd" clip-rule="evenodd" d="M1.17424 18.3937C0.953392 18.5986 0.592906 18.5042 0.523634 18.211C0.141906 16.5956 0 14.5579 0 12C0 2.118 2.118 0 12 0C21.882 0 24 2.118 24 12C24 12.033 24 12.0659 23.9999 12.0988C23.9999 12.1025 23.9961 12.1049 23.9927 12.1034C23.3608 11.8155 22.4642 11.4793 21.419 11.3001C19.3006 10.9369 16.5364 11.2256 14.2474 13.8415C12.2901 16.0785 11.4461 16.2565 10.8134 16.2163C10.4746 16.1948 10.1504 16.1095 9.67478 15.9844C9.53117 15.9466 9.37374 15.9052 9.19796 15.8608C8.48506 15.6808 7.61492 15.5 6.50002 15.5C5.62944 15.5 4.76639 15.8402 4.02476 16.2494C3.26718 16.6674 2.53995 17.2117 1.91839 17.7351C1.65311 17.9585 1.40324 18.1813 1.17424 18.3937ZM5.00002 9C5.00002 6.79086 6.79088 5 9.00002 5C11.2092 5 13 6.79086 13 9C13 11.2091 11.2092 13 9.00002 13C6.79088 13 5.00002 11.2091 5.00002 9Z" ></path>
    <path d="M1.79086 20.5844C1.66146 20.7168 1.64205 20.9223 1.75139 21.0716C3.41705 23.3465 6.51067 24 12 24C21.041 24 23.5833 22.2271 23.9505 14.3576C23.9511 14.3447 23.9447 14.332 23.9337 14.3252L23.9184 14.3159C23.8863 14.2964 23.8352 14.2661 23.7667 14.2277C23.6295 14.1507 23.424 14.0421 23.1636 13.9234C22.6393 13.6845 21.9109 13.4136 21.0811 13.2713C19.4494 12.9916 17.4637 13.203 15.7526 15.1585C13.71 17.493 12.304 18.315 10.6867 18.2123C10.1336 18.1772 9.56442 18.0259 9.05709 17.8911C8.93703 17.8592 8.82044 17.8282 8.70834 17.7999C8.07748 17.6406 7.38513 17.5 6.50002 17.5C6.1206 17.5 5.60865 17.6598 4.99091 18.0006C4.38912 18.3326 3.77259 18.7883 3.20666 19.2649C2.6442 19.7386 2.15248 20.2151 1.80047 20.5746C1.79726 20.5779 1.79405 20.5812 1.79086 20.5844Z" ></path>
  </symbol>
  <symbol  xmlns="http://www.w3.org/2000/svg" viewBox="0 0 24 24" id="location">
    <path fill-rule="evenodd" clip-rule="evenodd" d="M24 10.6667C24 1.77781 21.882 0 12 0C2.118 0 0 1.88267 0 10.6667C0 16.3307 1.00024 20 5.50024 20C7.9051 20 8.62048 21.1424 9.28663 22.2061C9.86699 23.1329 10.41 24 12.0002 24C13.5906 24 14.1336 23.1329 14.714 22.2061C15.3801 21.1424 16.0954 20 18.5002 20C23.0002 20 24 16.4445 24 10.6667ZM12 13C14.2091 13 16 11.2091 16 9C16 6.79086 14.2091 5 12 5C9.79086 5 8 6.79086 8 9C8 11.2091 9.79086 13 12 13Z" ></path>
  </symbol>
  <symbol  xmlns="http://www.w3.org/2000/svg" viewBox="0 0 24 24" id="menu">
    <path fill-rule="evenodd" clip-rule="evenodd" d="M1.99622 5.99756C1.99622 5.44527 2.44393 4.99756 2.99622 4.99756H21.0037C21.556 4.99756 22.0037 5.44527 22.0037 5.99756C22.0037 6.54984 21.556 6.99756 21.0037 6.99756H2.99622C2.44393 6.99756 1.99622 6.54984 1.99622 5.99756Z" ></path>
    <path fill-rule="evenodd" clip-rule="evenodd" d="M1.99622 12C1.99622 11.4477 2.44393 11 2.99622 11H17.002C17.5543 11 18.002 11.4477 18.002 12C18.002 12.5523 17.5543 13 17.002 13H2.99622C2.44393 13 1.99622 12.5523 1.99622 12Z" ></path>
    <path fill-rule="evenodd" clip-rule="evenodd" d="M1.99622 18.0024C1.99622 17.4502 2.44393 17.0024 2.99622 17.0024H13.0004C13.5527 17.0024 14.0004 17.4502 14.0004 18.0024C14.0004 18.5547 13.5527 19.0024 13.0004 19.0024H2.99622C2.44393 19.0024 1.99622 18.5547 1.99622 18.0024Z" ></path>
  </symbol>
  <symbol  xmlns="http://www.w3.org/2000/svg" viewBox="0 0 24 24" id="notification">
    <path d="M12.9987 1.05206C12.9995 1.03479 13 1.01746 13 1C13 0.447693 12.5523 0 12 0C11.4478 0 11 0.447693 11 1C11 1.01746 11.0005 1.03485 11.0014 1.05212C7.6537 1.53461 4.50367 5.2995 5.00001 9.5C5.25709 10.7854 4.44764 11.4664 3.60511 12.1752C2.80897 12.845 1.98341 13.5396 2.00025 14.7925C2.00025 16.5484 3.00001 17.5 4.46827 17.9719C4.46827 17.9719 7.15736 19 12.0001 19C16.8429 19 19.532 17.9719 19.532 17.9719C21.0003 17.5 22.0003 16.5 22 14.7925C21.9999 13.5288 21.1748 12.8339 20.3831 12.1672C19.5443 11.4609 18.7431 10.7861 19.0003 9.5C19.4966 5.29938 16.3464 1.53442 12.9987 1.05206Z" ></path>
    <path d="M8.42738 20.2C7.98548 20.5314 7.89601 21.1581 8.2273 21.6C10.1273 24.1334 13.9274 24.1334 15.8274 21.6C16.1587 21.1581 16.0692 20.5314 15.6273 20.2C15.1856 19.8687 14.5587 19.9582 14.2273 20.4C13.1273 21.8666 10.9274 21.8666 9.8274 20.4C9.49598 19.9582 8.86915 19.8687 8.42738 20.2Z" ></path>
  </symbol>
  <symbol  xmlns="http://www.w3.org/2000/svg" viewBox="0 0 24 24" id="partners">
    <path d="M20.6921 10.3364C20.7755 10.469 20.9902 10.4091 20.9854 10.2525C20.9039 7.58206 20.5939 5.10025 19.8501 4.32164C18.1647 2.55762 11.2429 2.86213 9.55762 3.50359C9.09603 3.67928 8.77291 3.91336 8.54705 4.17714C8.46974 4.26743 8.54015 4.39746 8.65901 4.3984C9.36097 4.40392 10.0771 4.45575 10.7927 4.55382C13.8177 4.96834 16.9884 6.22823 19.2441 8.51422C19.7875 9.06486 20.2746 9.67206 20.6921 10.3364Z" ></path>
    <path fill-rule="evenodd" clip-rule="evenodd" d="M20.7905 16.9143C20.7384 17.4626 20.6824 17.8915 20.6288 18.1536C20.6267 18.1638 20.6125 18.1623 20.6125 18.1518C20.6125 18.1414 20.5969 18.1406 20.5943 18.1507C19.9695 20.6108 17.9247 21 12.9652 21C5.76157 21 4.04044 19.6557 3.21371 13.3838C2.5458 8.31662 3.30959 6.46584 7.4264 5.94178C8.4148 5.86123 9.48688 5.88889 10.5891 6.03993C13.3793 6.42227 16.2114 7.57644 18.1764 9.56779C19.8843 11.2985 20.9791 13.7011 20.7905 16.9143ZM14.25 16.5C14.25 16.0858 13.9142 15.75 13.5 15.75H7.50001C7.08579 15.75 6.75001 16.0858 6.75001 16.5C6.75001 16.9142 7.08579 17.25 7.50001 17.25H13.5C13.9142 17.25 14.25 16.9142 14.25 16.5ZM7.50001 12.75C7.08579 12.75 6.75001 13.0858 6.75001 13.5C6.75001 13.9142 7.08579 14.25 7.50001 14.25H10.5C10.9142 14.25 11.25 13.9142 11.25 13.5C11.25 13.0858 10.9142 12.75 10.5 12.75H7.50001Z" ></path>
  </symbol>
  <symbol  xmlns="http://www.w3.org/2000/svg" viewBox="0 0 24 24" id="pass">
    <path d="M10.3333 14.5C10.3333 15.4205 11.0795 16.1667 12 16.1667C12.9205 16.1667 13.6667 15.4205 13.6667 14.5C13.6667 13.5795 12.9205 12.8333 12 12.8333C11.0795 12.8333 10.3333 13.5795 10.3333 14.5Z" ></path>
    <path fill-rule="evenodd" clip-rule="evenodd" d="M15.9911 3.46049C17.0403 4.39308 17.7358 5.74521 17.8238 7.46024C21.1407 8.24353 22 10.1905 22 14.5C22 20.6762 20.235 22 12 22C3.765 22 2 20.6762 2 14.5C2 10.1905 2.85929 8.24353 6.17615 7.46024C6.26423 5.74521 6.9597 4.39308 8.00886 3.46049C9.11764 2.47491 10.5724 2 12 2C13.4276 2 14.8824 2.47491 15.9911 3.46049ZM12 7C10.3879 7 9.02381 7.05073 7.87232 7.17865C8.00779 6.07798 8.48449 5.26764 9.11614 4.70617C9.88236 4.02509 10.9276 3.66667 12 3.66667C13.0724 3.66667 14.1176 4.02509 14.8839 4.70617C15.5155 5.26764 15.9922 6.07798 16.1277 7.17865C14.9762 7.05073 13.6121 7 12 7ZM8.66667 14.5C8.66667 16.3409 10.1591 17.8333 12 17.8333C13.8409 17.8333 15.3333 16.3409 15.3333 14.5C15.3333 12.6591 13.8409 11.1667 12 11.1667C10.1591 11.1667 8.66667 12.6591 8.66667 14.5Z" ></path>
  </symbol>
  <symbol  xmlns="http://www.w3.org/2000/svg" viewBox="0 0 24 24" id="phone">
    <path d="M12.4878 14.6182C13.1323 15.0721 13.8079 15.4538 14.5043 15.7427C14.9367 15.8995 15.6153 15.4555 16.1142 15.1289C16.2389 15.0473 16.3524 14.9731 16.448 14.9173L16.4794 14.8997C16.9494 14.6358 17.4713 14.3427 18.1423 14.484C18.7452 14.6078 20.8136 16.2379 21.3853 16.8157C21.7595 17.1871 21.9674 17.5791 21.9986 17.9815C22.0609 19.4775 20.0549 21.1591 19.5767 21.448C18.5581 22.1908 17.1964 22.1805 15.5541 21.4377C13.7975 20.7258 11.6979 19.2299 9.67099 17.4141C8.94543 16.7641 7.55208 15.3955 7.15555 14.9385C5.10788 12.7203 3.38244 10.3371 2.57169 8.4078C2.1871 7.59276 2 6.83962 2 6.16901C2 5.50872 2.1871 4.92065 2.5509 4.41512C2.76918 4.03339 4.52581 1.94936 6.07455 2.00094C6.45914 2.04221 6.85412 2.23823 7.23871 2.60964C7.82079 3.17708 9.49426 5.23016 9.61899 5.83887C9.7613 6.49468 9.46622 7.01235 9.20038 7.47874L9.18243 7.51022C9.12252 7.61374 9.04128 7.73655 8.95248 7.8708C8.62531 8.36538 8.19534 9.01535 8.34985 9.42919C8.73548 10.3784 9.28638 11.3069 9.95057 12.1632C10.6877 13.0445 11.8434 14.1642 12.4878 14.6182Z" ></path>
  </symbol>
  <symbol  xmlns="http://www.w3.org/2000/svg" viewBox="0 0 24 24" id="play">
    <path d="M13.7397 10.0538C15.1756 10.9188 15.8936 11.3513 15.8936 12C15.8936 12.6487 15.1756 13.0812 13.7397 13.9462L12.1243 14.9192C10.6884 15.7842 9.97048 16.2167 9.43202 15.8923C8.89355 15.5679 8.89355 14.703 8.89355 12.9731V11.0269C8.89355 9.29701 8.89355 8.43205 9.43202 8.10769C9.97048 7.78333 10.6884 8.21581 12.1243 9.08077L13.7397 10.0538Z" ></path>
    <path fill-rule="evenodd" clip-rule="evenodd" d="M12 24C2.118 24 0 21.882 0 12C0 2.118 2.118 0 12 0C21.882 0 24 2.118 24 12C24 21.882 21.882 24 12 24ZM14.8719 15.599C15.5013 15.2202 16.1536 14.8276 16.6309 14.4323C17.1596 13.9943 17.8936 13.2141 17.8936 12C17.8936 10.7859 17.1596 10.0057 16.6309 9.56774C16.1536 9.17242 15.5013 8.77983 14.8719 8.40101L13.0544 7.30617C12.427 6.92792 11.7738 6.53407 11.2037 6.29914C10.5841 6.04376 9.49432 5.73533 8.40003 6.39451C7.33758 7.03451 7.07294 8.11096 6.98081 8.75848C6.89308 9.37501 6.89331 10.1482 6.89353 10.9113V13.0887C6.89331 13.8518 6.89308 14.625 6.98081 15.2415C7.07294 15.889 7.33758 16.9655 8.40003 17.6055C9.49432 18.2647 10.5841 17.9562 11.2037 17.7009C11.7738 17.4659 12.427 17.0721 13.0544 16.6938L14.8719 15.599Z" ></path>
  </symbol>
  <symbol  xmlns="http://www.w3.org/2000/svg" viewBox="0 0 32 32" id="search">
    <path d="M14.6667 25.3333C20.5577 25.3333 25.3333 20.5577 25.3333 14.6667C25.3333 8.77563 20.5577 4 14.6667 4C8.77563 4 4 8.77563 4 14.6667C4 20.5577 8.77563 25.3333 14.6667 25.3333Z" stroke="white" stroke-width="3" stroke-linecap="round" stroke-linejoin="round"></path>
    <path d="M28 28L22.2 22.2" stroke="white" stroke-width="3" stroke-linecap="round" stroke-linejoin="round"></path>
  </symbol>
  <symbol  xmlns="http://www.w3.org/2000/svg" viewBox="0 0 24 24" id="settings">
    <path d="M10.75 12C10.75 12.8284 11.4216 13.5 12.25 13.5C13.0784 13.5 13.75 12.8284 13.75 12C13.75 11.1716 13.0784 10.5 12.25 10.5C11.4216 10.5 10.75 11.1716 10.75 12Z" ></path>
    <path fill-rule="evenodd" clip-rule="evenodd" d="M14.4793 4.81982C14.0186 2.39339 10.4814 2.39339 10.0207 4.81982C9.76548 6.16431 8.34946 6.96771 7.03698 6.51269C4.66833 5.69151 2.8997 8.70189 4.8077 10.3071C5.86493 11.1966 5.86493 12.8034 4.8077 13.6929C2.8997 15.2981 4.66833 18.3085 7.03698 17.4873C8.34946 17.0323 9.76548 17.8357 10.0207 19.1802C10.4814 21.6066 14.0186 21.6066 14.4793 19.1802C14.7345 17.8357 16.1505 17.0323 17.463 17.4873C19.8317 18.3085 21.6003 15.2981 19.6923 13.6929C18.6351 12.8034 18.6351 11.1966 19.6923 10.3071C21.6003 8.70189 19.8317 5.69151 17.463 6.51269C16.1505 6.96771 14.7345 6.16431 14.4793 4.81982ZM9.25 12C9.25 13.6569 10.5931 15 12.25 15C13.9069 15 15.25 13.6569 15.25 12C15.25 10.3431 13.9069 9 12.25 9C10.5931 9 9.25 10.3431 9.25 12Z" ></path>
  </symbol>
  <symbol  xmlns="http://www.w3.org/2000/svg" viewBox="0 0 24 24" id="star">
    <path fill-rule="evenodd" clip-rule="evenodd" d="M12.0312 0C11.5304 0 11.1566 0.272794 10.9445 0.465027C10.7112 0.676487 10.5057 0.944105 10.3282 1.21165C9.96988 1.7518 9.6184 2.45751 9.29988 3.17601C8.65798 4.62394 8.07839 6.28879 7.77546 7.19764C7.77101 7.21098 7.75793 7.22146 7.74208 7.22199C6.79298 7.25408 5.05356 7.3392 3.5375 7.56154C2.78851 7.67138 2.03421 7.82283 1.44527 8.04213C1.15528 8.15011 0.839035 8.29823 0.57818 8.51312C0.314173 8.73061 0 9.11177 0 9.66144C0 10.0416 0.143828 10.3781 0.274021 10.6183C0.41357 10.8757 0.597996 11.1308 0.795265 11.3717C1.19066 11.8545 1.71348 12.3713 2.25402 12.8629C3.34026 13.8507 4.59819 14.8262 5.31389 15.3655C5.32518 15.374 5.33044 15.3882 5.32576 15.4035C5.05091 16.3059 4.57355 17.9569 4.26989 19.4883C4.11906 20.2489 4.00259 21.0211 3.9851 21.6732C3.9764 21.9976 3.99068 22.3334 4.05554 22.6413C4.11596 22.928 4.2487 23.3306 4.58844 23.6308C4.96974 23.9678 5.42866 24.0125 5.74642 23.9928C6.07135 23.9727 6.39678 23.8787 6.68679 23.7692C7.27244 23.5482 7.93353 23.1783 8.56741 22.779C9.84797 21.9723 11.2039 20.9252 11.975 20.3095C11.989 20.2983 12.0095 20.298 12.0241 20.3097C12.7951 20.9259 14.1522 21.9737 15.4423 22.781C16.0813 23.1808 16.7492 23.5507 17.3449 23.7714C17.6407 23.881 17.9694 23.9734 18.2973 23.993C18.6192 24.0122 19.0654 23.9671 19.4462 23.6544C19.803 23.3615 19.9512 22.9592 20.02 22.6608C20.0925 22.3465 20.1093 22.0053 20.1012 21.6784C20.0851 21.0215 19.9626 20.2464 19.8039 19.486C19.4841 17.9544 18.9782 16.3028 18.6856 15.3967C18.6804 15.3806 18.6859 15.3656 18.6976 15.3568C19.4169 14.8145 20.672 13.8404 21.7546 12.855C22.2933 12.3647 22.8141 11.8493 23.2079 11.3678C23.4044 11.1275 23.5881 10.873 23.7271 10.6162C23.8569 10.3764 24 10.0407 24 9.66144C24 9.11236 23.6865 8.73138 23.4227 8.51382C23.1621 8.29893 22.8462 8.1508 22.5566 8.04283C21.9685 7.82356 21.2152 7.6721 20.4672 7.56223C18.9531 7.33982 17.2151 7.25446 16.2638 7.2222C16.2478 7.22165 16.2349 7.21121 16.2306 7.19776C15.9345 6.2862 15.3694 4.62279 14.7405 3.17685C14.4285 2.45944 14.0832 1.75441 13.7294 1.21448C13.5542 0.947072 13.3505 0.678927 13.118 0.466782C12.9061 0.273382 12.5327 0 12.0312 0Z" ></path>
  </symbol>
  <symbol  xmlns="http://www.w3.org/2000/svg" viewBox="0 0 24 24" id="telegram">
    <path d="M11.0225 14.0301L10.8108 17.0082C11.1137 17.0082 11.2449 16.8781 11.4022 16.7218L12.8225 15.3645L15.7654 17.5197C16.3052 17.8205 16.6854 17.6621 16.831 17.0231L18.7628 7.97142L18.7633 7.97088C18.9345 7.17302 18.4748 6.86102 17.9489 7.05675L6.59423 11.4039C5.81929 11.7047 5.83103 12.1367 6.46249 12.3325L9.36543 13.2354L16.1084 9.01622C16.4257 8.80608 16.7142 8.92235 16.4769 9.13248L11.0225 14.0301Z" ></path>
  </symbol>
  <symbol  xmlns="http://www.w3.org/2000/svg" viewBox="0 0 24 24" id="transactions">
    <path fill-rule="evenodd" clip-rule="evenodd" d="M12 21C4.5885 21 3 19.4115 3 12C3 4.5885 4.5885 3 12 3C19.4115 3 21 4.5885 21 12C21 19.4115 19.4115 21 12 21ZM11.25 7.5C11.25 7.08577 11.5858 6.75 12 6.75C12.4142 6.75 12.75 7.08577 12.75 7.5V11.25H16.5C16.9142 11.25 17.25 11.5858 17.25 12C17.25 12.4142 16.9142 12.75 16.5 12.75H12C11.5858 12.75 11.25 12.4142 11.25 12V7.5Z" ></path>
  </symbol>
  <symbol  xmlns="http://www.w3.org/2000/svg" viewBox="0 0 24 24" id="twitter">
    <path d="M19 7.34663C18.4794 7.575 17.9246 7.72637 17.3462 7.79987C17.9412 7.44462 18.3954 6.88637 18.6089 6.2135C18.0541 6.54425 17.4416 6.77788 16.7889 6.90825C16.2621 6.34738 15.5114 6 14.6924 6C13.1034 6 11.8241 7.28975 11.8241 8.87088C11.8241 9.09838 11.8434 9.31712 11.8906 9.52537C9.5045 9.409 7.39313 8.26538 5.97475 6.52325C5.72712 6.95288 5.58188 7.44463 5.58188 7.974C5.58188 8.968 6.09375 9.84912 6.85675 10.3593C6.39562 10.3505 5.94325 10.2166 5.56 10.0058C5.56 10.0145 5.56 10.0259 5.56 10.0373C5.56 11.432 6.55487 12.5905 7.8595 12.8574C7.62587 12.9212 7.37125 12.9519 7.107 12.9519C6.92325 12.9519 6.73775 12.9414 6.56362 12.9029C6.9355 14.0395 7.99075 14.8751 9.2455 14.9023C8.269 15.6661 7.02912 16.1264 5.68688 16.1264C5.4515 16.1264 5.22575 16.1159 5 16.087C6.27137 16.9069 7.77813 17.375 9.403 17.375C14.6845 17.375 17.572 13 17.572 9.20775C17.572 9.08087 17.5676 8.95837 17.5615 8.83675C18.1311 8.4325 18.6097 7.92763 19 7.34663Z" ></path>
  </symbol>
  <symbol  xmlns="http://www.w3.org/2000/svg" viewBox="0 0 24 24" id="up">
    <path fill-rule="evenodd" clip-rule="evenodd" d="M12 21C4.5885 21 3 19.4115 3 12C3 4.5885 4.5885 3 12 3C19.4115 3 21 4.5885 21 12C21 19.4115 19.4115 21 12 21ZM15.5303 12.9697L12.5303 9.96967C12.2374 9.67678 11.7626 9.67678 11.4697 9.96967L8.46967 12.9697C8.17678 13.2626 8.17678 13.7374 8.46967 14.0303C8.76256 14.3232 9.23744 14.3232 9.53033 14.0303L12 11.5607L14.4697 14.0303C14.7626 14.3232 15.2374 14.3232 15.5303 14.0303C15.8232 13.7374 15.8232 13.2626 15.5303 12.9697Z" ></path>
  </symbol>
  <symbol  xmlns="http://www.w3.org/2000/svg" viewBox="0 0 24 24" id="user-added">
    <path d="M5.16667 7C5.16667 9.76142 7.40524 12 10.1667 12C12.9281 12 15.1667 9.76142 15.1667 7C15.1667 4.23858 12.9281 2 10.1667 2C7.40524 2 5.16667 4.23858 5.16667 7Z" ></path>
    <path d="M1 17.8333C1 21.2646 2.61792 22 10.1667 22C17.7154 22 19.3333 21.2646 19.3333 17.8333C19.3333 14.4021 17.7154 13.6667 10.1667 13.6667C2.61792 13.6667 1 14.4021 1 17.8333Z" ></path>
    <path d="M16 10.3333C16 9.8731 16.3731 9.5 16.8333 9.5H18.5V7.83333C18.5 7.3731 18.8731 7 19.3333 7C19.7936 7 20.1667 7.3731 20.1667 7.83333V9.5H21.8333C22.2936 9.5 22.6667 9.8731 22.6667 10.3333C22.6667 10.7936 22.2936 11.1667 21.8333 11.1667H20.1667V12.8333C20.1667 13.2936 19.7936 13.6667 19.3333 13.6667C18.8731 13.6667 18.5 13.2936 18.5 12.8333V11.1667H16.8333C16.3731 11.1667 16 10.7936 16 10.3333Z" ></path>
  </symbol>
  <symbol  xmlns="http://www.w3.org/2000/svg" viewBox="0 0 24 24" id="wallet">
    <path d="M2 12C2 20.235 3.765 22 12 22C18.4672 22 20.944 20.9115 21.7094 16.4555C21.7353 16.3048 21.6184 16.1667 21.4654 16.1667H16.1667C15.6195 16.1667 15.0777 16.0589 14.5722 15.8495C14.0667 15.6401 13.6073 15.3332 13.2204 14.9463C12.8335 14.5594 12.5266 14.1 12.3172 13.5945C12.1078 13.089 12 12.5472 12 12C12 11.4528 12.1078 10.911 12.3172 10.4055C12.5266 9.89998 12.8335 9.44064 13.2204 9.05373C13.6073 8.66682 14.0667 8.35991 14.5722 8.15051C15.0777 7.94111 15.6195 7.83333 16.1667 7.83333H21.4654C21.6184 7.83333 21.7353 7.69517 21.7094 7.54446C20.944 3.08854 18.4672 2 12 2C3.765 2 2 3.765 2 12Z" ></path>
    <path fill-rule="evenodd" clip-rule="evenodd" d="M22 12C22 12.8177 21.9826 13.5716 21.9432 14.2663C21.9357 14.3978 21.8265 14.5 21.6947 14.5H16.1667C15.8383 14.5 15.5133 14.4354 15.2099 14.3097C14.9066 14.184 14.631 13.9999 14.3989 13.7678C14.1667 13.5356 13.9826 13.26 13.8569 12.9567C13.7313 12.6534 13.6667 12.3283 13.6667 12C13.6667 11.6717 13.7313 11.3466 13.8569 11.0433C13.9826 10.74 14.1667 10.4644 14.3989 10.2322C14.631 10.0001 14.9066 9.81596 15.2099 9.69028C15.5133 9.56465 15.8383 9.5 16.1667 9.5H21.6947C21.8265 9.5 21.9357 9.60221 21.9432 9.73375C21.9826 10.4284 22 11.1823 22 12ZM17 11.1667C16.5398 11.1667 16.1667 11.5398 16.1667 12C16.1667 12.4602 16.5398 12.8333 17 12.8333H18.6667C19.1269 12.8333 19.5 12.4602 19.5 12C19.5 11.5398 19.1269 11.1667 18.6667 11.1667H17Z" ></path>
  </symbol>
  <symbol  xmlns="http://www.w3.org/2000/svg" viewBox="0 0 16 16" id="warning">
    <g clip-path="url(#clip0_132_9784)">
      <path fill-rule="evenodd" clip-rule="evenodd" d="M7.99996 1.99996C4.68625 1.99996 1.99996 4.68625 1.99996 7.99996C1.99996 11.3137 4.68625 14 7.99996 14C11.3137 14 14 11.3137 14 7.99996C14 4.68625 11.3137 1.99996 7.99996 1.99996ZM0.666626 7.99996C0.666626 3.94987 3.94987 0.666626 7.99996 0.666626C12.05 0.666626 15.3333 3.94987 15.3333 7.99996C15.3333 12.05 12.05 15.3333 7.99996 15.3333C3.94987 15.3333 0.666626 12.05 0.666626 7.99996Z" ></path>
      <path fill-rule="evenodd" clip-rule="evenodd" d="M8.00004 4.66663C8.36823 4.66663 8.66671 4.9651 8.66671 5.33329V7.99996C8.66671 8.36815 8.36823 8.66663 8.00004 8.66663C7.63185 8.66663 7.33337 8.36815 7.33337 7.99996V5.33329C7.33337 4.9651 7.63185 4.66663 8.00004 4.66663Z" ></path>
      <path fill-rule="evenodd" clip-rule="evenodd" d="M7.33337 10.6667C7.33337 10.2985 7.63185 10 8.00004 10H8.00671C8.3749 10 8.67337 10.2985 8.67337 10.6667C8.67337 11.0349 8.3749 11.3333 8.00671 11.3333H8.00004C7.63185 11.3333 7.33337 11.0349 7.33337 10.6667Z" ></path>
    </g>
    <defs>
      <clipPath id="clip0_132_9784">
        <rect width="16" height="16" ></rect>
      </clipPath>
    </defs>
  </symbol>
  <symbol  xmlns="http://www.w3.org/2000/svg" viewBox="0 0 24 24" id="withdraw">
    <path fill-rule="evenodd" clip-rule="evenodd" d="M3 12C3 19.4115 4.5885 21 12 21C19.4115 21 21 19.4115 21 12C21 11.5511 20.9942 11.1236 20.9816 10.7166C20.9778 10.5956 20.8784 10.5 20.7575 10.5H3.24253C3.12156 10.5 3.02216 10.5956 3.01842 10.7166C3.00583 11.1236 3 11.5511 3 12ZM16.5 17.25C16.9142 17.25 17.25 16.9142 17.25 16.5C17.25 16.0858 16.9142 15.75 16.5 15.75H13.5C13.0858 15.75 12.75 16.0858 12.75 16.5C12.75 16.9142 13.0858 17.25 13.5 17.25H16.5Z" ></path>
    <path d="M3.42064 7.2269C3.3858 7.36625 3.49263 7.5 3.63626 7.5H20.3637C20.5074 7.5 20.6142 7.36625 20.5794 7.2269C19.7361 3.85328 17.432 3 12 3C6.56803 3 4.26394 3.85328 3.42064 7.2269Z" ></path>
  </symbol>
  <symbol  xmlns="http://www.w3.org/2000/svg" viewBox="0 0 24 24" id="youtube">
    <path d="M19.6909 8.64337C19.5181 8.00076 19.0114 7.4942 18.3689 7.32117C17.1951 7 12.4998 7 12.4998 7C12.4998 7 7.80472 7 6.63092 7.30899C6.00076 7.48184 5.48175 8.00085 5.3089 8.64337C5 9.81708 5 12.2512 5 12.2512C5 12.2512 5 14.6976 5.3089 15.859C5.48193 16.5015 5.9884 17.0081 6.63101 17.1811C7.81708 17.5024 12.5 17.5024 12.5 17.5024C12.5 17.5024 17.1951 17.5024 18.3689 17.1934C19.0115 17.0204 19.5181 16.5139 19.6911 15.8714C19.9999 14.6976 19.9999 12.2635 19.9999 12.2635C19.9999 12.2635 20.0123 9.81708 19.6909 8.64337ZM11.0049 14.4999V10.0025L14.9093 12.2512L11.0049 14.4999Z" ></path>
  </symbol>
  <symbol  xmlns="http://www.w3.org/2000/svg" viewBox="0 0 24 24" id="add">
    <path fill-rule="evenodd" clip-rule="evenodd" d="M2 12C2 20.235 3.765 22 12 22C20.235 22 22 20.235 22 12C22 3.765 20.235 2 12 2C3.765 2 2 3.765 2 12ZM7.83333 12C7.83333 11.5398 8.20643 11.1667 8.66667 11.1667H11.1667V8.66667C11.1667 8.20643 11.5398 7.83333 12 7.83333C12.4602 7.83333 12.8333 8.20643 12.8333 8.66667V11.1667H15.3333C15.7936 11.1667 16.1667 11.5398 16.1667 12C16.1667 12.4602 15.7936 12.8333 15.3333 12.8333H12.8333V15.3333C12.8333 15.7936 12.4602 16.1667 12 16.1667C11.5398 16.1667 11.1667 15.7936 11.1667 15.3333V12.8333H8.66667C8.20643 12.8333 7.83333 12.4602 7.83333 12Z" ></path>
  </symbol>
  <symbol  xmlns="http://www.w3.org/2000/svg" viewBox="0 0 16 16" id="arrow">
    <path fill-rule="evenodd" clip-rule="evenodd" d="M10.7071 3.29289C11.0976 3.68342 11.0976 4.31658 10.7071 4.70711L7.41421 8L10.7071 11.2929C11.0976 11.6834 11.0976 12.3166 10.7071 12.7071C10.3166 13.0976 9.68342 13.0976 9.29289 12.7071L5.29289 8.70711C4.90237 8.31658 4.90237 7.68342 5.29289 7.29289L9.29289 3.29289C9.68342 2.90237 10.3166 2.90237 10.7071 3.29289Z" ></path>
  </symbol>
  <symbol  xmlns="http://www.w3.org/2000/svg" viewBox="0 0 24 24" id="arrow-left">
    <path fill-rule="evenodd" clip-rule="evenodd" d="M12 -1.04907e-06C21.882 -1.85161e-07 24 2.118 24 12C24 21.882 21.882 24 12 24C2.118 24 1.85161e-07 21.882 1.04907e-06 12C1.91299e-06 2.118 2.118 -1.91299e-06 12 -1.04907e-06ZM13.2929 7.29289L9.29289 11.2929C8.90237 11.6834 8.90237 12.3166 9.29289 12.7071L13.2929 16.7071C13.6834 17.0976 14.3166 17.0976 14.7071 16.7071C15.0976 16.3166 15.0976 15.6834 14.7071 15.2929L11.4142 12L14.7071 8.70711C15.0976 8.31658 15.0976 7.68342 14.7071 7.29289C14.3166 6.90237 13.6834 6.90237 13.2929 7.29289Z" ></path>
  </symbol>
  <symbol  xmlns="http://www.w3.org/2000/svg" viewBox="0 0 24 24" id="arrow-right">
    <path fill-rule="evenodd" clip-rule="evenodd" d="M12 -1.04907e-06C2.118 -1.85161e-07 -1.91299e-06 2.118 -1.04907e-06 12C-1.85161e-07 21.882 2.118 24 12 24C21.882 24 24 21.882 24 12C24 2.118 21.882 -1.91299e-06 12 -1.04907e-06ZM10.7071 7.29289L14.7071 11.2929C15.0976 11.6834 15.0976 12.3166 14.7071 12.7071L10.7071 16.7071C10.3166 17.0976 9.68342 17.0976 9.29289 16.7071C8.90237 16.3166 8.90237 15.6834 9.29289 15.2929L12.5858 12L9.29289 8.70711C8.90237 8.31658 8.90237 7.68342 9.29289 7.29289C9.68342 6.90237 10.3166 6.90237 10.7071 7.29289Z" ></path>
  </symbol>
  <symbol  xmlns="http://www.w3.org/2000/svg" viewBox="0 0 16 16" id="check">
    <path fill-rule="evenodd" clip-rule="evenodd" d="M14.774 4.36679C15.1237 4.79424 15.0607 5.42426 14.6333 5.77399L6.38327 12.524C6.0149 12.8254 5.48516 12.8254 5.11679 12.524L1.36679 9.45581C0.939347 9.10608 0.876345 8.47606 1.22607 8.04861C1.5758 7.62117 2.20582 7.55816 2.63327 7.90789L5.75003 10.458L13.3668 4.22607C13.7942 3.87635 14.4243 3.93935 14.774 4.36679Z" ></path>
  </symbol>
  <symbol  xmlns="http://www.w3.org/2000/svg" viewBox="0 0 16 16" id="close">
    <path fill-rule="evenodd" clip-rule="evenodd" d="M1.29289 13.2929C0.902369 13.6834 0.902369 14.3166 1.29289 14.7071C1.68342 15.0976 2.31658 15.0976 2.70711 14.7071L8.00001 9.4142L13.2929 14.7071C13.6834 15.0976 14.3166 15.0976 14.7071 14.7071C15.0976 14.3166 15.0977 13.6834 14.7071 13.2929L9.41422 7.99998L14.7071 2.70711C15.0976 2.31658 15.0976 1.68342 14.7071 1.29289C14.3166 0.902369 13.6834 0.902368 13.2929 1.29289L8.00001 6.58577L2.70714 1.2929C2.31661 0.902373 1.68345 0.902373 1.29292 1.2929C0.902399 1.68342 0.902399 2.31659 1.29292 2.70711L6.58579 7.99998L1.29289 13.2929Z" ></path>
  </symbol>
  <symbol  xmlns="http://www.w3.org/2000/svg" viewBox="0 0 24 24" id="deposits">
    <path d="M13.5 11.25C13.5 12.0784 12.8284 12.75 12 12.75C11.1716 12.75 10.5 12.0784 10.5 11.25C10.5 10.4216 11.1716 9.75 12 9.75C12.8284 9.75 13.5 10.4216 13.5 11.25Z" ></path>
    <path fill-rule="evenodd" clip-rule="evenodd" d="M7.5 19.173C3.89902 18.4511 3 16.361 3 11.25C3 4.45612 4.5885 3 12 3C19.4115 3 21 4.45612 21 11.25C21 16.361 20.101 18.4511 16.5 19.173V20.25C16.5 20.6642 16.1642 21 15.75 21C15.3358 21 15 20.6642 15 20.25V19.3846C14.1255 19.4661 13.1305 19.5 12 19.5C10.8695 19.5 9.87455 19.4661 9 19.3846V20.25C9 20.6642 8.66421 21 8.25 21C7.83579 21 7.5 20.6642 7.5 20.25V19.173ZM12.7443 8.34305C12.7481 8.31256 12.75 8.28151 12.75 8.25V7.5C12.75 7.08579 12.4142 6.75 12 6.75C11.5858 6.75 11.25 7.08579 11.25 7.5V8.25C11.25 8.28151 11.2519 8.31256 11.2557 8.34305C10.1969 8.61334 9.36334 9.44689 9.09305 10.5057C9.06256 10.5019 9.03151 10.5 9 10.5H8.25C7.83579 10.5 7.5 10.8358 7.5 11.25C7.5 11.6642 7.83579 12 8.25 12H9C9.03151 12 9.06256 11.9981 9.09305 11.9943C9.36334 13.0531 10.1969 13.8867 11.2557 14.1569C11.2519 14.1874 11.25 14.2185 11.25 14.25V15C11.25 15.4142 11.5858 15.75 12 15.75C12.4142 15.75 12.75 15.4142 12.75 15V14.25C12.75 14.2185 12.7481 14.1874 12.7443 14.1569C13.8031 13.8867 14.6367 13.0531 14.9069 11.9943C14.9374 11.9981 14.9685 12 15 12H15.75C16.1642 12 16.5 11.6642 16.5 11.25C16.5 10.8358 16.1642 10.5 15.75 10.5H15C14.9685 10.5 14.9374 10.5019 14.9069 10.5057C14.6367 9.44689 13.8031 8.61334 12.7443 8.34305Z" ></path>
  </symbol>
  <symbol  xmlns="http://www.w3.org/2000/svg" viewBox="0 0 24 24" id="email">
    <path d="M11.8182 21C3.73291 21 2 19.4115 2 12C2 9.96306 2.13089 8.36595 2.48858 7.12078C3.40443 8.03897 4.56014 9.1431 5.8154 10.1266C7.59572 11.5214 9.75188 12.8182 11.8182 12.8182C13.8845 12.8182 16.0406 11.5214 17.821 10.1266C19.0762 9.1431 20.2319 8.03897 21.1478 7.12078C21.5055 8.36595 21.6364 9.96306 21.6364 12C21.6364 19.4115 19.9035 21 11.8182 21Z" ></path>
    <path d="M20.4347 5.51436C19.476 6.49144 18.2044 7.74736 16.8118 8.83847C15.0575 10.2129 13.2864 11.1818 11.8182 11.1818C10.3499 11.1818 8.57882 10.2129 6.8246 8.83847C5.43195 7.74736 4.16034 6.49144 3.20163 5.51436C4.5011 3.55031 7.05931 3 11.8182 3C16.5771 3 19.1353 3.55031 20.4347 5.51436Z" ></path>
  </symbol>
</svg>