<svg width="24" height="24" viewBox="0 0 24 24" fill="none" xmlns="http://www.w3.org/2000/svg">
<path d="M19 7.34663C18.4794 7.575 17.9246 7.72637 17.3462 7.79987C17.9412 7.44462 18.3954 6.88637 18.6089 6.2135C18.0541 6.54425 17.4416 6.77788 16.7889 6.90825C16.2621 6.34738 15.5114 6 14.6924 6C13.1034 6 11.8241 7.28975 11.8241 8.87088C11.8241 9.09838 11.8434 9.31712 11.8906 9.52537C9.5045 9.409 7.39313 8.26538 5.97475 6.52325C5.72712 6.95288 5.58188 7.44463 5.58188 7.974C5.58188 8.968 6.09375 9.84912 6.85675 10.3593C6.39562 10.3505 5.94325 10.2166 5.56 10.0058C5.56 10.0145 5.56 10.0259 5.56 10.0373C5.56 11.432 6.55487 12.5905 7.8595 12.8574C7.62587 12.9212 7.37125 12.9519 7.107 12.9519C6.92325 12.9519 6.73775 12.9414 6.56362 12.9029C6.9355 14.0395 7.99075 14.8751 9.2455 14.9023C8.269 15.6661 7.02912 16.1264 5.68688 16.1264C5.4515 16.1264 5.22575 16.1159 5 16.087C6.27137 16.9069 7.77813 17.375 9.403 17.375C14.6845 17.375 17.572 13 17.572 9.20775C17.572 9.08087 17.5676 8.95837 17.5615 8.83675C18.1311 8.4325 18.6097 7.92763 19 7.34663Z" fill="white"/>
</svg>
