<svg width="24" height="24" viewBox="0 0 24 24" fill="none" xmlns="http://www.w3.org/2000/svg">
<path d="M5.16667 7C5.16667 9.76142 7.40524 12 10.1667 12C12.9281 12 15.1667 9.76142 15.1667 7C15.1667 4.23858 12.9281 2 10.1667 2C7.40524 2 5.16667 4.23858 5.16667 7Z" fill="white"/>
<path d="M1 17.8333C1 21.2646 2.61792 22 10.1667 22C17.7154 22 19.3333 21.2646 19.3333 17.8333C19.3333 14.4021 17.7154 13.6667 10.1667 13.6667C2.61792 13.6667 1 14.4021 1 17.8333Z" fill="white"/>
<path d="M16 10.3333C16 9.8731 16.3731 9.5 16.8333 9.5H18.5V7.83333C18.5 7.3731 18.8731 7 19.3333 7C19.7936 7 20.1667 7.3731 20.1667 7.83333V9.5H21.8333C22.2936 9.5 22.6667 9.8731 22.6667 10.3333C22.6667 10.7936 22.2936 11.1667 21.8333 11.1667H20.1667V12.8333C20.1667 13.2936 19.7936 13.6667 19.3333 13.6667C18.8731 13.6667 18.5 13.2936 18.5 12.8333V11.1667H16.8333C16.3731 11.1667 16 10.7936 16 10.3333Z" fill="white"/>
</svg>
