<svg width="24" height="24" viewBox="0 0 24 24" fill="none" xmlns="http://www.w3.org/2000/svg">
<path d="M2 12C2 20.235 3.765 22 12 22C18.4672 22 20.944 20.9115 21.7094 16.4555C21.7353 16.3048 21.6184 16.1667 21.4654 16.1667H16.1667C15.6195 16.1667 15.0777 16.0589 14.5722 15.8495C14.0667 15.6401 13.6073 15.3332 13.2204 14.9463C12.8335 14.5594 12.5266 14.1 12.3172 13.5945C12.1078 13.089 12 12.5472 12 12C12 11.4528 12.1078 10.911 12.3172 10.4055C12.5266 9.89998 12.8335 9.44064 13.2204 9.05373C13.6073 8.66682 14.0667 8.35991 14.5722 8.15051C15.0777 7.94111 15.6195 7.83333 16.1667 7.83333H21.4654C21.6184 7.83333 21.7353 7.69517 21.7094 7.54446C20.944 3.08854 18.4672 2 12 2C3.765 2 2 3.765 2 12Z" fill="white"/>
<path fill-rule="evenodd" clip-rule="evenodd" d="M22 12C22 12.8177 21.9826 13.5716 21.9432 14.2663C21.9357 14.3978 21.8265 14.5 21.6947 14.5H16.1667C15.8383 14.5 15.5133 14.4354 15.2099 14.3097C14.9066 14.184 14.631 13.9999 14.3989 13.7678C14.1667 13.5356 13.9826 13.26 13.8569 12.9567C13.7313 12.6534 13.6667 12.3283 13.6667 12C13.6667 11.6717 13.7313 11.3466 13.8569 11.0433C13.9826 10.74 14.1667 10.4644 14.3989 10.2322C14.631 10.0001 14.9066 9.81596 15.2099 9.69028C15.5133 9.56465 15.8383 9.5 16.1667 9.5H21.6947C21.8265 9.5 21.9357 9.60221 21.9432 9.73375C21.9826 10.4284 22 11.1823 22 12ZM17 11.1667C16.5398 11.1667 16.1667 11.5398 16.1667 12C16.1667 12.4602 16.5398 12.8333 17 12.8333H18.6667C19.1269 12.8333 19.5 12.4602 19.5 12C19.5 11.5398 19.1269 11.1667 18.6667 11.1667H17Z" fill="white"/>
</svg>
