<svg width="16" height="16" viewBox="0 0 16 16" fill="none" xmlns="http://www.w3.org/2000/svg">
<g clip-path="url(#clip0_132_9784)">
<path fill-rule="evenodd" clip-rule="evenodd" d="M7.99996 1.99996C4.68625 1.99996 1.99996 4.68625 1.99996 7.99996C1.99996 11.3137 4.68625 14 7.99996 14C11.3137 14 14 11.3137 14 7.99996C14 4.68625 11.3137 1.99996 7.99996 1.99996ZM0.666626 7.99996C0.666626 3.94987 3.94987 0.666626 7.99996 0.666626C12.05 0.666626 15.3333 3.94987 15.3333 7.99996C15.3333 12.05 12.05 15.3333 7.99996 15.3333C3.94987 15.3333 0.666626 12.05 0.666626 7.99996Z" fill="white"/>
<path fill-rule="evenodd" clip-rule="evenodd" d="M8.00004 4.66663C8.36823 4.66663 8.66671 4.9651 8.66671 5.33329V7.99996C8.66671 8.36815 8.36823 8.66663 8.00004 8.66663C7.63185 8.66663 7.33337 8.36815 7.33337 7.99996V5.33329C7.33337 4.9651 7.63185 4.66663 8.00004 4.66663Z" fill="white"/>
<path fill-rule="evenodd" clip-rule="evenodd" d="M7.33337 10.6667C7.33337 10.2985 7.63185 10 8.00004 10H8.00671C8.3749 10 8.67337 10.2985 8.67337 10.6667C8.67337 11.0349 8.3749 11.3333 8.00671 11.3333H8.00004C7.63185 11.3333 7.33337 11.0349 7.33337 10.6667Z" fill="white"/>
</g>
<defs>
<clipPath id="clip0_132_9784">
<rect width="16" height="16" fill="white"/>
</clipPath>
</defs>
</svg>
