<svg width="24" height="24" viewBox="0 0 24 24" fill="none" xmlns="http://www.w3.org/2000/svg">
<path fill-rule="evenodd" clip-rule="evenodd" d="M3 12C3 19.4115 4.5885 21 12 21C19.4115 21 21 19.4115 21 12C21 11.5511 20.9942 11.1236 20.9816 10.7166C20.9778 10.5956 20.8784 10.5 20.7575 10.5H3.24253C3.12156 10.5 3.02216 10.5956 3.01842 10.7166C3.00583 11.1236 3 11.5511 3 12ZM16.5 17.25C16.9142 17.25 17.25 16.9142 17.25 16.5C17.25 16.0858 16.9142 15.75 16.5 15.75H13.5C13.0858 15.75 12.75 16.0858 12.75 16.5C12.75 16.9142 13.0858 17.25 13.5 17.25H16.5Z" fill="white"/>
<path d="M3.42064 7.2269C3.3858 7.36625 3.49263 7.5 3.63626 7.5H20.3637C20.5074 7.5 20.6142 7.36625 20.5794 7.2269C19.7361 3.85328 17.432 3 12 3C6.56803 3 4.26394 3.85328 3.42064 7.2269Z" fill="white"/>
</svg>
