<svg width="24" height="24" viewBox="0 0 24 24" fill="none" xmlns="http://www.w3.org/2000/svg">
<path d="M19.6909 8.64337C19.5181 8.00076 19.0114 7.4942 18.3689 7.32117C17.1951 7 12.4998 7 12.4998 7C12.4998 7 7.80472 7 6.63092 7.30899C6.00076 7.48184 5.48175 8.00085 5.3089 8.64337C5 9.81708 5 12.2512 5 12.2512C5 12.2512 5 14.6976 5.3089 15.859C5.48193 16.5015 5.9884 17.0081 6.63101 17.1811C7.81708 17.5024 12.5 17.5024 12.5 17.5024C12.5 17.5024 17.1951 17.5024 18.3689 17.1934C19.0115 17.0204 19.5181 16.5139 19.6911 15.8714C19.9999 14.6976 19.9999 12.2635 19.9999 12.2635C19.9999 12.2635 20.0123 9.81708 19.6909 8.64337ZM11.0049 14.4999V10.0025L14.9093 12.2512L11.0049 14.4999Z" fill="white"/>
</svg>
