<svg width="32" height="32" viewBox="0 0 32 32" fill="none" xmlns="http://www.w3.org/2000/svg">
<rect width="32" height="32" rx="13" fill="#F3BA2F"/>
<path d="M16 32C24.8366 32 32 24.8366 32 16C32 7.16344 24.8366 0 16 0C7.16344 0 0 7.16344 0 16C0 24.8366 7.16344 32 16 32Z" fill="#F3BA2F"/>
<path d="M15.9762 8L17.9524 10.0238L12.9762 15L11 13.0238L15.9762 8Z" fill="white"/>
<path fill-rule="evenodd" clip-rule="evenodd" d="M15.9769 7.78613L18.1632 10.0251L12.9761 15.2122L10.7883 13.0244L15.9769 7.78613ZM11.2116 13.0234L12.9761 14.7879L17.7415 10.0226L15.9754 8.21397L11.2116 13.0234Z" fill="white"/>
<path d="M18.9762 11L20.9524 13.0238L12.9762 21L11 19.0238L18.9762 11Z" fill="white"/>
<path fill-rule="evenodd" clip-rule="evenodd" d="M18.977 10.7864L21.1632 13.0252L12.9761 21.2122L10.7881 19.0242L18.977 10.7864ZM11.2117 19.0236L12.9761 20.788L20.7414 13.0227L18.9751 11.2138L11.2117 19.0236Z" fill="white"/>
<path d="M9.97619 14L11.9524 16.0238L9.97619 18L8 16.0238L9.97619 14Z" fill="white"/>
<path fill-rule="evenodd" clip-rule="evenodd" d="M9.97613 13.7854L12.1632 16.0252L9.97613 18.2122L7.78906 16.0252L9.97613 13.7854ZM8.21082 16.0227L9.97613 17.788L11.7414 16.0227L9.97613 14.2148L8.21082 16.0227Z" fill="white"/>
<path d="M21.9762 14L23.9524 16.0238L15.9762 24L14 22.0238L21.9762 14Z" fill="white"/>
<path fill-rule="evenodd" clip-rule="evenodd" d="M21.977 13.7864L24.1632 16.0252L15.9761 24.2122L13.7881 22.0242L21.977 13.7864ZM14.2117 22.0236L15.9761 23.788L23.7414 16.0227L21.9751 14.2138L14.2117 22.0236Z" fill="white"/>
</svg>
