<svg width="32" height="32" viewBox="0 0 32 32" fill="none" xmlns="http://www.w3.org/2000/svg">
<rect width="32" height="32" rx="13" fill="#535FE6"/>
<path d="M11.3402 15.9351C11.2986 16.6571 11.8544 17.2752 12.5765 17.3168C12.6024 17.3168 12.6284 17.3168 12.6544 17.3168C13.3816 17.3168 13.9685 16.7298 13.9634 16.0026C13.9634 15.2754 13.3764 14.6884 12.6492 14.6936C11.9531 14.6936 11.3766 15.239 11.3402 15.9351Z" fill="white"/>
<path d="M6.44715 15.5975C6.2134 15.5819 6.01082 15.7637 6.00044 15.9975C5.99005 16.2312 6.16666 16.4338 6.4004 16.4442C6.63415 16.4598 6.83153 16.278 6.84712 16.0442C6.8627 15.8105 6.6809 15.6131 6.44715 15.5975Z" fill="white"/>
<path d="M11.2571 8.32019C11.4649 8.2163 11.548 7.95659 11.4441 7.74881C11.3402 7.54104 11.0805 7.45793 10.8727 7.56181C10.6649 7.6657 10.5818 7.92023 10.6857 8.128C10.7896 8.34097 11.0441 8.42927 11.2571 8.32019C11.2519 8.32019 11.2571 8.32019 11.2571 8.32019Z" fill="white"/>
<path d="M12.5868 10.642C12.9089 10.481 13.0388 10.0862 12.8777 9.76417C12.7167 9.44212 12.3219 9.31226 11.9999 9.47328C11.6778 9.63431 11.548 10.0291 11.709 10.3511C11.87 10.6732 12.2648 10.803 12.5868 10.642Z" fill="white"/>
<path d="M8.10939 12.2367C8.35872 12.3977 8.69116 12.3302 8.85738 12.0808C9.0184 11.8315 8.95087 11.4991 8.70154 11.3329C8.45222 11.1718 8.11978 11.2394 7.95356 11.4887C7.78734 11.738 7.86006 12.0756 8.10939 12.2367Z" fill="white"/>
<path d="M8.90411 15.3637C8.54051 15.3429 8.23404 15.6182 8.21326 15.9818C8.19248 16.3454 8.46778 16.6519 8.83139 16.6726C9.195 16.6934 9.50146 16.4181 9.52224 16.0545C9.54302 15.6961 9.26772 15.3844 8.90411 15.3637Z" fill="white"/>
<path d="M8.18201 19.7633C7.9171 19.8983 7.80801 20.2204 7.94307 20.4905C8.07812 20.7554 8.40017 20.8645 8.67028 20.7294C8.93519 20.5944 9.04427 20.2723 8.90922 20.0022C8.77417 19.7373 8.44692 19.6282 8.18201 19.7633Z" fill="white"/>
<path d="M10.7273 14.008C11.0857 14.2417 11.5636 14.143 11.7921 13.7846C12.0259 13.4262 11.9272 12.9483 11.5688 12.7198C11.2104 12.486 10.7325 12.5847 10.5039 12.9431C10.2702 13.2963 10.3689 13.7742 10.7273 14.008Z" fill="white"/>
<path d="M18.8045 10.59C19.1058 10.7874 19.5161 10.7043 19.7135 10.403C19.9109 10.1018 19.8278 9.69141 19.5265 9.49403C19.2253 9.29664 18.8149 9.37975 18.6175 9.68102C18.4149 9.98749 18.4981 10.3927 18.8045 10.59Z" fill="white"/>
<path d="M20.1447 8.27856C20.342 8.40842 20.6018 8.35128 20.7316 8.1539C20.8615 7.95651 20.8043 7.69679 20.607 7.56693C20.4096 7.43707 20.1499 7.49421 20.02 7.6864C19.8953 7.88379 19.9525 8.1487 20.1447 8.27856Z" fill="white"/>
<path d="M18.9032 14.6832C18.1812 14.6417 17.5578 15.1975 17.5215 15.9195C17.4799 16.6415 18.0357 17.2648 18.7577 17.3012C18.7837 17.3012 18.8097 17.3012 18.8305 17.3012C19.5525 17.3012 20.1394 16.7142 20.1394 15.987C20.1446 15.2962 19.5992 14.7196 18.9032 14.6832Z" fill="white"/>
<path d="M13.018 13.9145C13.2414 14.356 13.6933 14.6365 14.192 14.6365C14.914 14.6365 15.5009 14.0495 15.5009 13.3223C15.5009 13.1197 15.4542 12.9172 15.3607 12.7302C15.0334 12.0809 14.2439 11.8212 13.5998 12.1484C12.9505 12.4808 12.6908 13.2704 13.018 13.9145Z" fill="white"/>
<path d="M23.2977 12.2367C23.5626 12.1016 23.6665 11.7744 23.5315 11.5094C23.3964 11.2445 23.0692 11.1406 22.8042 11.2757C22.5393 11.4107 22.4354 11.7328 22.5653 11.9977C22.7055 12.2626 23.0276 12.3717 23.2977 12.2367Z" fill="white"/>
<path d="M19.9732 12.6522C19.5941 12.8444 19.4382 13.3067 19.6304 13.6859C19.8226 14.0651 20.2849 14.2209 20.6641 14.0287C21.0433 13.8365 21.1991 13.3742 21.0069 12.995C20.8147 12.6158 20.3524 12.4652 19.9732 12.6522Z" fill="white"/>
<path d="M15.6879 8.0812C15.984 8.09678 16.2385 7.86823 16.2593 7.57215C16.2801 7.27607 16.0463 7.02155 15.7502 7.00077C15.4542 6.98518 15.1996 7.20854 15.1789 7.50462C15.1633 7.80589 15.3918 8.06042 15.6879 8.0812Z" fill="white"/>
<path d="M15.6828 11.4731C16.1087 11.499 16.4723 11.1718 16.4931 10.7458C16.519 10.3199 16.1918 9.9563 15.7659 9.93553C15.3399 9.90956 14.9763 10.2368 14.9555 10.6627C14.9348 11.0887 15.2568 11.4523 15.6828 11.4731Z" fill="white"/>
<path d="M11.5065 19.3477C11.8857 19.1556 12.0415 18.6933 11.8493 18.3141C11.6571 17.9349 11.1948 17.779 10.8157 17.9712C10.4365 18.1634 10.2806 18.6257 10.4728 19.0049C10.665 19.3841 11.1273 19.5399 11.5065 19.3477Z" fill="white"/>
<path d="M16.1814 12.6003C15.7866 13.2081 15.9528 14.0184 16.5606 14.4132C17.1683 14.8079 17.9787 14.6417 18.3734 14.034C18.7682 13.4262 18.602 12.6159 17.9942 12.2211C17.7813 12.0809 17.5319 12.0082 17.2774 12.0082C16.8359 12.0082 16.4255 12.2315 16.1814 12.6003Z" fill="white"/>
<path d="M18.4618 18.0855C18.1345 17.4362 17.345 17.1765 16.7009 17.5037C16.0516 17.831 15.7919 18.6205 16.1191 19.2646C16.4463 19.9139 17.2359 20.1737 17.88 19.8464C18.5241 19.5244 18.789 18.7452 18.467 18.0959C18.467 18.0907 18.467 18.0907 18.4618 18.0855Z" fill="white"/>
<path d="M20.7524 17.992C20.394 17.7582 19.9161 17.8569 19.6875 18.2153C19.4538 18.5737 19.5525 19.0516 19.9109 19.2802C20.2693 19.5139 20.7472 19.4152 20.9757 19.0568C21.2095 18.7036 21.1108 18.2257 20.7524 17.992Z" fill="white"/>
<path d="M23.2665 16.0234C23.2873 15.6598 23.012 15.3533 22.6484 15.3325C22.2848 15.3117 21.9783 15.587 21.9575 15.9507C21.9367 16.3143 22.212 16.6207 22.5757 16.6415C22.9341 16.6623 23.2457 16.3818 23.2665 16.0234Z" fill="white"/>
<path d="M25.0794 15.5559C24.8456 15.5403 24.643 15.7221 24.6326 15.9558C24.6222 16.1896 24.7989 16.3922 25.0326 16.4025C25.2663 16.4181 25.4637 16.2363 25.4793 16.0026C25.4897 15.7688 25.3131 15.5714 25.0794 15.5559Z" fill="white"/>
<path d="M23.3704 19.7633C23.1211 19.6023 22.7886 19.6698 22.6224 19.9191C22.4614 20.1684 22.5289 20.5009 22.7782 20.6671C23.0276 20.8281 23.36 20.7606 23.5262 20.5113C23.6924 20.2619 23.6197 19.9243 23.3704 19.7633Z" fill="white"/>
<path d="M11.3298 23.7215C11.1324 23.5916 10.8727 23.6488 10.7428 23.8409C10.613 24.0383 10.6701 24.298 10.8623 24.4279C11.0597 24.5578 11.3194 24.5006 11.4493 24.3084C11.5843 24.1162 11.5272 23.8513 11.3298 23.7215Z" fill="white"/>
<path d="M20.2226 23.6798C20.0148 23.7837 19.9317 24.0434 20.0356 24.2512C20.1395 24.459 20.3992 24.5421 20.6069 24.4382C20.8147 24.3343 20.8978 24.0798 20.7939 23.872C20.6901 23.659 20.4355 23.5707 20.2226 23.6798C20.2278 23.6798 20.2226 23.6798 20.2226 23.6798Z" fill="white"/>
<path d="M15.2984 19.3997C15.6932 18.792 15.5269 17.9816 14.9192 17.5817C14.3115 17.1869 13.5011 17.3531 13.1012 17.9609C12.7012 18.5686 12.8726 19.3789 13.4804 19.7789C13.6933 19.9191 13.9427 19.9919 14.1972 19.9919C14.6439 19.997 15.0543 19.7737 15.2984 19.3997Z" fill="white"/>
<path d="M12.6751 21.4099C12.3739 21.2125 11.9635 21.2956 11.7661 21.5969C11.5687 21.8982 11.6518 22.3085 11.9531 22.5059C12.2544 22.7033 12.6647 22.6202 12.8621 22.3189C13.0647 22.0177 12.9816 21.6073 12.6751 21.4099Z" fill="white"/>
<path d="M15.7347 23.9188C15.4386 23.9033 15.1841 24.1318 15.1633 24.4279C15.1425 24.724 15.3762 24.9785 15.6723 24.9993C15.9684 25.0149 16.2229 24.7915 16.2437 24.4954C16.2593 24.1941 16.0307 23.9396 15.7347 23.9188Z" fill="white"/>
<path d="M15.7399 20.5268C15.3139 20.5009 14.9503 20.8281 14.9295 21.254C14.9036 21.68 15.2308 22.0436 15.6568 22.0644C16.0827 22.0851 16.4463 21.7631 16.4671 21.3372C16.493 20.9164 16.1658 20.5476 15.7399 20.5268Z" fill="white"/>
<path d="M18.8928 21.358C18.5708 21.5242 18.4409 21.919 18.6071 22.2411C18.7734 22.5631 19.1681 22.693 19.4902 22.5267C19.8122 22.3657 19.9421 21.9709 19.7811 21.6489C19.6148 21.3268 19.2201 21.1918 18.8928 21.358Z" fill="white"/>
</svg>
