<svg width="32" height="32" viewBox="0 0 32 32" fill="none" xmlns="http://www.w3.org/2000/svg">
<rect width="32" height="32" rx="13" fill="#D84210"/>
<path fill-rule="evenodd" clip-rule="evenodd" d="M16.0799 11.1289H15.5322H15.0042C14.8281 11.109 14.6129 11.109 14.3981 11.0897C14.3397 11.109 14.3194 11.1684 14.2999 11.2463C14.2805 11.3248 14.2999 11.3835 14.3397 11.442L14.5742 11.4617C14.867 11.5198 15.082 11.5785 15.2197 11.6377C15.356 11.7156 15.4535 11.8527 15.4932 12.0289C15.5322 12.2049 15.5516 12.4392 15.5322 12.7329C15.5123 13.1435 15.4932 13.6321 15.4737 14.1994C15.4535 14.7673 15.4148 15.354 15.3754 15.9604C15.3367 16.8983 15.2525 19.1833 14.9976 19.8599C14.9385 20.0162 14.8411 20.1143 14.7236 20.1738C14.5862 20.2317 14.4293 20.2904 14.2338 20.3107L13.92 20.3497C13.8616 20.3884 13.8417 20.4478 13.8616 20.5456C13.8616 20.6043 13.881 20.6626 13.9397 20.7217C14.1942 20.7023 14.4293 20.6825 14.684 20.6626H15.4289H16.2318C16.5253 20.6825 16.7801 20.7023 17.015 20.7217C17.0741 20.6825 17.1131 20.6239 17.1131 20.5456C17.1131 20.4666 17.0936 20.4084 17.0344 20.3497L16.4863 20.3107C16.3097 20.2904 16.1727 20.2516 16.0749 20.1738C16.0258 20.1339 15.9865 20.0795 15.957 20.0129C15.8414 19.735 15.8391 19.2644 15.8451 18.9724C15.8575 18.366 15.8649 17.7599 15.8842 17.1535C15.9039 16.5471 15.9233 16.0186 15.9426 15.5689C15.9617 15.1582 16.0018 14.7274 16.0209 14.2973C16.0405 13.8674 16.0597 13.4367 16.0799 13.0065H16.1187C16.2754 13.3387 16.4322 13.6716 16.569 14.043C16.7256 14.3953 16.8819 14.7475 17.0379 15.0803L18.3486 17.8764C18.4666 18.1119 18.6032 18.4054 18.7592 18.7573C18.9357 19.1288 19.1111 19.4807 19.2681 19.8325C19.3507 20.0189 19.4224 20.1939 19.4832 20.3579C19.4988 20.3579 19.6085 20.7184 19.6206 20.7603C19.696 20.8368 19.8194 20.8347 19.8949 20.7603C20.0165 20.4689 20.1435 20.1741 20.285 19.8919C20.6554 19.0603 21.0418 18.2661 21.4783 17.4664L22.7497 14.9432C22.8477 14.7274 22.9452 14.4929 23.0822 14.2388C23.2192 13.9651 23.3558 13.7108 23.4736 13.4957C23.5711 13.2608 23.6493 13.1045 23.688 13.0456H23.7079L23.7474 19.0903C23.7664 19.4028 23.7474 19.6367 23.7278 19.8127C23.7121 19.9528 23.6728 20.0858 23.5382 20.1539C23.4595 20.2516 23.3031 20.2904 23.0485 20.3107L22.6174 20.3497C22.5782 20.3884 22.5588 20.4478 22.5782 20.5456C22.5782 20.6043 22.5981 20.6626 22.657 20.7217C22.9503 20.7023 23.2633 20.6825 23.5573 20.6626H24.4197H25.2425C25.5358 20.6825 25.8296 20.7023 26.124 20.7217C26.1829 20.6825 26.2021 20.6239 26.2021 20.5456C26.2216 20.4666 26.2021 20.4084 26.163 20.3497L25.693 20.3107C25.4773 20.2904 25.3208 20.2317 25.2222 20.1337C25.1253 20.0362 25.0467 19.9185 25.0271 19.7617C25.0071 19.5859 24.9874 19.3697 24.9874 19.135C24.9473 18.4073 24.9203 17.6678 24.9013 16.9385C24.8814 16.1554 24.8421 15.4126 24.823 14.7091V12.8501C24.823 12.5178 24.8421 12.2634 24.8814 12.0676C24.9211 11.892 25.0188 11.7356 25.1554 11.6377C25.2927 11.5596 25.5269 11.5005 25.8398 11.4617L26.1335 11.442C26.173 11.4027 26.1921 11.3442 26.173 11.2463C26.173 11.1873 26.1531 11.1289 26.1143 11.0897C25.8792 11.109 25.6444 11.109 25.4294 11.1289H24.823H24.3734C24.1969 11.109 24.001 11.109 23.7474 11.0897C23.7278 11.4218 23.6104 11.7941 23.4343 12.2244C23.2192 12.6736 22.9653 13.2221 22.6523 13.8674L21.2827 16.6249C20.9275 17.3758 20.604 18.0903 20.169 18.8023H20.1299C19.7837 18.149 19.4647 17.4712 19.1507 16.8015L17.4883 13.4759C17.2734 13.0065 17.0776 12.557 16.9212 12.1462C16.784 11.7356 16.7256 11.3835 16.745 11.0897C16.5104 11.109 16.295 11.109 16.0799 11.1289ZM8.05397 18.5642C8.05397 19.0625 8.03429 19.4416 7.99444 19.7012C7.955 20.2041 7.62318 20.3688 7.15526 20.4011L6.85551 20.4409C6.75895 20.5377 6.76638 20.7474 6.87625 20.82C7.49428 20.7818 8.05325 20.7599 8.67329 20.7599C9.33447 20.7599 9.95079 20.789 10.61 20.82C10.6498 20.7801 10.6705 20.7203 10.6903 20.6406C10.6903 20.5409 10.6705 20.4804 10.6303 20.4409L10.2308 20.4011C9.91128 20.3805 9.69177 20.3205 9.57201 20.2206C9.56478 20.2155 9.55766 20.2101 9.55065 20.2047C9.42976 20.1043 9.3434 19.951 9.30703 19.7136C9.26742 19.4544 9.24736 19.0758 9.26742 18.5782V17.1815C8.82861 17.2016 8.42986 17.1815 8.07066 17.1217L8.05397 18.5642ZM6.77438 11.2797C6.75471 11.3592 6.7948 11.4188 6.85456 11.4792L7.37312 11.5381C7.59224 11.5587 7.75198 11.6182 7.85149 11.7181C7.95104 11.7976 8.01124 11.9375 8.03078 12.1568C8.05107 12.3758 8.07066 12.6956 8.07066 13.1135V16.0647C8.46959 16.0851 8.86819 16.0851 9.26742 16.0647V11.9969C9.24736 11.8377 9.26742 11.7181 9.30703 11.6182C9.32688 11.5587 9.40676 11.4983 9.50631 11.4792C9.62588 11.459 9.82571 11.459 10.0848 11.459C10.8423 11.4792 11.4206 11.678 11.8393 12.0968C12.2382 12.5152 12.4374 13.0938 12.4374 13.8121C12.4581 14.4499 12.2983 14.9883 11.9592 15.4266C11.6601 15.8062 11.2215 16.0851 10.623 16.2243C10.0451 16.3641 9.22765 16.4241 8.13064 16.4036C7.17328 16.3847 6.13656 16.3245 5 16.2049C6.25653 16.4641 7.19335 16.6432 7.79207 16.7029C8.76854 16.8232 9.7256 16.8027 10.623 16.6635C11.0816 16.6032 11.5005 16.4841 11.8794 16.3444C12.2382 16.185 12.5973 15.9657 12.9763 15.7063C13.1955 15.5467 13.3947 15.2867 13.5746 14.9483C13.7143 14.6295 13.7938 14.2505 13.8135 13.7915C13.7938 13.2929 13.6741 12.8552 13.455 12.4756C13.2355 12.0968 12.9763 11.7976 12.6371 11.579C12.2983 11.3793 11.8794 11.2191 11.4009 11.1194C10.9422 11.04 10.4037 11 9.78576 11C9.18724 11 8.64901 11 8.17055 11.0197C7.69196 11.04 7.25332 11.0598 6.87401 11.0996C6.81451 11.14 6.77438 11.1996 6.77438 11.2797Z" fill="white"/>
</svg>
