<svg width="32" height="32" viewBox="0 0 32 32" fill="none" xmlns="http://www.w3.org/2000/svg">
<rect width="32" height="32" rx="13" fill="#535FE6"/>
<path fill-rule="evenodd" clip-rule="evenodd" d="M18.7314 22.0284C20.0977 22.0284 21.58 22.496 23.2213 23.947C23.3857 24.0923 23.6046 23.9117 23.4608 23.7312C21.8484 21.6991 20.357 21.3122 18.8696 20.9854C17.0498 20.5849 16.1142 19.5631 15.4621 18.4414C15.3325 18.2184 15.274 18.2578 15.2624 18.5448C15.2477 18.8953 15.2724 19.3598 15.3511 19.8168C15.2775 19.8198 15.2039 19.8193 15.1292 19.8193C12.5267 19.8193 10.4164 17.7131 10.4164 15.1151C10.4164 12.5176 12.5267 10.4119 15.1297 10.4119C17.7322 10.4119 19.8425 12.5176 19.8425 15.1151C19.8425 15.3002 19.8334 15.4833 19.8122 15.6623C19.4683 15.6003 18.7909 15.5932 18.3158 15.6341C18.1372 15.6497 18.1625 15.7329 18.2976 15.7571C19.8556 16.0381 20.9254 17.0019 21.1705 18.7506C21.1755 18.7909 21.229 18.8025 21.2497 18.7677C21.9121 17.6647 22.2611 16.4018 22.2589 15.1151C22.2589 11.1861 19.0668 8 15.1297 8C11.1921 8 8 11.1856 8 15.1151C8 19.0451 11.1921 22.2312 15.1297 22.2312C16.1738 22.2312 17.2107 22.0284 18.7314 22.0284ZM19.262 19.4451C19.5792 19.7124 19.6756 20.0306 19.5081 20.2551C19.4148 20.3781 19.2635 20.4462 19.0819 20.4462C18.9048 20.4463 18.7333 20.3842 18.5972 20.2707C18.3087 20.019 18.224 19.6115 18.4121 19.38C18.4858 19.2892 18.6053 19.2393 18.7485 19.2393C18.9225 19.2393 19.1051 19.3124 19.262 19.4451ZM20.7256 18.7652C20.7721 19.0769 20.6737 19.206 20.5743 19.206C20.4659 19.206 20.3302 19.0799 20.1703 18.8302C20.012 18.5841 19.954 18.3017 20.0327 18.1589C20.0841 18.0646 20.1925 18.0233 20.3292 18.0752C20.594 18.1746 20.6974 18.5791 20.7256 18.7652Z" fill="white"/>
</svg>
