<svg width="32" height="32" viewBox="0 0 32 32" fill="none" xmlns="http://www.w3.org/2000/svg">
<rect width="32" height="32" rx="13" fill="white"/>
<path d="M23.2418 10.0939L20.9647 11.254L9.96913 16.8546C9.93195 16.571 9.91324 16.2853 9.91312 15.9993C9.91462 14.8581 10.2142 13.7372 10.7823 12.7474C11.3503 11.7577 12.1671 10.9335 13.1516 10.3565C14.1362 9.77953 15.2544 9.4698 16.3956 9.45797C17.5367 9.44614 18.6611 9.73264 19.6574 10.2891L20.9607 9.62501L21.1552 9.5258C19.9612 8.65921 18.5509 8.13961 17.0801 8.02443C15.6093 7.90924 14.1353 8.20295 12.8211 8.8731C11.5068 9.54325 10.4033 10.5637 9.63275 11.8218C8.86216 13.0798 8.45441 14.5264 8.45456 16.0017C8.45456 16.2055 8.46229 16.4084 8.47776 16.6106C8.49943 16.8969 8.43594 17.1831 8.29528 17.4334C8.15462 17.6837 7.94308 17.8868 7.68728 18.0171L7 18.3676V20.0022L9.02342 18.9708L9.67869 18.6364L10.3244 18.3076L21.916 12.4013L23.2186 11.738L25.9109 10.3659V8.73211L23.2418 10.0939Z" fill="black"/>
<path d="M25.9109 12.0012L10.9828 19.6021L9.68029 20.2669L7 21.6327V23.2657L9.66189 21.9095L11.9389 20.7494L22.9458 15.1408C22.983 15.4262 23.0017 15.7138 23.0018 16.0017C23.0011 17.1442 22.7015 18.2666 22.1329 19.2575C21.5643 20.2485 20.7465 21.0735 19.7605 21.6507C18.7745 22.2278 17.6547 22.537 16.5122 22.5476C15.3698 22.5582 14.2444 22.2698 13.2479 21.7111L13.1679 21.7535L11.7549 22.4736C12.9486 23.3402 14.3586 23.8599 15.8292 23.9754C17.2997 24.0909 18.7736 23.7975 20.0879 23.1279C21.4022 22.4582 22.5057 21.4382 23.2767 20.1806C24.0476 18.923 24.4558 17.4767 24.4563 16.0017C24.4563 15.796 24.4483 15.5904 24.4331 15.3872C24.4115 15.101 24.4749 14.8148 24.6154 14.5646C24.7559 14.3143 24.9672 14.1112 25.2228 13.9806L25.9109 13.6302V12.0012Z" fill="black"/>
</svg>
