<svg width="32" height="32" viewBox="0 0 32 32" fill="none" xmlns="http://www.w3.org/2000/svg">
<rect width="32" height="32" rx="13" fill="#FF007A"/>
<g clip-path="url(#clip0_75_8591)">
<path d="M16 32C24.8366 32 32 24.8366 32 16C32 7.16344 24.8366 0 16 0C7.16344 0 0 7.16344 0 16C0 24.8366 7.16344 32 16 32Z" fill="#FF007A"/>
<path d="M12.261 5.76699C11.976 5.72299 11.964 5.71699 12.098 5.69699C12.355 5.65699 12.963 5.71199 13.382 5.81099C14.359 6.04399 15.248 6.63899 16.198 7.69599L16.45 7.97599L16.81 7.91899C18.33 7.67399 19.877 7.86899 21.17 8.46599C21.526 8.62999 22.087 8.95699 22.157 9.04199C22.18 9.06799 22.221 9.24099 22.248 9.42499C22.344 10.062 22.296 10.55 22.102 10.915C21.996 11.113 21.99 11.175 22.061 11.345C22.0947 11.4152 22.1474 11.4746 22.2132 11.5163C22.279 11.558 22.3551 11.5804 22.433 11.581C22.755 11.581 23.101 11.061 23.261 10.338L23.325 10.051L23.451 10.194C24.143 10.978 24.686 12.047 24.779 12.807L24.804 13.006L24.687 12.826C24.487 12.516 24.287 12.304 24.029 12.133C23.565 11.826 23.074 11.722 21.774 11.653C20.6 11.591 19.935 11.491 19.277 11.276C18.156 10.911 17.591 10.424 16.259 8.67699C15.668 7.90099 15.302 7.47199 14.939 7.12699C14.112 6.34099 13.3 5.92899 12.261 5.76699Z" fill="white"/>
<path d="M22.4221 7.50002C22.4521 6.98002 22.5221 6.63702 22.6641 6.32402C22.7201 6.20002 22.7731 6.09802 22.7811 6.09802C22.7722 6.16822 22.7537 6.23686 22.7261 6.30202C22.6231 6.60602 22.6061 7.02202 22.6771 7.50502C22.7671 8.11902 22.8191 8.20702 23.4671 8.87002C23.7721 9.18102 24.1261 9.57302 24.2541 9.74202L24.4871 10.048L24.2541 9.82902C23.9691 9.56202 23.3131 9.03902 23.1681 8.96502C23.0711 8.91502 23.0561 8.91602 22.9961 8.97502C22.9411 9.03102 22.9291 9.11302 22.9221 9.50402C22.9101 10.112 22.8271 10.504 22.6261 10.894C22.5181 11.104 22.5011 11.06 22.5991 10.821C22.6721 10.643 22.6791 10.565 22.6791 9.97602C22.6791 8.79202 22.5381 8.50802 21.7131 8.02002C21.4648 7.87598 21.2099 7.74383 20.9491 7.62402C20.8202 7.57234 20.6953 7.51151 20.5751 7.44202C20.5981 7.41902 21.4021 7.65302 21.7251 7.77802C22.2071 7.96302 22.2861 7.98702 22.3451 7.96402C22.3841 7.94902 22.4031 7.83502 22.4221 7.50002ZM12.8151 9.52502C12.2361 8.72802 11.8781 7.50502 11.9551 6.59102L11.9791 6.30802L12.1111 6.33202C12.3591 6.37702 12.7861 6.53602 12.9861 6.65802C13.5341 6.99102 13.7721 7.43002 14.0131 8.55602C14.0841 8.88602 14.1771 9.25902 14.2201 9.38602C14.2881 9.58902 14.5481 10.064 14.7601 10.373C14.9121 10.595 14.8101 10.7 14.4741 10.67C13.9601 10.623 13.2641 10.143 12.8151 9.52502ZM21.7201 15.46C19.0131 14.37 18.0601 13.424 18.0601 11.828C18.0601 11.593 18.0681 11.401 18.0771 11.401C18.0871 11.401 18.1921 11.478 18.3101 11.573C18.8591 12.013 19.4741 12.201 21.1751 12.449C22.1761 12.596 22.7401 12.714 23.2601 12.886C24.9121 13.434 25.9341 14.546 26.1781 16.06C26.2481 16.5 26.2071 17.325 26.0921 17.76C26.0021 18.104 25.7251 18.723 25.6521 18.747C25.6321 18.753 25.6121 18.676 25.6061 18.569C25.5781 18.001 25.2911 17.447 24.8081 17.032C24.2591 16.561 23.5221 16.185 21.7191 15.46H21.7201ZM19.8201 15.912C19.7881 15.7189 19.7443 15.5278 19.6891 15.34L19.6191 15.134L19.7481 15.278C19.9251 15.478 20.0661 15.732 20.1841 16.072C20.2751 16.331 20.2851 16.408 20.2841 16.829C20.2841 17.243 20.2731 17.329 20.1891 17.563C20.0723 17.9061 19.8767 18.2171 19.6181 18.471C19.1231 18.975 18.4881 19.253 17.5701 19.369C17.4101 19.389 16.9461 19.423 16.5371 19.444C15.5071 19.498 14.8301 19.608 14.2211 19.822C14.1662 19.8466 14.1072 19.8609 14.0471 19.864C14.0231 19.839 14.4371 19.592 14.7801 19.427C15.2631 19.194 15.7431 19.067 16.8201 18.888C17.3521 18.799 17.9021 18.692 18.0411 18.649C19.3591 18.245 20.0361 17.203 19.8191 15.912H19.8201Z" fill="white"/>
<path d="M21.06 18.116C20.7 17.343 20.618 16.596 20.815 15.9C20.836 15.826 20.87 15.765 20.89 15.765C20.9577 15.7895 21.0214 15.8239 21.079 15.867C21.245 15.979 21.577 16.167 22.462 16.649C23.567 17.252 24.197 17.719 24.626 18.251C25.001 18.718 25.233 19.25 25.345 19.898C25.408 20.265 25.371 21.148 25.277 21.518C24.98 22.684 24.289 23.6 23.305 24.134C23.2121 24.1877 23.1159 24.2355 23.017 24.277C23.003 24.277 23.055 24.144 23.134 23.98C23.464 23.288 23.503 22.614 23.252 21.864C23.099 21.405 22.786 20.844 22.155 19.898C21.421 18.798 21.241 18.504 21.06 18.116ZM10.893 22.287C11.898 21.439 13.147 20.837 14.286 20.652C14.776 20.572 15.594 20.604 16.048 20.72C16.776 20.906 17.428 21.324 17.767 21.821C18.097 22.307 18.24 22.731 18.387 23.673C18.447 24.045 18.51 24.418 18.529 24.503C18.639 24.991 18.856 25.382 19.124 25.578C19.549 25.889 20.282 25.908 21.002 25.628C21.0772 25.5935 21.1565 25.5686 21.238 25.554C21.264 25.58 20.902 25.823 20.646 25.951C20.3439 26.1127 20.0056 26.1946 19.663 26.189C19.003 26.189 18.455 25.854 17.998 25.169C17.908 25.034 17.706 24.631 17.548 24.272C17.066 23.172 16.828 22.836 16.268 22.469C15.779 22.149 15.15 22.092 14.677 22.324C14.055 22.629 13.882 23.424 14.327 23.927C14.504 24.127 14.834 24.3 15.104 24.333C15.2218 24.3486 15.3415 24.3388 15.4552 24.3041C15.5688 24.2694 15.6737 24.2108 15.7627 24.1321C15.8517 24.0534 15.9228 23.9565 15.9712 23.848C16.0195 23.7395 16.044 23.6218 16.043 23.503C16.043 23.171 15.915 22.983 15.595 22.838C15.158 22.641 14.688 22.871 14.69 23.282C14.691 23.457 14.767 23.567 14.943 23.647C15.056 23.697 15.058 23.702 14.966 23.683C14.565 23.599 14.471 23.116 14.794 22.795C15.181 22.409 15.982 22.579 16.257 23.105C16.373 23.326 16.386 23.767 16.285 24.033C16.06 24.628 15.402 24.94 14.735 24.77C14.281 24.654 14.096 24.529 13.549 23.965C12.598 22.985 12.229 22.795 10.857 22.581L10.594 22.54L10.894 22.287H10.893Z" fill="white"/>
<path fill-rule="evenodd" clip-rule="evenodd" d="M6.19604 3.35003L6.29204 3.46704C10 8.00704 11.916 10.363 12.038 10.531C12.238 10.809 12.163 11.058 11.819 11.254C11.628 11.363 11.234 11.473 11.038 11.473C10.815 11.473 10.564 11.366 10.381 11.193C10.252 11.07 9.73104 10.292 8.52804 8.42504C7.9647 7.54263 7.39401 6.66493 6.81604 5.79203C6.76704 5.74603 6.76804 5.74704 8.43404 8.72803C9.48004 10.6 9.83404 11.261 9.83404 11.35C9.83404 11.53 9.78405 11.624 9.56205 11.872C9.19205 12.285 9.02704 12.749 8.90704 13.709C8.77304 14.786 8.39705 15.546 7.35304 16.847C6.74304 17.609 6.64304 17.749 6.48804 18.056C6.29404 18.442 6.24104 18.659 6.21904 19.147C6.19604 19.663 6.24104 19.997 6.39904 20.49C6.53705 20.922 6.68104 21.208 7.04904 21.778C7.36704 22.271 7.55005 22.637 7.55005 22.78C7.55005 22.894 7.57204 22.894 8.06504 22.783C9.24404 22.517 10.201 22.048 10.74 21.474C11.073 21.119 11.151 20.923 11.154 20.436C11.155 20.118 11.144 20.051 11.058 19.868C10.918 19.57 10.663 19.322 10.101 18.938C9.36404 18.434 9.05005 18.028 8.96305 17.471C8.89105 17.014 8.97404 16.691 9.38204 15.837C9.80304 14.953 9.90804 14.577 9.97904 13.686C10.024 13.11 10.087 12.883 10.253 12.701C10.425 12.511 10.581 12.446 11.008 12.388C11.704 12.293 12.147 12.113 12.511 11.778C12.827 11.486 12.959 11.205 12.979 10.783L12.995 10.463L12.818 10.257C12.564 9.96104 10.463 7.64303 6.51404 3.30104L6.40804 3.18604L6.19604 3.35104V3.35003ZM7.91004 19.732C7.97981 19.6085 8.00064 19.4633 7.96842 19.3251C7.9362 19.187 7.85326 19.0659 7.73604 18.986C7.50804 18.834 7.15304 18.906 7.15304 19.104C7.15304 19.164 7.18604 19.208 7.26104 19.247C7.38804 19.312 7.39704 19.386 7.29804 19.535C7.19704 19.687 7.20504 19.821 7.32104 19.912C7.50704 20.058 7.77104 19.977 7.91104 19.732H7.91004ZM13.434 12.556C13.107 12.656 12.79 13.003 12.691 13.366C12.631 13.587 12.665 13.976 12.755 14.096C12.9 14.29 13.041 14.341 13.421 14.338C14.165 14.333 14.811 14.014 14.887 13.615C14.949 13.288 14.664 12.835 14.273 12.635C14.071 12.533 13.642 12.492 13.434 12.556ZM14.304 13.236C14.419 13.073 14.368 12.896 14.174 12.778C13.802 12.551 13.24 12.738 13.24 13.09C13.24 13.264 13.533 13.455 13.801 13.455C13.981 13.455 14.225 13.348 14.304 13.236Z" fill="white"/>
</g>
<defs>
<clipPath id="clip0_75_8591">
<rect width="32" height="32" fill="white"/>
</clipPath>
</defs>
</svg>
