<svg width="32" height="32" viewBox="0 0 32 32" fill="none" xmlns="http://www.w3.org/2000/svg">
<rect width="32" height="32" rx="13" fill="#535FE6"/>
<g clip-path="url(#clip0_75_8590)">
<path d="M16 32C24.8366 32 32 24.8366 32 16C32 7.16344 24.8366 0 16 0C7.16344 0 0 7.16344 0 16C0 24.8366 7.16344 32 16 32Z" fill="#3E73C4"/>
<path d="M20.0221 18.124C20.0221 16 18.7421 15.272 16.1821 14.968C14.3541 14.725 13.9891 14.24 13.9891 13.39C13.9891 12.54 14.5991 11.994 15.8171 11.994C16.9141 11.994 17.5241 12.358 17.8281 13.269C17.8597 13.3571 17.9176 13.4334 17.994 13.4875C18.0703 13.5417 18.1614 13.5712 18.2551 13.572H19.2301C19.2864 13.5735 19.3424 13.5636 19.3948 13.5428C19.4471 13.522 19.4947 13.4907 19.5346 13.451C19.5746 13.4113 19.606 13.3638 19.627 13.3116C19.6481 13.2593 19.6583 13.2033 19.6571 13.147V13.087C19.5379 12.4279 19.2044 11.8266 18.7084 11.3765C18.2124 10.9264 17.5816 10.6528 16.9141 10.598V9.14201C16.9141 8.89901 16.7311 8.71701 16.4271 8.65601H15.5121C15.2691 8.65601 15.0861 8.83801 15.0251 9.14201V10.538C13.1961 10.78 12.0391 11.994 12.0391 13.512C12.0391 15.514 13.2571 16.303 15.8171 16.607C17.5241 16.91 18.0721 17.275 18.0721 18.246C18.0721 19.216 17.2191 19.884 16.0611 19.884C14.4761 19.884 13.9281 19.217 13.7451 18.306C13.6851 18.064 13.5011 17.942 13.3181 17.942H12.2821C12.2258 17.9406 12.1699 17.9507 12.1177 17.9716C12.0654 17.9924 12.018 18.0237 11.9781 18.0634C11.9383 18.1031 11.907 18.1505 11.886 18.2027C11.865 18.2549 11.8548 18.3108 11.8561 18.367V18.427C12.0991 19.945 13.0751 21.037 15.0861 21.341V22.798C15.0861 23.04 15.2691 23.223 15.5731 23.283H16.4881C16.7311 23.283 16.9141 23.101 16.9751 22.798V21.34C18.8041 21.037 20.0221 19.762 20.0221 18.123V18.124Z" fill="white"/>
<path d="M12.892 24.497C8.13804 22.797 5.70004 17.517 7.46804 12.844C8.38204 10.294 10.393 8.353 12.892 7.442C13.136 7.321 13.257 7.139 13.257 6.835V5.985C13.257 5.743 13.136 5.561 12.892 5.5C12.831 5.5 12.709 5.5 12.648 5.56C11.2765 5.98832 10.0032 6.68373 8.90146 7.60617C7.79975 8.52862 6.8914 9.65988 6.22869 10.9348C5.56598 12.2098 5.16201 13.6032 5.04005 15.0349C4.91809 16.4666 5.08054 17.9083 5.51804 19.277C6.61404 22.677 9.23504 25.287 12.648 26.379C12.892 26.5 13.136 26.379 13.196 26.136C13.257 26.076 13.257 26.014 13.257 25.893V25.043C13.257 24.861 13.075 24.619 12.892 24.497ZM19.352 5.561C19.108 5.439 18.864 5.561 18.804 5.803C18.743 5.864 18.743 5.925 18.743 6.046V6.896C18.743 7.139 18.925 7.381 19.108 7.503C23.862 9.203 26.3 14.483 24.532 19.156C23.618 21.706 21.607 23.647 19.108 24.558C18.864 24.679 18.743 24.861 18.743 25.165V26.015C18.743 26.257 18.864 26.439 19.108 26.5C19.169 26.5 19.291 26.5 19.352 26.44C20.7236 26.0117 21.9969 25.3163 23.0986 24.3938C24.2003 23.4714 25.1087 22.3401 25.7714 21.0652C26.4341 19.7902 26.8381 18.3968 26.96 16.9651C27.082 15.5334 26.9195 14.0917 26.482 12.723C25.386 9.263 22.704 6.653 19.352 5.561Z" fill="white"/>
</g>
<defs>
<clipPath id="clip0_75_8590">
<rect width="32" height="32" fill="white"/>
</clipPath>
</defs>
</svg>
