<svg width="32" height="32" viewBox="0 0 32 32" fill="none" xmlns="http://www.w3.org/2000/svg">
<rect width="32" height="32" rx="13" fill="#535FE6"/>
<path fill-rule="evenodd" clip-rule="evenodd" d="M7 16C7 23.4115 8.5885 25 16 25C23.4115 25 25 23.4115 25 16C25 15.5511 24.9942 15.1236 24.9816 14.7166C24.9778 14.5956 24.8784 14.5 24.7575 14.5H7.24253C7.12156 14.5 7.02216 14.5956 7.01842 14.7166C7.00583 15.1236 7 15.5511 7 16ZM20.5 21.25C20.9142 21.25 21.25 20.9142 21.25 20.5C21.25 20.0858 20.9142 19.75 20.5 19.75H17.5C17.0858 19.75 16.75 20.0858 16.75 20.5C16.75 20.9142 17.0858 21.25 17.5 21.25H20.5Z" fill="white"/>
<path d="M7.42064 11.2269C7.3858 11.3662 7.49263 11.5 7.63626 11.5H24.3637C24.5074 11.5 24.6142 11.3662 24.5794 11.2269C23.7361 7.85328 21.432 7 16 7C10.568 7 8.26394 7.85328 7.42064 11.2269Z" fill="white"/>
</svg>
