<svg width="32" height="32" viewBox="0 0 32 32" fill="none" xmlns="http://www.w3.org/2000/svg">
<rect width="32" height="32" rx="13" fill="#535FE6"/>
<path fill-rule="evenodd" clip-rule="evenodd" d="M10.0002 14.9367C10.0002 14.0383 10.0755 13.4681 11.9361 12.0793C13.4765 10.9294 18.4139 7 18.4139 7V13.5594H22.1686V23H11.1729C10.5279 23 10 22.4721 10 21.827L10.0002 14.9368V14.9367Z" fill="white"/>
<path fill-rule="evenodd" clip-rule="evenodd" d="M18.4138 13.5593V17.36L11.5142 22.0605L20.2376 19.2221V13.5593H18.4138Z" fill="#E1E3F8"/>
<path fill-rule="evenodd" clip-rule="evenodd" d="M15.2609 13.3629C15.6644 12.8821 16.2537 12.7124 16.5772 12.9839C16.9008 13.2554 16.8361 13.8653 16.4326 14.3461C16.0294 14.8268 15.4399 14.9963 15.1163 14.7248C14.7928 14.4533 14.8576 13.8435 15.2609 13.3628V13.3629Z" fill="#535FE6"/>
</svg>
