<svg width="32" height="32" viewBox="0 0 32 32" fill="none" xmlns="http://www.w3.org/2000/svg">
<rect width="32" height="32" rx="13" fill="#F3BA2F"/>
<path d="M15.7221 19.2505H20.9221V21.8505H17.8539V24.0505H15.1857V21.9187H11.9857C11.9857 21.0505 11.8539 20.1869 12.0539 19.3869C12.1221 18.9869 12.5857 18.5868 12.922 18.1869C13.9221 16.9869 14.9221 15.7869 15.9903 14.5869C16.3902 14.1187 16.7902 13.7187 17.2584 13.1869H12.2585V10.5869H15.1902V8.38721H17.7903V10.5184H20.9902C20.9902 11.3865 21.1221 12.2502 20.9221 13.0502C20.8539 13.4502 20.3902 13.8502 20.0539 14.2502C19.0539 15.4502 18.0539 16.6502 16.9857 17.8502C16.5856 18.3187 16.1857 18.7823 15.7221 19.2505Z" fill="black"/>
</svg>
