<svg width="24" height="24" viewBox="0 0 24 24" fill="none" xmlns="http://www.w3.org/2000/svg">
<path d="M3.60938 6.75H20.3906V17.25H3.60938V6.75Z" fill="#4A7AFF"/>
<path d="M11.981 6.75H20.3906V17.25H11.981V6.75Z" fill="#0053BF"/>
<path d="M20.3906 6.75H18.3582L12.0001 10.7282L5.64197 6.75H3.60938V8.02177L9.96755 12L3.60938 15.9782V17.25H5.64202L12.0001 13.2718L18.3582 17.25H20.3906V15.9781L14.0326 12L20.3906 8.02186V6.75Z" fill="#FA5D0F"/>
<path d="M20.3906 6.75H18.3582L12.0001 10.7282L11.981 10.7163V13.2837L12.0001 13.2718L18.3582 17.25H20.3906V15.9781L14.0326 12L20.3906 8.02186V6.75Z" fill="#D13400"/>
<path d="M20.3906 10.6875H13.3125V6.75H10.6875V10.6875H3.60938V13.3125H10.6875V17.25H13.3125V13.3125H20.3906V10.6875Z" fill="#FA5D0F"/>
<path d="M13.3125 10.6875V6.75H11.981V17.25H13.3125V13.3125H20.3906V10.6875H13.3125Z" fill="#D13400"/>
<path d="M10.3125 6.75V9.22997L6.34894 6.75H4.93495L10.3125 10.1147V10.3125H7.97747L3.60938 7.57941V8.46412L6.56348 10.3125H3.60938V11.0625H11.0625V6.75H10.3125Z" fill="white"/>
<path d="M3.60938 13.6875H6.56353L3.60938 15.5359V16.4206L7.97752 13.6875H10.3125V13.8853L4.935 17.25H6.34894L10.3125 14.77V17.25H11.0625V12.9375H3.60938V13.6875Z" fill="white"/>
<path d="M20.3906 7.5795L16.0227 10.3125H13.6875V10.1148L19.0652 6.75H17.6512L13.6875 9.23006V6.75H12.9375V11.0625H20.3906V10.3125H17.4366L20.3906 8.46422V7.5795Z" fill="#E9EDF5"/>
<path d="M12.9375 17.25H13.6875V14.7699L17.6512 17.25H19.0651L13.6875 13.8852V13.6875H16.0226L20.3906 16.4205V15.5358L17.4366 13.6875H20.3906V12.9375H12.9375V17.25Z" fill="#E9EDF5"/>
</svg>
