<svg width="14" height="12" viewBox="0 0 14 12" fill="none" xmlns="http://www.w3.org/2000/svg">
<path d="M14 1.34663C13.4794 1.575 12.9246 1.72637 12.3462 1.79987C12.9412 1.44462 13.3954 0.886375 13.6089 0.2135C13.0541 0.54425 12.4416 0.777875 11.7889 0.90825C11.2621 0.347375 10.5114 0 9.69238 0C8.10337 0 6.82412 1.28975 6.82412 2.87088C6.82412 3.09838 6.84338 3.31712 6.89062 3.52537C4.5045 3.409 2.39313 2.26538 0.97475 0.52325C0.727125 0.952875 0.581875 1.44463 0.581875 1.974C0.581875 2.968 1.09375 3.84912 1.85675 4.35925C1.39562 4.3505 0.94325 4.21663 0.56 4.00575C0.56 4.0145 0.56 4.02588 0.56 4.03725C0.56 5.432 1.55487 6.5905 2.8595 6.85738C2.62587 6.92125 2.37125 6.95187 2.107 6.95187C1.92325 6.95187 1.73775 6.94137 1.56362 6.90287C1.9355 8.0395 2.99075 8.87512 4.2455 8.90225C3.269 9.66613 2.02912 10.1264 0.686875 10.1264C0.4515 10.1264 0.22575 10.1159 0 10.087C1.27137 10.9069 2.77813 11.375 4.403 11.375C9.6845 11.375 12.572 7 12.572 3.20775C12.572 3.08087 12.5676 2.95837 12.5615 2.83675C13.1311 2.4325 13.6097 1.92763 14 1.34663Z" fill="white"/>
</svg>
