<svg width="120" height="24" viewBox="0 0 120 24" fill="none" xmlns="http://www.w3.org/2000/svg">
<g clip-path="url(#clip0_145_10025)">
<path d="M7.33994 10.0845L12.0013 5.42516L16.6645 10.0883L19.3752 7.37572L12.0013 0L4.62732 7.37383L7.33994 10.0845Z" fill="white"/>
<path d="M-0.000976562 12.0002L2.71066 9.28865L5.42229 12.0002L2.71066 14.7118L-0.000976562 12.0002Z" fill="white"/>
<path d="M7.33995 13.9155L12.0013 18.5767L16.6645 13.9136L19.3771 16.6224L19.3752 16.6243L12.0013 24L4.62733 16.6281L4.62354 16.6243L7.33995 13.9155Z" fill="white"/>
<path d="M18.5754 12.0012L21.2871 9.28963L23.9987 12.0012L21.2871 14.7128L18.5754 12.0012Z" fill="white"/>
<path d="M14.7517 11.999L12.0012 9.24658L9.96716 11.2805L9.7321 11.5137L9.25062 11.9952L9.24683 11.999L9.25062 12.0047L12.0012 14.7533L14.7517 12.0009L14.7536 11.999H14.7517Z" fill="white"/>
<path d="M28.2295 5.81543H34.1286C35.5921 5.81543 36.6991 6.19455 37.4498 6.95278C37.7326 7.23287 37.9555 7.56749 38.1051 7.93636C38.2547 8.30522 38.3277 8.70063 38.3198 9.09858V9.1346C38.3249 9.46061 38.2795 9.78544 38.1853 10.0976C38.1013 10.3662 37.9794 10.6216 37.8232 10.8558C37.6776 11.0767 37.5015 11.2758 37.3 11.4472C37.1032 11.6166 36.8876 11.7629 36.6574 11.8832C37.3211 12.1144 37.918 12.5049 38.3957 13.0205C38.8178 13.5008 39.0288 14.1642 39.0288 15.0109V15.0469C39.0408 15.5757 38.9257 16.0997 38.6933 16.5748C38.468 17.0125 38.1378 17.3876 37.7322 17.6666C37.2736 17.9741 36.763 18.1957 36.2252 18.3206C35.5862 18.4721 34.9312 18.5453 34.2746 18.5386H28.2295V5.81543ZM33.5372 10.96C34.0476 10.9847 34.5555 10.8749 35.0101 10.6416C35.1874 10.538 35.3321 10.3869 35.428 10.2053C35.5238 10.0238 35.5668 9.81897 35.5523 9.61418V9.57817C35.5616 9.38947 35.5233 9.20145 35.4408 9.03149C35.3583 8.86152 35.2343 8.7151 35.0802 8.60573C34.7656 8.38205 34.3113 8.27021 33.7173 8.27021H30.9573V10.96H33.5372ZM34.2822 16.0876C34.7907 16.1161 35.2968 15.9998 35.7418 15.7521C35.9152 15.6407 36.0555 15.4849 36.1482 15.3009C36.2409 15.1168 36.2825 14.9113 36.2688 14.7057V14.6697C36.2756 14.4743 36.2344 14.2802 36.1488 14.1044C36.0633 13.9286 35.9359 13.7764 35.7778 13.6613C35.4518 13.4085 34.9248 13.2821 34.1969 13.2821H30.9573V16.0876H34.2822Z" fill="white"/>
<path d="M42.5433 5.81543H45.3432V18.5424H42.5433V5.81543Z" fill="white"/>
<path d="M49.5798 5.81543H52.1617L58.1291 13.648V5.81543H60.8929V18.5424H58.5101L52.3474 10.452V18.5424H49.5798V5.81543Z" fill="white"/>
<path d="M69.37 5.72485H71.948L77.4017 18.5428H74.4787L73.3148 15.688H67.9331L66.7692 18.5428H63.9144L69.37 5.72485ZM72.3158 13.2162L70.6211 9.08762L68.934 13.2162H72.3158Z" fill="white"/>
<path d="M80.429 5.81543H83.0108L88.9744 13.648V5.81543H91.7382V18.5424H89.3554L83.1928 10.452V18.5424H80.429V5.81543Z" fill="white"/>
<path d="M101.815 18.7663C100.923 18.7739 100.038 18.6011 99.2146 18.2582C98.439 17.938 97.7353 17.4658 97.1451 16.8693C96.5549 16.2729 96.09 15.5644 95.7778 14.7855C95.4485 13.9708 95.2817 13.0996 95.2869 12.2208V12.1848C95.2722 10.4527 95.9387 8.7841 97.1427 7.53871C97.735 6.93037 98.4443 6.44808 99.2278 6.12082C100.08 5.76779 100.995 5.59172 101.918 5.60332C102.463 5.59925 103.008 5.64813 103.544 5.74928C104.003 5.83603 104.451 5.97007 104.882 6.14925C105.274 6.31391 105.646 6.52114 105.991 6.76721C106.329 7.0072 106.646 7.27476 106.939 7.56715L105.159 9.62196C104.704 9.20235 104.194 8.84709 103.643 8.56612C103.101 8.30712 102.507 8.17734 101.906 8.187C101.407 8.18167 100.912 8.2827 100.454 8.48337C99.9966 8.68404 99.587 8.97976 99.2525 9.35089C98.9208 9.72108 98.6611 10.1499 98.4866 10.6152C98.304 11.1071 98.2122 11.6279 98.2156 12.1526V12.1886C98.2138 12.7124 98.3056 13.2324 98.4866 13.724C98.6589 14.1911 98.916 14.6223 99.2449 14.9959C99.5767 15.3717 99.9854 15.6718 100.443 15.8758C100.901 16.0799 101.397 16.1832 101.899 16.1788C102.537 16.1989 103.171 16.0615 103.743 15.7788C104.288 15.4817 104.792 15.1146 105.243 14.687L107.024 16.4878C106.71 16.8292 106.37 17.1461 106.007 17.4356C105.65 17.7175 105.263 17.9585 104.852 18.154C104.415 18.3599 103.954 18.512 103.48 18.607C102.932 18.7169 102.374 18.7702 101.815 18.7663Z" fill="white"/>
<path d="M110.328 5.81543H119.907V8.30623H113.083V10.888H119.092V13.3788H113.092V16.0516H120.002V18.5424H110.334L110.328 5.81543Z" fill="white"/>
</g>
<defs>
<clipPath id="clip0_145_10025">
<rect width="120" height="24" fill="white"/>
</clipPath>
</defs>
</svg>
