<svg width="139" height="16" viewBox="0 0 139 16" fill="none" xmlns="http://www.w3.org/2000/svg">
<g clip-path="url(#clip0_145_9982)">
<path d="M123.363 13.7341C124.109 14.523 128.209 18.3039 134.644 13.9159C139.298 10.2993 139.181 2.45856 138.734 0.0907867C138.579 0.435377 133.174 12.2476 123.363 13.7341ZM138.734 0.0887826C138.677 0.0652848 132.69 -0.749273 126.772 3.05489C123.097 5.41715 122.611 8.87458 122.779 11.1784C131.382 10.2176 138.539 0.359669 138.734 0.0887826Z" fill="white"/>
<path fill-rule="evenodd" clip-rule="evenodd" d="M138.734 0.0887826C138.677 0.0652848 132.69 -0.749273 126.772 3.05489C123.097 5.41715 122.611 8.87458 122.779 11.1784C131.382 10.2176 138.539 0.359669 138.734 0.0887826Z" fill="white"/>
<path d="M9.69153 13.2731H2.98965V9.71085H9.69153C11.367 9.71085 12.223 10.5105 12.223 11.5465C12.223 12.5461 11.3852 13.2731 9.69153 13.2731ZM9.47299 7.8025H2.98965V4.80367H9.47299C11.2395 4.80367 11.9316 5.42161 11.9316 6.27582C11.9316 7.05734 11.1303 7.8025 9.47299 7.8025ZM11.1849 8.71124C14.0077 8.62036 15.0275 7.22091 15.0275 5.69423C15.0275 4.02215 13.6981 2.64087 10.4564 2.64087H0.0939941V15.3995H10.766C13.4249 15.3995 15.41 14.2909 15.41 11.91C15.41 10.2197 14.2991 8.78394 11.1849 8.71124ZM18.83 2.64087V15.3995H21.7257V2.64087H18.83ZM33.4685 5.05811H39.8425V2.64087H24.1987V5.05811H30.5728V15.3995H33.4685V5.05811ZM42.3156 2.64087V15.3995H45.2112V10.4197H52.0042V8.32957H45.2112V4.84001H56.2475V2.64087H42.3156ZM58.5931 2.64087V15.3995H61.4887V2.64087H58.5931ZM68.2779 5.74875L77.8755 15.3995H81.1536V2.64087H78.2943V11.8373L69.0792 2.64087H65.4005V15.3995H68.2779V5.74875ZM85.0653 2.64087V15.3995H99.234V13.2549H87.961V9.7472H94.7175V7.76615H87.961V4.84001H99.234V2.64087H85.0653ZM118.626 2.64087H114.801L109.92 7.13003L105.076 2.64087H101.197L108.008 8.92934L100.942 15.3995H104.767L109.884 10.6923L114.983 15.3995H118.881L111.796 8.91116L118.626 2.64087Z" fill="white"/>
</g>
<defs>
<clipPath id="clip0_145_9982">
<rect width="139" height="16" fill="white"/>
</clipPath>
</defs>
</svg>
