<svg width="118" height="30" viewBox="0 0 118 30" fill="none" xmlns="http://www.w3.org/2000/svg">
<g clip-path="url(#clip0_145_9995)">
<path fill-rule="evenodd" clip-rule="evenodd" d="M1.62959 7.1377H5.91895L2.58384 15.2509C2.58384 15.2509 0.840395 15.2226 0.307308 13.7075C0.157983 13.2576 0.145445 12.7739 0.271263 12.3169L1.62959 7.1377Z" fill="white"/>
<path d="M18.2654 7.31132L12.8112 7.21698L14.0386 3.19057C14.2679 2.44316 14.128 1.63192 13.6615 1.00319C13.1949 0.374453 12.4567 0.00239936 11.671 0H6.69302L1.0017 20.3302C1.0017 20.3302 -1.03769 29.0245 6.69302 29.8113C6.69302 29.8113 18.9142 32.2962 22.8355 17.6094C22.8355 17.6094 24.9052 8.72642 18.2654 7.31132ZM14.5376 17.3943C14.5376 17.3943 14.3194 21.1453 11.4737 21.8038C11.0536 21.9088 10.6096 21.8634 10.2197 21.6755C9.77392 21.4491 9.31292 20.9792 9.3243 19.9943C9.33175 19.7096 9.37769 19.4272 9.46089 19.1547L10.5119 15.2509H13.3803C13.3803 15.2509 14.6798 15.6717 14.5376 17.3943Z" fill="white"/>
<path fill-rule="evenodd" clip-rule="evenodd" d="M23.0973 13.5152C22.5756 7.54723 18.2654 7.31138 18.2654 7.31138L12.8112 7.21704L10.4683 15.2982H13.3291C13.8546 15.3265 14.8126 16.1887 14.5015 17.7152" fill="white"/>
<path fill-rule="evenodd" clip-rule="evenodd" d="M81.5756 28.4879C81.9751 27.0248 82.3448 25.6696 82.7149 24.3154C83.3537 21.9756 83.9916 19.6354 84.6323 17.2961C84.7888 16.7249 84.996 16.164 85.1021 15.5844C85.1794 15.1635 85.3871 15.0849 85.7512 15.1137C86.0473 15.1365 86.3472 15.1333 86.6442 15.1147C87.5382 15.0593 88.3358 15.178 88.624 16.1193C89.4016 15.8111 90.1098 15.4056 90.8688 15.2562C92.4253 14.9485 93.9535 14.9648 95.1189 16.3418C95.2027 16.4409 95.557 16.4223 95.7121 16.332C97.426 15.3349 99.2736 14.9927 101.23 15.1528C102.705 15.2739 103.869 16.4586 104.196 17.9032C104.544 19.445 104.203 20.8863 103.821 22.3364C103.283 24.3778 102.703 26.4075 102.136 28.4609H98.2446C98.6655 26.9265 99.092 25.4331 99.4822 23.9304C99.775 22.8029 100.046 21.6688 100.273 20.5264C100.338 20.1987 100.281 19.81 100.167 19.4906C99.8407 18.5833 98.8806 18.2733 97.8805 18.6913C96.5581 19.2448 96.0147 20.3928 95.6543 21.6507C95.063 23.7167 94.515 25.7953 93.946 27.8674C93.8925 28.0638 93.824 28.2556 93.757 28.4651H89.8928C90.2448 27.1654 90.5978 25.9038 90.927 24.6366C91.2664 23.3299 91.6217 22.0254 91.8885 20.7038C91.9751 20.275 91.8801 19.7704 91.7385 19.3435C91.3972 18.3105 89.7136 18.4055 88.9388 18.9962C87.9847 19.7243 87.534 20.7462 87.2318 21.8588C86.6694 23.9313 86.1153 26.0062 85.5379 28.0745C85.4937 28.2342 85.3 28.4665 85.1706 28.4698C84.0014 28.5005 82.8309 28.4879 81.5756 28.4879Z" fill="white"/>
<path fill-rule="evenodd" clip-rule="evenodd" d="M34.8188 18.608C33.9441 18.6256 33.3262 18.9186 32.7751 19.6118C31.893 20.7207 31.5704 22.0364 31.4629 23.4052C31.4063 24.1284 31.8958 24.8603 32.4692 24.9577C33.2289 25.0864 34.0016 25.0578 34.6065 24.4865C35.9178 23.2488 36.4796 21.694 36.3647 19.9233C36.3035 18.9763 35.7732 18.5896 34.8188 18.608ZM33.3893 15.9794C34.0943 15.7214 34.7113 15.3887 35.3662 15.2779C36.831 15.0301 38.2911 14.9724 39.4328 16.2175C40.034 16.8737 40.3714 17.679 40.3997 18.5176C40.5151 21.9441 39.4958 24.9498 36.6154 27.0275C34.5022 28.5518 32.1011 28.8878 29.6083 28.0225C27.8487 27.4119 27.0139 25.607 27.4191 23.9212C28.1408 20.9201 28.9705 17.9449 29.7631 14.9613C30.1168 13.6304 30.4899 12.3045 30.858 10.9639C31.5699 10.9639 32.2574 10.9108 32.9332 10.9754C34.0266 11.0802 34.4804 11.849 34.1671 12.9003C33.9052 13.7808 33.6748 14.6706 33.4366 15.5576C33.4046 15.6775 33.4074 15.8068 33.3893 15.9794Z" fill="white"/>
<mask id="mask0_145_9995" style="mask-type:alpha" maskUnits="userSpaceOnUse" x="104" y="11" width="14" height="18">
<path d="M104.912 11.0027H117.995V28.5106H104.912V11.0027Z" fill="white"/>
</mask>
<g mask="url(#mask0_145_9995)">
<path fill-rule="evenodd" clip-rule="evenodd" d="M112.407 18.6365C111.213 18.5618 110.514 19.2936 109.959 20.1864C109.362 21.1473 109.106 22.2336 109.026 23.3505C108.948 24.4275 109.597 25.1425 110.661 25.0437C111.202 24.9936 111.821 24.7876 112.224 24.4433C113.488 23.3644 113.933 21.8596 113.978 20.2694C114.003 19.4026 113.648 18.553 112.407 18.6365ZM108.413 11.0173C109.21 11.0173 109.994 10.9779 110.772 11.0285C111.547 11.0781 111.997 12.0303 111.735 12.9435C111.481 13.8302 111.23 14.7179 110.985 15.6074C110.953 15.7239 110.969 15.8529 110.962 15.9935C111.651 15.7448 112.284 15.4121 112.955 15.2956C114.479 15.0311 115.986 15.0209 117.113 16.3577C117.657 17.0036 117.951 17.7818 117.984 18.5985C118.105 21.622 117.22 24.2887 114.999 26.4418C112.919 28.4589 109.21 29.1099 106.804 27.9086C105.315 27.1657 104.729 25.8553 104.961 24.3751C105.245 22.5593 105.742 20.7729 106.207 18.9901C106.832 16.5953 107.514 14.2154 108.172 11.8298C108.245 11.5649 108.328 11.3027 108.413 11.0173Z" fill="white"/>
</g>
<path fill-rule="evenodd" clip-rule="evenodd" d="M62.3748 28.4792C62.9607 26.3498 63.5418 24.313 64.074 22.2633C64.2574 21.5563 64.4642 20.8067 64.4068 20.0964C64.2869 18.624 63.3588 18.324 61.9981 18.7796C60.6028 19.2468 60.1019 20.5256 59.7392 21.816C59.151 23.9074 58.603 26.0095 58.012 28.1C57.9686 28.2556 57.7212 28.457 57.5639 28.4611C56.4291 28.4921 55.2929 28.4778 54.0675 28.4778C54.2608 27.7222 54.4288 27.0165 54.6221 26.3174C55.2663 23.9931 55.9245 21.6725 56.5682 19.3472C57.2315 16.9507 57.8818 14.5505 58.5433 12.153C58.8747 10.9524 58.8803 10.9538 60.1271 10.9473C60.3321 10.9459 60.5384 10.9367 60.7428 10.9524C61.9981 11.0487 62.5065 11.7849 62.1671 13.0022C61.929 13.8541 61.6923 14.7056 61.4622 15.5598C61.4263 15.6946 61.4267 15.839 61.4071 16.0025C62.1073 15.7483 62.7394 15.4093 63.4102 15.2973C64.9525 15.0394 66.4832 15.0209 67.6003 16.4053C68.153 17.0896 68.3873 17.9031 68.4615 18.7606C68.6165 20.5548 67.9872 22.2156 67.5391 23.9056C67.1792 25.2585 66.7992 26.6058 66.4449 27.9602C66.3469 28.3347 66.1812 28.5028 65.7559 28.4898C64.6584 28.4579 63.5591 28.4792 62.3748 28.4792Z" fill="white"/>
<path fill-rule="evenodd" clip-rule="evenodd" d="M75.1364 15.4762C74.8926 16.3809 74.6693 17.1955 74.4521 18.012C73.9668 19.8336 73.4577 21.6496 73.0088 23.48C72.659 24.907 73.9981 25.5418 74.9258 25.3922C76.2584 25.1765 77.1496 24.4191 77.5154 23.0971C78.1754 20.7104 78.8326 18.3224 79.5089 15.9399C79.5594 15.7634 79.7537 15.499 79.8873 15.4952C81.0583 15.4599 82.2307 15.4748 83.4727 15.4748C83.2237 16.4093 83.0075 17.2643 82.7683 18.1128C82.2176 20.0682 81.744 22.0506 81.0779 23.9665C80.2227 26.4256 78.3898 27.8987 75.8688 28.5474C74.2438 28.9656 72.6323 29.0325 71.0465 28.3964C69.6396 27.8313 68.9362 26.7858 68.8699 25.2713C68.818 24.0762 69.1894 22.9711 69.492 21.848C70.0264 19.8684 70.5645 17.8893 71.1189 15.9153C71.1657 15.7494 71.3455 15.4985 71.4683 15.4952C72.6571 15.4632 73.8468 15.4762 75.1364 15.4762Z" fill="white"/>
<path fill-rule="evenodd" clip-rule="evenodd" d="M53.2614 15.6831H55.5852C55.5324 17.5301 54.3225 18.6748 52.438 18.6614C52.1586 19.645 51.868 20.6476 51.5891 21.654C51.3282 22.5951 51.0831 23.5398 50.825 24.4819C50.6127 25.2564 50.7073 25.3813 51.5316 25.3845C51.8833 25.3859 52.2355 25.391 52.5872 25.3975C52.6224 25.398 52.6567 25.4183 52.7943 25.4623C52.6474 26.0452 52.4987 26.637 52.3476 27.2283C52.3342 27.2815 52.3017 27.3301 52.2855 27.3824C51.9417 28.4896 51.9412 28.509 50.7573 28.4859C49.7045 28.465 48.6494 28.4294 47.6017 28.3355C46.8645 28.2689 46.4099 27.7974 46.4878 27.0715C46.5971 26.0531 46.8033 25.0371 47.0665 24.0455C47.9034 20.8975 48.7861 17.761 49.6503 14.6199C49.9385 13.5719 50.2124 12.5198 50.5247 11.4788C50.5669 11.3386 50.7898 11.1665 50.9366 11.159C51.5464 11.1262 52.1613 11.1188 52.7698 11.1627C53.6896 11.2294 54.2034 11.9905 53.9755 12.883C53.7447 13.7857 53.5149 14.6888 53.2614 15.6831Z" fill="white"/>
<path fill-rule="evenodd" clip-rule="evenodd" d="M39.8392 28.2844C40.1042 27.2908 40.3441 26.3717 40.5946 25.4562C41.2445 23.0802 41.898 20.7051 42.5525 18.3314C42.7673 17.5514 42.9728 16.7682 43.2242 16.0002C43.2726 15.8536 43.5106 15.6825 43.67 15.6738C44.2804 15.6386 44.8949 15.6493 45.5066 15.6733C46.3685 15.7071 47.0025 16.482 46.7891 17.3086C46.2973 19.2121 45.7618 21.1041 45.2412 22.9997C44.8228 24.5232 44.3757 26.0392 43.9931 27.5706C43.8588 28.106 43.6561 28.3288 43.069 28.2992C42.0194 28.2465 40.9651 28.2844 39.8392 28.2844ZM43.8821 13.2291C43.8803 11.8226 45.4124 10.5391 46.8 10.7851C47.5772 10.9229 48.0281 11.4832 47.9951 12.2688C47.9379 13.6128 46.4216 14.8408 45.0852 14.6254C44.2954 14.4978 43.8831 14.0192 43.8821 13.2291Z" fill="white"/>
<path fill-rule="evenodd" clip-rule="evenodd" d="M34.8603 18.6798C35.8169 18.6614 36.3485 19.0482 36.4098 19.9955C36.525 21.7667 35.9619 23.3219 34.6475 24.56C34.0411 25.1315 33.2666 25.1601 32.5051 25.0313C31.9304 24.9339 31.4397 24.2018 31.4964 23.4784C31.6042 22.1092 31.9276 20.7931 32.8118 19.6839C33.3642 18.9905 33.9835 18.6974 34.8603 18.6798Z" fill="#535FE6"/>
<path fill-rule="evenodd" clip-rule="evenodd" d="M112.452 18.6848C113.687 18.6019 114.04 19.4505 114.015 20.3163C113.971 21.9047 113.528 23.4079 112.271 24.4855C111.87 24.8294 111.255 25.0352 110.716 25.0853C109.658 25.1835 109.012 24.4697 109.09 23.394C109.17 22.2783 109.424 21.1933 110.019 20.2334C110.57 19.3416 111.265 18.6107 112.452 18.6848Z" fill="#535FE6"/>
</g>
<defs>
<clipPath id="clip0_145_9995">
<rect width="118" height="30" fill="white"/>
</clipPath>
</defs>
</svg>
