<svg width="107" height="24" viewBox="0 0 107 24" fill="none" xmlns="http://www.w3.org/2000/svg">
<path d="M0 23.9647H91.9292V21.5576H0V23.9647Z" fill="white"/>
<path d="M98.3009 23.9647H106.195V21.5576H98.3009V23.9647Z" fill="white"/>
<path d="M17.9115 17.9115H21.2035V5.52212H17.9115V17.9115ZM17.5929 1.9469C17.5929 1.38053 17.7699 0.920354 18.1593 0.530973C18.5132 0.176991 19.0088 0 19.5752 0C20.177 0 20.6371 0.176991 20.9911 0.530973C21.3451 0.884956 21.5575 1.34513 21.5575 1.9469C21.5575 2.51327 21.3805 2.97345 20.9911 3.36283C20.6371 3.71681 20.1416 3.89381 19.5752 3.89381C19.0088 3.89381 18.5486 3.71681 18.1593 3.36283C17.7699 3.00885 17.5929 2.51327 17.5929 1.9469Z" fill="white"/>
<path d="M28.7787 5.48684H32.1416V7.96472H28.7787V13.9116C28.7787 14.4426 28.9203 14.8674 29.2389 15.186C29.5575 15.5045 29.9469 15.6815 30.4778 15.6815C30.938 15.6815 31.469 15.6107 32.0354 15.4691L32.4601 17.9116C31.5044 18.1594 30.584 18.301 29.6991 18.301C29.0973 18.301 28.5309 18.1948 28.0354 18.0178C27.5398 17.8408 27.115 17.5576 26.7256 17.2037C26.3716 16.8497 26.0885 16.4249 25.8761 15.9293C25.6637 15.4337 25.5929 14.9028 25.5929 14.301V8.03552H23.3274V5.55764H25.5929V1.91162H28.7433V5.48684H28.7787Z" fill="white"/>
<path d="M34.0885 8.92042C34.0885 8.38945 34.1947 7.85848 34.4425 7.3983C34.6903 6.93812 35.0088 6.54874 35.3982 6.19476C35.823 5.87618 36.3186 5.59299 36.885 5.416C37.4513 5.23901 38.1239 5.13281 38.7965 5.13281C39.5044 5.13281 40.2478 5.20361 40.9911 5.3452C41.7345 5.4868 42.5133 5.69918 43.292 5.98237L42.5841 8.31865C41.9823 8.07087 41.3805 7.89387 40.7788 7.75228C40.177 7.61069 39.6106 7.53989 39.0796 7.53989C38.5133 7.53989 38.0531 7.64609 37.6991 7.89387C37.3451 8.14166 37.2035 8.46025 37.2035 8.88503C37.2035 9.27441 37.3805 9.55759 37.6991 9.73458C38.0177 9.91157 38.4071 10.0886 38.9027 10.2302C39.3982 10.3718 39.8938 10.5133 40.4602 10.6195C41.0265 10.7611 41.5575 10.9735 42.0177 11.2567C42.5133 11.5399 42.9027 11.9293 43.2212 12.3894C43.5398 12.885 43.7168 13.5222 43.7168 14.301C43.7168 14.8673 43.6106 15.3629 43.3628 15.8585C43.115 16.3187 42.7965 16.7434 42.3717 17.0974C41.9469 17.4514 41.4513 17.6992 40.8142 17.9116C40.2124 18.0886 39.5398 18.1948 38.8319 18.1948C37.3097 18.1948 35.6814 17.8762 33.9823 17.2036L34.6549 14.9027C36.1062 15.5045 37.4159 15.7877 38.5841 15.7877C39.1858 15.7877 39.6814 15.6461 40.0354 15.3983C40.3894 15.1505 40.5664 14.7965 40.5664 14.3364C40.5664 13.947 40.3894 13.6638 40.0708 13.4514C39.7522 13.239 39.3628 13.062 38.8673 12.9204C38.3717 12.7788 37.8761 12.6372 37.3097 12.4956C36.7434 12.3541 36.2478 12.1417 35.7522 11.8585C35.2566 11.5753 34.8673 11.2213 34.5487 10.7611C34.2301 10.3364 34.0885 9.69918 34.0885 8.92042Z" fill="white"/>
<path d="M50.3363 5.48684H53.6992V7.96472H50.3363V13.9116C50.3363 14.4426 50.4779 14.8674 50.7965 15.186C51.1151 15.5045 51.5045 15.6815 52.0355 15.6815C52.4956 15.6815 53.0266 15.6107 53.593 15.4691L54.0178 17.9116C53.062 18.1594 52.1417 18.301 51.2567 18.301C50.6549 18.301 50.0886 18.1948 49.593 18.0178C49.0974 17.8408 48.6726 17.5576 48.2832 17.2037C47.8939 16.8497 47.6461 16.4249 47.4337 15.9293C47.2213 15.4337 47.1505 14.9028 47.1505 14.301V8.03552H44.885V5.55764H47.1505V1.91162H50.3009V5.48684H50.3363Z" fill="white"/>
<path d="M58.9026 14.124C58.9026 14.6195 59.115 15.0443 59.5044 15.3983C59.9292 15.7523 60.4248 15.9293 61.0265 15.9293C61.8761 15.9293 62.5487 15.6461 63.0796 15.1151C63.6106 14.5841 63.8584 13.8762 63.8584 13.0266V12.2833C63.2566 12.1063 62.5841 12.0355 61.8407 12.0355C60.9203 12.0355 60.2124 12.2125 59.6814 12.6018C59.1858 12.9558 58.9026 13.4868 58.9026 14.124ZM55.823 14.301C55.823 12.9912 56.3186 11.9647 57.3097 11.2567C58.3009 10.5487 59.6814 10.1948 61.4867 10.1948C61.8761 10.1948 62.2655 10.2302 62.6549 10.2656C63.0442 10.301 63.469 10.3718 63.8584 10.4426V9.76999C63.8584 9.13282 63.646 8.60184 63.1858 8.21246C62.7257 7.82308 62.1239 7.61069 61.3451 7.61069C60.1062 7.61069 58.761 7.89388 57.3097 8.49565L56.4956 6.23016C58.2655 5.5222 60 5.20361 61.6991 5.20361C62.4779 5.20361 63.1504 5.30981 63.7876 5.5576C64.4248 5.76998 64.9557 6.08857 65.4159 6.51335C65.8761 6.90273 66.2301 7.3983 66.4779 7.96467C66.7257 8.53105 66.8672 9.16821 66.8672 9.84078V14.9027C66.8672 15.1859 66.938 15.3983 67.0796 15.5399C67.2212 15.7169 67.4336 15.7877 67.7168 15.7877C67.8584 15.7877 67.9646 15.7877 68.1062 15.7523C68.2124 15.7523 68.3186 15.7169 68.354 15.7169L68.5664 18.0886C68.2832 18.124 68.0354 18.1948 67.7522 18.2302C67.469 18.2656 67.1858 18.2656 66.8672 18.2656C66.2301 18.2656 65.6991 18.124 65.2389 17.8054C64.7788 17.5222 64.4602 17.0974 64.2478 16.5664C63.7168 17.0974 63.0796 17.5222 62.4071 17.8054C61.6991 18.0886 60.9911 18.2302 60.2124 18.2302C59.5752 18.2302 58.9734 18.124 58.4425 17.947C57.9115 17.77 57.4513 17.4868 57.0619 17.1328C56.6726 16.7788 56.3894 16.3895 56.177 15.8939C55.9292 15.3983 55.823 14.8673 55.823 14.301Z" fill="white"/>
<path d="M70.4071 5.4514H72.9558L73.3452 7.15051C73.8407 6.51334 74.4071 6.01777 75.1151 5.66379C75.823 5.3098 76.5664 5.13281 77.3806 5.13281C78.3009 5.13281 79.0797 5.3452 79.7876 5.73458C80.4602 6.12396 80.9912 6.69034 81.3452 7.3983C81.9115 6.65494 82.5841 6.08857 83.3275 5.69919C84.0708 5.3098 84.885 5.13281 85.8053 5.13281C86.4779 5.13281 87.0797 5.23901 87.646 5.4514C88.2124 5.66379 88.708 5.98237 89.0974 6.40715C89.5221 6.79653 89.8407 7.2921 90.0531 7.85848C90.2655 8.42485 90.4071 9.02662 90.4071 9.69918V17.9116H87.1859V10.2302C87.1859 9.52219 86.9735 8.95582 86.5133 8.49564C86.0531 8.07087 85.4867 7.82308 84.7788 7.82308C83.9646 7.82308 83.2921 8.10626 82.7611 8.67264C82.2301 9.23901 81.9823 9.94697 81.9823 10.8673V17.9116H78.7611V10.2302C78.7611 9.52219 78.5487 8.95582 78.1239 8.49564C77.6991 8.07087 77.1328 7.82308 76.4248 7.82308C75.5752 7.82308 74.9027 8.10626 74.3717 8.67264C73.8407 9.23901 73.5929 9.94697 73.5929 10.8673V17.9116H70.3717V5.4514H70.4071Z" fill="white"/>
<path d="M102.655 11.6461C102.655 11.0797 102.584 10.5487 102.407 10.0532C102.265 9.55759 102.018 9.13281 101.734 8.81423C101.451 8.46025 101.133 8.21246 100.743 8.00007C100.354 7.78768 99.9292 7.71688 99.469 7.71688C98.6194 7.71688 97.9469 8.00007 97.3805 8.60184C96.8495 9.16821 96.5663 9.91157 96.5663 10.8319V12.4956C96.5663 12.9558 96.6371 13.3806 96.7787 13.7346C96.9203 14.124 97.1327 14.4425 97.3805 14.7257C97.6283 15.0089 97.9469 15.2213 98.3009 15.3629C98.6548 15.5045 99.0442 15.5753 99.469 15.5753C99.9292 15.5753 100.354 15.4691 100.743 15.2921C101.133 15.1151 101.451 14.8319 101.734 14.4779C102.018 14.124 102.23 13.6992 102.407 13.239C102.584 12.7788 102.655 12.2125 102.655 11.6461ZM93.4513 5.4514H96L96.3893 7.04432C96.8495 6.44255 97.3805 5.98237 98.0531 5.62839C98.7256 5.3098 99.469 5.13281 100.283 5.13281C101.097 5.13281 101.841 5.3098 102.549 5.62839C103.221 5.94697 103.823 6.40715 104.319 6.97352C104.814 7.53989 105.204 8.21246 105.487 9.02662C105.77 9.80538 105.911 10.6903 105.911 11.6461C105.911 12.6018 105.77 13.4868 105.487 14.2656C105.204 15.0443 104.814 15.7523 104.319 16.3187C103.823 16.885 103.221 17.3452 102.549 17.6638C101.876 17.9824 101.097 18.1594 100.283 18.1594C99.5398 18.1594 98.8318 18.0178 98.2301 17.7346C97.5929 17.4514 97.0619 17.0266 96.6371 16.4602V24.0001H93.4513V5.4514Z" fill="white"/>
<path d="M10.8319 14.7257C10.3363 15.2213 9.66371 15.4337 8.81416 15.4337H4.84956V10.3009H8.81416C9.62832 10.3009 10.3009 10.5487 10.8319 11.0089C11.3274 11.4691 11.5752 12.1062 11.5752 12.8496C11.6106 13.6284 11.3628 14.2655 10.8319 14.7257ZM4.84956 3.36289H8.49557C9.23894 3.36289 9.84071 3.57528 10.3363 4.03545C10.8319 4.46023 11.0443 5.062 11.0443 5.76997C11.0443 6.47793 10.7965 7.0443 10.3363 7.46908C9.84071 7.89386 9.23894 8.10625 8.49557 8.10625H4.84956V3.36289ZM14.0885 10.6195C13.5575 9.87616 12.8496 9.34519 11.9646 9.0266C12.6726 8.70802 13.2035 8.24784 13.6283 7.61067C14.0531 6.97351 14.2655 6.23014 14.2655 5.38059C14.2655 4.70802 14.1239 4.10625 13.8761 3.57528C13.6283 3.00891 13.2389 2.54873 12.7788 2.15935C12.3186 1.76997 11.7522 1.45138 11.115 1.23899C10.4779 1.02661 9.76991 0.92041 8.99115 0.92041H0V3.1859C1.38053 3.1859 2.47788 4.31864 2.47788 5.69917C2.47788 7.0797 1.38053 8.21244 0 8.21244V10.2655C1.38053 10.2655 2.47788 11.3983 2.47788 12.7788V13.1682C2.47788 14.5487 1.38053 15.6815 0 15.6815V17.947H9.38053C10.1947 17.947 10.9027 17.8408 11.5752 17.593C12.2478 17.3806 12.8142 17.062 13.3097 16.6372C13.8053 16.2124 14.1947 15.7169 14.4425 15.1505C14.7257 14.5841 14.8673 13.947 14.8673 13.239C14.8673 12.2124 14.6195 11.3629 14.0885 10.6195Z" fill="white"/>
</svg>
