<svg width="111" height="24" viewBox="0 0 111 24" fill="none" xmlns="http://www.w3.org/2000/svg">
<g clip-path="url(#clip0_145_10042)">
<path d="M7.20414 23.9811C3.60414 23.9811 0.0803223 21.3907 0.0803223 15.5431C0.0803223 9.6764 3.60414 7.12402 7.20414 7.12402C8.97557 7.12402 10.3661 7.58117 11.3565 8.22878L10.2708 10.6097C9.60415 10.1335 8.61367 9.82878 7.62319 9.82878C5.45176 9.82878 3.4708 11.5431 3.4708 15.505C3.4708 19.4669 5.5089 21.2192 7.62319 21.2192C8.61367 21.2192 9.60415 20.9145 10.2708 20.4383L11.3565 22.8764C10.328 23.5621 8.97557 23.9811 7.20414 23.9811Z" fill="white"/>
<path d="M19.6042 23.9811C15.0137 23.9811 12.4803 20.343 12.4803 15.5431C12.4803 10.7431 14.9946 7.12402 19.6042 7.12402C24.1947 7.12402 26.728 10.724 26.728 15.5431C26.728 20.343 24.1947 23.9811 19.6042 23.9811ZM19.6042 9.73354C17.0518 9.73354 15.7946 12.0193 15.7946 15.505C15.7946 18.9907 17.0518 21.2954 19.6042 21.2954C22.1566 21.2954 23.4137 18.9907 23.4137 15.505C23.4137 12.0193 22.1566 9.73354 19.6042 9.73354Z" fill="white"/>
<path d="M31.1469 4.51458C30.0612 4.51458 29.1851 3.67649 29.1851 2.64792C29.1851 1.61935 30.0612 0.78125 31.1469 0.78125C32.2326 0.78125 33.1088 1.61935 33.1088 2.64792C33.1088 3.67649 32.2136 4.51458 31.1469 4.51458ZM29.4898 7.44792H32.8041V23.6384H29.4898V7.44792Z" fill="white"/>
<path d="M45.7946 23.6383V12.8383C45.7946 10.9526 44.6517 9.77164 42.4041 9.77164C41.2041 9.77164 40.0993 9.98117 39.4327 10.2478V23.6574H36.1565V8.26688C37.7755 7.60021 39.8517 7.12402 42.385 7.12402C46.9184 7.12402 49.1088 9.10498 49.1088 12.5335V23.6574H45.7946" fill="white"/>
<path d="M57.8136 23.9812C55.7183 23.9812 53.6422 23.4669 52.366 22.8383V0.057373H55.6422V7.8669C56.4231 7.50499 57.6803 7.20023 58.8041 7.20023C62.9755 7.20023 65.8136 10.2098 65.8136 15.1621C65.8136 21.2764 62.6517 23.9812 57.8136 23.9812ZM58.2326 9.77166C57.3374 9.77166 56.2707 9.98118 55.6422 10.305V20.9336C56.1183 21.1431 57.0517 21.3526 57.985 21.3526C60.5945 21.3526 62.5183 19.5431 62.5183 15.4098C62.5374 11.8669 60.8612 9.77166 58.2326 9.77166Z" fill="white"/>
<path d="M74.7278 23.9811C70.0802 23.9811 67.7183 22.0954 67.7183 18.8954C67.7183 14.3812 72.5183 13.5812 77.4136 13.3145V12.2859C77.4136 10.2478 76.0612 9.52402 73.985 9.52402C72.4612 9.52402 70.5945 10.0002 69.5088 10.5145L68.6707 8.26688C69.9659 7.69545 72.1564 7.12402 74.3278 7.12402C78.1945 7.12402 80.5565 8.62878 80.5565 12.6288V22.8383C79.3946 23.4669 77.0136 23.9811 74.7278 23.9811ZM77.4326 15.505C74.1183 15.6764 70.823 15.9621 70.823 18.8383C70.823 20.5526 72.1373 21.6002 74.6326 21.6002C75.6802 21.6002 76.9183 21.4288 77.4326 21.1811V15.505Z" fill="white"/>
<path d="M87.947 23.9811C86.0613 23.9811 84.0804 23.4669 82.8994 22.8383L84.0042 20.324C84.8423 20.8383 86.6137 21.3716 87.8518 21.3716C89.6232 21.3716 90.8042 20.4954 90.8042 19.1431C90.8042 17.6764 89.5661 17.105 87.928 16.4954C85.7566 15.6764 83.3375 14.6859 83.3375 11.6573C83.3375 8.99069 85.4137 7.12402 89.0137 7.12402C90.9756 7.12402 92.5947 7.60021 93.7375 8.26688L92.7089 10.5526C91.9851 10.0954 90.5375 9.60021 89.3756 9.60021C87.6613 9.60021 86.7089 10.4954 86.7089 11.6764C86.7089 13.1431 87.9089 13.6573 89.5089 14.2669C91.7566 15.105 94.2518 16.0383 94.2518 19.2002C94.2327 22.0764 92.0042 23.9811 87.947 23.9811Z" fill="white"/>
<path d="M110.213 15.4669L99.4515 16.9716C99.7753 19.8859 101.68 21.3526 104.404 21.3526C106.023 21.3526 107.775 20.9526 108.88 20.3621L109.833 22.8192C108.575 23.4859 106.404 23.9621 104.175 23.9621C99.0705 23.9621 96.2134 20.6859 96.2134 15.524C96.2134 10.5716 98.9753 7.10498 103.509 7.10498C107.718 7.10498 110.213 9.86688 110.213 14.2288C110.252 14.6288 110.252 15.0478 110.213 15.4669ZM103.49 9.52402C100.975 9.52402 99.3182 11.4478 99.261 14.8193L107.109 13.7335C107.071 10.9145 105.642 9.52402 103.49 9.52402Z" fill="white"/>
</g>
<defs>
<clipPath id="clip0_145_10042">
<rect width="110.294" height="24" fill="white"/>
</clipPath>
</defs>
</svg>
