<svg width="92" height="25" viewBox="0 0 92 25" fill="none" xmlns="http://www.w3.org/2000/svg">
<g clip-path="url(#clip0_145_10071)">
<path d="M7.80212 0.00151789C14.3999 -0.000505962 20.9981 -0.000505962 27.5968 0.00151789C27.5988 2.13419 27.5988 4.2665 27.5968 6.39844C20.9988 6.40046 14.4006 6.40046 7.80212 6.39844C7.80001 4.26576 7.80001 2.13346 7.80212 0.00151789Z" fill="white"/>
<path d="M0.00827934 8.80515C2.1369 8.79412 4.26588 8.79412 6.39524 8.80515C6.40627 10.9338 6.40627 13.0628 6.39524 15.1921C4.26597 15.2031 2.13699 15.2032 0.00827934 15.1927C-0.00275978 13.0637 -0.00275978 10.9345 0.00827934 8.80515Z" fill="white"/>
<path d="M7.80701 8.8052C12.5692 8.79508 17.3311 8.79508 22.0926 8.8052C22.1027 10.9338 22.1027 13.0627 22.0926 15.1921C17.3305 15.202 12.5686 15.202 7.80701 15.1921C7.79708 13.0634 7.79708 10.9344 7.80701 8.8052Z" fill="white"/>
<path d="M7.8131 17.6108C9.93812 17.5877 12.0628 17.5877 14.1871 17.6108C14.2091 19.7345 14.2095 21.8592 14.188 23.9849C12.063 24.0058 9.93839 24.0055 7.8142 23.9838C7.79212 21.8603 7.79176 19.736 7.8131 17.6108Z" fill="white"/>
</g>
<path d="M50.55 9.82H43.5V12.55H50.4V18.37H43.5V25H37.5V4H50.55V9.82Z" fill="white"/>
<path d="M69.6395 4V9.82H64.6895V25H58.6895V9.82H53.7395V4H69.6395Z" fill="white"/>
<path d="M91.2836 25H84.6236L81.6236 19.96L78.5936 25H71.9336L78.2936 14.38L72.0836 4H78.7436L81.6236 8.8L84.4736 4H91.1336L84.9536 14.38L91.2836 25Z" fill="white"/>
<defs>
<clipPath id="clip0_145_10071">
<rect width="27.5982" height="24" fill="white"/>
</clipPath>
</defs>
</svg>
