<svg width="162" height="24" viewBox="0 0 162 24" fill="none" xmlns="http://www.w3.org/2000/svg">
<g clip-path="url(#clip0_145_10055)">
<path d="M10.2421 7.38986C10.2421 3.94548 8.56873 0.976407 7.29255 0.00625127C7.29255 0.00625127 7.19488 -0.0523488 7.2079 0.0908958C7.0907 6.77781 3.69841 8.55535 1.82971 10.984C-1.01565 14.487 -0.481734 19.6242 3.01474 22.4631C3.78305 23.0882 4.66205 23.57 5.60617 23.876C7.89157 24.5141 5.07225 22.7561 4.71414 19.0382C4.2779 14.5195 10.2421 11.1142 10.2421 7.38986Z" fill="white"/>
<path d="M12.4818 9.68229C12.4623 9.65625 12.4297 9.64974 12.4037 9.66276C12.3971 9.66927 12.3906 9.67578 12.3841 9.68229C11.9544 11.2319 11.2251 12.6904 10.2354 13.9601C6.30923 19.5401 8.55557 22.2292 9.81222 23.6356C10.535 24.4756 9.81222 23.6356 11.6418 22.7762C13.8426 21.5456 15.3076 19.3253 15.5681 16.8185C15.7699 14.0773 14.6174 11.4143 12.4818 9.68229Z" fill="white"/>
<path d="M80.5098 9.19415C81.5095 9.19415 82.3199 8.38375 82.3199 7.38406C82.3199 6.38438 81.5095 5.57397 80.5098 5.57397C79.5101 5.57397 78.6997 6.38438 78.6997 7.38406C78.6997 8.38375 79.5101 9.19415 80.5098 9.19415Z" fill="white"/>
<path d="M30.4916 5.59277V12.5857H23.5508V6.50433C23.5508 6.00297 23.1406 5.59277 22.6392 5.59277H20.2822V22.3068C20.2757 22.8082 20.6794 23.2184 21.1807 23.2249H21.2523H23.5963V15.4181H30.5307V22.3133C30.5307 22.8147 30.9409 23.2249 31.4422 23.2249H33.7862V6.50433C33.7862 6.00297 33.376 5.59277 32.8747 5.59277H32.8682H30.4916ZM44.2561 9.96174V18.3416C44.2626 19.1034 43.8654 19.8131 43.2143 20.2102C42.0879 20.9395 40.5838 20.6139 39.8611 19.4875C39.6137 19.1034 39.4769 18.6541 39.4769 18.1983V10.8733C39.4769 10.3719 39.0667 9.96174 38.5654 9.96174H36.2214V18.4848C36.2344 21.2325 38.4547 23.4528 41.2024 23.4658H42.5307C45.2784 23.4528 47.4986 21.2325 47.5117 18.4848V10.8733C47.5117 10.3719 47.1015 9.96174 46.6001 9.96174H44.2561Z" fill="white"/>
<path d="M79.7874 23.2247H82.1314V11.3549C82.1314 10.8536 81.7212 10.4434 81.2198 10.4434H78.8889V22.3001C78.8824 22.808 79.286 23.2182 79.7874 23.2247Z" fill="white"/>
<path d="M55.9173 9.95548C52.6487 9.80572 49.8815 12.332 49.7317 15.5941C49.7317 15.6462 49.7252 15.7048 49.7252 15.7569V17.593C49.7773 20.8551 52.4729 23.4595 55.735 23.4009C55.7936 23.4009 55.8587 23.4009 55.9173 23.3944C59.1794 23.5507 61.9466 21.0309 62.1029 17.7753C62.1029 17.7167 62.1094 17.6516 62.1094 17.593V15.7569C62.0508 12.4883 59.3487 9.89037 56.0801 9.94897C56.0215 9.94897 55.9694 9.95548 55.9173 9.95548ZM58.8147 17.86C58.8147 19.4813 57.4995 20.79 55.8847 20.79C54.27 20.79 52.9547 19.4747 52.9547 17.86V15.5681C52.9547 13.9468 54.27 12.6381 55.8847 12.6381C57.4995 12.6381 58.8147 13.9533 58.8147 15.5681V17.86Z" fill="white"/>
<path d="M70.5023 9.95522C69.4996 9.95522 68.5034 10.1831 67.5983 10.6259V6.52386C67.5983 6.02251 67.1881 5.6123 66.6867 5.6123H64.3102V17.6449C64.3623 20.9069 67.0579 23.5114 70.32 23.4528C70.3786 23.4528 70.4437 23.4528 70.5023 23.4463C73.7644 23.6025 76.5316 21.0827 76.6879 17.8272C76.6879 17.7686 76.6944 17.7035 76.6944 17.6449V15.8087C76.6618 12.5401 73.9858 9.91616 70.7106 9.94871C70.639 9.94871 70.5739 9.94871 70.5023 9.95522ZM73.4063 17.8597C73.4063 19.481 72.091 20.7897 70.4762 20.7897C68.855 20.7897 67.5462 19.4745 67.5462 17.8597V15.5678C67.5462 13.9465 68.8615 12.6378 70.4762 12.6378C72.0975 12.6378 73.4063 13.9531 73.4063 15.5678V17.8597Z" fill="white"/>
<path d="M133.667 9.79312C132.664 9.79312 131.668 10.021 130.763 10.4638V6.36176C130.763 5.8604 130.352 5.4502 129.851 5.4502H127.507V17.4828C127.559 20.7448 130.255 23.3493 133.517 23.2907C133.575 23.2907 133.641 23.2907 133.699 23.2842C136.961 23.4404 139.728 20.9206 139.885 17.6651C139.885 17.6065 139.891 17.5414 139.891 17.4828V15.6466C139.859 12.378 137.183 9.75405 133.914 9.78661C133.836 9.78661 133.751 9.78661 133.667 9.79312ZM136.571 17.6911C136.571 19.3124 135.255 20.6211 133.641 20.6211C132.019 20.6211 130.711 19.3059 130.711 17.6911V15.3992C130.711 13.7779 132.026 12.4692 133.641 12.4692C135.262 12.4692 136.571 13.7844 136.571 15.3992V17.6911ZM103.149 12.6515H96.7941V14.3835C96.7941 14.9174 97.2304 15.3536 97.7643 15.3536H100.785V16.8837C100.831 17.7953 100.512 18.6873 99.8934 19.358C98.3633 20.7969 95.9933 20.8685 94.3785 19.5207C93.519 18.6808 93.3367 17.7627 93.3367 14.3639C93.3367 10.9651 93.519 10.0666 94.3785 9.22665C95.1924 8.53647 96.2146 8.15232 97.2825 8.13278C100.753 8.13278 101.918 9.36338 102.784 10.4833H102.902V8.0286C102.902 7.65096 102.732 7.29285 102.439 7.05845C100.987 5.89947 99.5353 5.46973 97.0415 5.46973C95.1338 5.41113 93.2846 6.08829 91.8652 7.36447C89.9314 9.08341 89.9314 11.0433 89.9314 14.2597V14.5137C89.9314 17.7367 89.9314 19.69 91.8652 21.409C94.8929 24.0004 99.379 23.9483 102.342 21.2852C103.579 20.0937 104.08 17.8148 104.08 15.4838V13.55C104.041 13.0617 103.644 12.671 103.149 12.6515ZM112.538 23.2256V21.1746C112.538 20.6862 112.141 20.2956 111.659 20.2956H110.025C108.69 20.2956 108.755 19.6249 108.755 17.8995V6.29013C108.755 5.8018 108.358 5.41113 107.876 5.41113H105.48V18.3032C105.48 21.4155 106.281 23.2386 109.641 23.2386H112.545L112.538 23.2256ZM161.391 23.3037V21.2462C161.411 20.7578 161.039 20.3476 160.551 20.3281C160.545 20.3281 160.545 20.3281 160.538 20.3281H158.904C157.569 20.3281 157.634 19.6575 157.634 17.932V6.39431C157.634 5.90598 157.237 5.51531 156.755 5.51531H154.359V18.3878C154.359 21.5001 155.16 23.3232 158.52 23.3232H161.424L161.391 23.3037ZM119.909 9.77358C116.64 9.62383 113.873 12.1501 113.723 15.4122C113.723 15.4643 113.717 15.5229 113.717 15.575V17.4242C113.769 20.6862 116.464 23.2907 119.726 23.2321C119.785 23.2321 119.85 23.2321 119.909 23.2256C123.171 23.3818 125.938 20.862 126.094 17.6065C126.094 17.5479 126.101 17.4828 126.101 17.4242V15.588C126.049 12.3194 123.353 9.71498 120.084 9.76707C120.026 9.76707 119.967 9.76707 119.909 9.77358ZM122.813 17.6716C122.813 19.2928 121.497 20.6016 119.883 20.6016C118.261 20.6016 116.953 19.2863 116.953 17.6716V15.3666C116.953 13.7454 118.268 12.4366 119.883 12.4366C121.504 12.4366 122.813 13.7519 122.813 15.3666V17.6716ZM151.195 10.9586C149.964 10.1122 148.486 9.69545 146.995 9.78661C146.285 9.78661 145.569 9.8387 144.866 9.92985C144.273 10.008 143.446 10.1252 142.873 10.2489C142.639 10.3075 142.593 10.4898 142.593 10.7047V12.4562C142.593 12.7687 142.593 13.0552 142.932 12.9705C143.551 12.8143 144.749 12.5538 145.068 12.4952C145.621 12.4106 146.174 12.365 146.734 12.3715C147.457 12.3194 148.186 12.4887 148.811 12.8533C149.306 13.2766 149.554 13.9277 149.469 14.5723V14.6699H147.516C146.76 14.6699 146.005 14.7546 145.269 14.9304C144.586 15.0932 143.928 15.3731 143.336 15.7508C142.782 16.1089 142.32 16.5842 141.981 17.1507C141.643 17.7367 141.473 18.4073 141.48 19.0845C141.46 19.7551 141.61 20.4193 141.903 21.0183C142.19 21.5522 142.613 22.008 143.121 22.3466C143.713 22.7177 144.371 22.9716 145.055 23.0888C145.849 23.2451 146.656 23.3167 147.464 23.3102C148.102 23.3102 152.738 23.2451 152.738 21.0443V14.6765C152.842 13.2766 152.269 11.8962 151.195 10.9586ZM149.43 17.2093V20.6016C149.176 20.6472 148.896 20.6862 148.597 20.7188C147.867 20.7904 147.138 20.7904 146.409 20.7188C146.122 20.6927 145.836 20.6146 145.575 20.4844C145.335 20.3607 145.126 20.1849 144.976 19.9635C144.801 19.6705 144.723 19.3319 144.742 18.9933C144.703 18.4269 144.97 17.8799 145.445 17.5739C146.148 17.1963 146.943 17.027 147.737 17.0791H148.707L149.43 17.2093Z" fill="white"/>
</g>
<defs>
<clipPath id="clip0_145_10055">
<rect width="161.417" height="24" fill="white"/>
</clipPath>
</defs>
</svg>
