<svg width="153" height="24" viewBox="0 0 153 24" fill="none" xmlns="http://www.w3.org/2000/svg">
<path d="M14.2392 0.0334734C16.8836 -0.144517 19.5789 0.389448 21.9437 1.58453C25.4526 3.31357 28.2496 6.4157 29.5464 10.0772C30.1312 11.7045 30.4363 13.4082 30.4363 15.1372V21.5194C30.4363 21.7737 30.4363 22.0534 30.3855 22.3077C30.2329 22.9434 29.7752 23.5282 29.165 23.8079C28.7327 24.0113 28.2496 24.0367 27.8173 23.9604C26.8511 23.7825 26.0883 22.8671 26.0883 21.8754C26.0883 19.8921 26.0883 17.9088 26.0883 15.9255C26.1137 15.3661 26.1137 14.7558 25.8086 14.2727C25.3255 13.3573 24.105 12.925 23.1642 13.3065C22.3505 13.5862 21.7657 14.4253 21.7402 15.2898C21.7402 17.2985 21.7402 19.3073 21.7402 21.316C21.7402 21.6974 21.7657 22.0788 21.6385 22.4348C21.4351 23.1468 20.8503 23.7062 20.1383 23.9096C19.1975 24.1639 18.1296 23.757 17.6719 22.8925C17.3413 22.384 17.3668 21.7483 17.3922 21.1635C17.3922 19.1547 17.3922 17.1714 17.3922 15.1626C17.3668 14.1456 16.5277 13.2302 15.536 13.103C14.8749 13.0013 14.1884 13.2302 13.7053 13.6879C13.273 14.0947 13.0441 14.6795 13.0441 15.2644V21.0872C13.0441 21.5703 13.095 22.0788 12.917 22.5365C12.6373 23.3756 11.7982 23.9859 10.9083 23.9604C9.99288 24.0113 9.10293 23.3756 8.82323 22.5365C8.67067 22.1043 8.6961 21.672 8.6961 21.2143C8.6961 19.2056 8.6961 17.1968 8.6961 15.1881C8.6961 14.1964 7.90785 13.281 6.94162 13.103C6.05167 12.9251 5.08544 13.3573 4.62775 14.171C4.44976 14.5015 4.34805 14.8829 4.34805 15.2644V21.7991C4.34805 22.4348 4.06835 23.0705 3.58523 23.4773C2.84784 24.113 1.65277 24.1639 0.889951 23.579C0.330553 23.1976 0 22.5365 0 21.85V15.2389C0 12.7471 0.63568 10.2552 1.83076 8.04304C2.79699 6.23771 4.14463 4.63579 5.74654 3.36443C8.11127 1.38111 11.1371 0.211464 14.2392 0.0334734Z" fill="white"/>
<path d="M73.6626 7.687H70.357C70.4842 5.37313 70.9673 3.2881 73.0777 1.96589C75.1882 0.669099 77.5021 0.363973 79.9176 0.567391C81.2144 0.669099 82.5112 0.948802 83.7063 1.5082C85.8167 2.47443 86.8593 4.1272 86.8593 6.44107C86.8593 10.5348 86.8593 14.6286 86.8593 18.7224C86.8593 20.2226 87.1644 20.5023 88.6646 20.3497C88.8172 20.3243 88.9951 20.2989 89.1477 20.2735C89.1731 20.3497 89.1731 20.426 89.1731 20.4769V22.9687C87.9781 23.3756 86.7575 23.5027 85.5625 23.1722C84.6725 22.9179 84.1131 22.2822 83.808 21.4431C83.6554 21.0108 83.5537 20.5532 83.4266 20.07C83.2995 20.2226 83.1978 20.3497 83.0706 20.4769C80.4516 23.1213 77.3495 24.2401 73.688 23.2993C71.0944 22.6382 69.3145 20.2735 69.2382 17.5782C69.2128 16.7137 69.2891 15.8491 69.4925 15.01C69.9756 13.0776 71.3487 11.9079 73.0777 11.1197C74.2982 10.5603 75.6204 10.4077 76.9427 10.2297C78.4937 10.0263 80.0193 9.84831 81.5704 9.61947C82.6129 9.46691 83.1469 8.90751 83.2995 7.86499C83.63 5.75454 82.6892 4.35605 80.655 3.8475C79.4345 3.54238 78.1886 3.49152 76.9427 3.72037C75.1119 4.05092 74.0948 5.09343 73.7388 6.89876C73.7643 7.15304 73.7134 7.4073 73.6626 7.687ZM83.4012 11.7554C81.8755 12.569 80.4008 12.7724 78.9005 13.0013C77.6546 13.2047 76.3833 13.3827 75.1628 13.7641C73.5608 14.2981 72.8235 15.6203 72.976 17.4002C73.1032 18.875 74.0948 20.07 75.6967 20.3243C78.1632 20.7311 80.3499 20.0446 82.0789 18.2139C82.5875 17.6799 82.9943 16.9171 83.096 16.2051C83.3249 14.7812 83.2995 13.3318 83.4012 11.7554ZM130.518 16.0271C130.441 16.3831 130.391 16.6882 130.314 16.9679C128.89 21.316 125.992 23.1722 122.483 23.579C116.406 24.2401 112.922 20.2735 112.032 16.0525C111.32 12.6962 111.422 9.3652 112.897 6.21223C114.295 3.23725 116.533 1.27935 119.864 0.694527C123.856 -0.0174344 129.501 1.96589 130.441 8.19554C130.696 9.79746 130.747 11.4502 130.899 13.1284H115.439C115.567 15.4169 115.923 17.5528 117.601 19.2055C118.287 19.8921 119.177 20.2226 120.143 20.4006C123.271 20.96 125.865 19.4598 126.882 16.434C126.983 16.1034 127.136 16.0017 127.466 16.0271C128.458 16.0271 129.45 16.0271 130.518 16.0271ZM115.567 10.1789H127.136C127.009 8.83123 126.78 7.58529 126.144 6.41564C125.534 5.29685 124.644 4.48318 123.424 4.07635C119.431 2.70328 115.312 5.88168 115.567 10.1789ZM138.832 22.8416H135.323V1.02508H138.654V4.07635C138.909 3.79665 139.061 3.61866 139.214 3.44067C141.604 0.719959 144.604 0.00799429 148.012 0.847091C150.376 1.43192 151.699 3.11011 152.156 5.44941C152.334 6.41565 152.461 7.40731 152.461 8.37354C152.487 13.0521 152.487 17.7307 152.487 22.4093C152.487 22.5365 152.461 22.6636 152.461 22.8162H148.876V22.2314C148.876 17.8579 148.902 13.4844 148.851 9.11092C148.851 8.14469 148.698 7.15303 148.418 6.21223C147.961 4.6866 146.74 3.87293 145.138 3.79665C142.214 3.69494 139.9 5.24599 139.188 7.83957C138.934 8.78037 138.858 9.77203 138.858 10.7637C138.832 14.6032 138.832 18.4173 138.832 22.2059V22.8416ZM92.5804 1.02508H95.9622V10.2806C96.1656 10.0772 96.2927 9.97545 96.4199 9.84831C99.1914 7.02589 101.963 4.17805 104.735 1.35563C104.963 1.10136 105.192 0.999656 105.548 0.999656C106.845 1.02508 108.167 0.999656 109.591 0.999656C109.388 1.20307 109.286 1.33021 109.159 1.45734C106.718 3.89835 104.302 6.36479 101.836 8.78037C101.556 9.06007 101.556 9.23806 101.734 9.54319C104.404 13.7895 107.048 18.0359 109.693 22.2822C109.795 22.4348 109.871 22.5873 109.998 22.8162C109.82 22.8416 109.693 22.8416 109.54 22.8416C108.32 22.8416 107.125 22.8416 105.904 22.8416C105.574 22.8416 105.421 22.7145 105.243 22.4602C103.209 19.053 101.175 15.6457 99.1406 12.213C99.0389 12.0605 98.9626 11.9079 98.8355 11.7299C97.8947 12.6707 96.9793 13.5607 96.0639 14.5015C95.9368 14.6286 95.9113 14.8575 95.9113 15.0355C95.9113 17.4256 95.9113 19.8158 95.9113 22.2059V22.8162C95.2502 22.8162 94.5891 22.8162 93.9534 22.8162C93.4958 22.8162 92.8601 22.9433 92.6058 22.689C92.377 22.4856 92.5041 21.8245 92.5041 21.3668V1.60991C92.5804 1.48277 92.5804 1.27936 92.5804 1.02508ZM53.5497 0.999656C50.8035 3.72036 48.1337 6.39022 45.4384 9.06007C48.3371 13.6878 51.1595 18.2139 54.0328 22.8416C53.8039 22.8416 53.6514 22.867 53.4988 22.867C52.3291 22.867 51.1341 22.867 49.9644 22.867C49.6339 22.867 49.4304 22.7399 49.2525 22.4602C47.2183 19.053 45.1841 15.6457 43.1499 12.213C43.0737 12.0605 42.9719 11.9333 42.8448 11.7299C42.3363 12.2639 41.8786 12.8487 41.3192 13.2556C40.175 14.1201 39.8444 15.188 39.9207 16.6119C40.0478 18.4681 39.9461 20.3497 39.9461 22.2059V22.8162H36.5897V1.02508H39.9461V10.128C40.0224 10.1789 40.0987 10.2297 40.1495 10.2806C40.2512 10.128 40.3021 9.95003 40.4038 9.82289C43.1499 7.00047 45.9215 4.20348 48.6676 1.35563C48.9219 1.10136 49.1508 0.974229 49.5322 0.999656C50.6764 1.02508 51.8206 0.999656 52.9648 0.999656C53.1428 0.999656 53.2954 0.999656 53.5497 0.999656ZM60.2624 4.63574C61.966 2.14388 63.7714 0.0588533 67.1278 0.669106V4.4069C66.2378 4.45775 65.3479 4.43233 64.5088 4.61032C62.4492 5.04258 60.8473 6.92419 60.5167 9.21263C60.4658 9.67032 60.415 10.128 60.415 10.5857C60.415 14.4761 60.415 18.3664 60.415 22.2568V22.867H56.9569V1.07593H60.2624C60.2624 2.22016 60.2624 3.36438 60.2624 4.63574Z" fill="white"/>
</svg>
