<svg width="89" height="26" viewBox="0 0 89 26" fill="none" xmlns="http://www.w3.org/2000/svg">
<g clip-path="url(#clip0_145_10082)">
<path fill-rule="evenodd" clip-rule="evenodd" d="M7.49113 12.981L15.1786 20.6697L20.0306 15.8179C20.8874 14.9607 22.2775 14.9609 23.1344 15.8179C23.9913 16.6748 23.9915 18.0646 23.1344 18.9214L16.7305 25.3253C15.8775 26.1782 14.472 26.1705 13.627 25.3253L4.38943 16.0866L4.38928 21.579C4.38928 22.7847 3.4004 23.7739 2.19434 23.7739C0.982523 23.7739 0 22.791 0 21.5792V4.38326C0 3.17152 0.982519 2.18863 2.19434 2.18863C3.40638 2.18863 4.38928 3.17183 4.38928 4.38326V9.87566L13.627 0.636769C14.472 -0.208353 15.8775 -0.21615 16.7305 0.636769L23.1344 7.0406C23.9914 7.89746 23.9913 9.28733 23.1344 10.1442C22.2775 11.001 20.8874 11.0013 20.0306 10.1442L15.1786 5.29237L7.49113 12.9811L7.49113 12.981ZM15.1819 10.7841C16.3949 10.7841 17.3787 11.7679 17.3787 12.9808C17.3787 14.194 16.3949 15.1778 15.1819 15.1778C13.9688 15.1778 12.985 14.194 12.985 12.9808C12.985 11.7679 13.9688 10.7841 15.1819 10.7841Z" fill="white"/>
<path fill-rule="evenodd" clip-rule="evenodd" d="M32.7663 0C32.1553 0 31.6482 0.507346 31.6482 1.1181L31.6486 14.6024C31.6486 15.2153 32.1535 15.7208 32.7667 15.7208C33.3798 15.7208 33.8847 15.2155 33.8847 14.6024L33.8843 1.11803C33.8843 0.505683 33.3786 2.92907e-06 32.7663 2.92907e-06V0ZM41.4548 0.325664C41.023 -0.106133 40.3057 -0.106511 39.8738 0.325437L34.872 5.32767C34.5007 5.69898 34.5503 6.27612 34.7154 6.56121L39.6932 15.1619C39.9941 15.6817 40.6966 15.88 41.2212 15.5713C41.7463 15.2623 41.9377 14.5735 41.6324 14.046L37.1166 6.24492L41.4548 1.9066C41.8884 1.47291 41.8885 0.759353 41.4548 0.325662V0.325664Z" fill="white"/>
<path fill-rule="evenodd" clip-rule="evenodd" d="M44.5071 4.54297C43.8962 4.54297 43.389 5.05039 43.389 5.66076L43.3887 11.5591C43.3886 13.8561 45.2534 15.7212 47.5506 15.7211L51.0563 15.7208C51.6653 15.7207 52.174 15.2125 52.174 14.6029L52.1741 5.66078C52.1741 5.04586 51.6708 4.54298 51.0561 4.54298C50.4453 4.54298 49.9381 5.0501 49.9381 5.66078V13.4847L47.5507 13.4851C46.487 13.4852 45.6246 12.6227 45.6246 11.5591L45.625 5.66079C45.6251 5.04867 45.1193 4.54299 44.5071 4.54299V4.54297Z" fill="white"/>
<path fill-rule="evenodd" clip-rule="evenodd" d="M63.8649 1.11818C63.8649 0.50727 63.3577 0 62.7469 0H58.5047C56.2066 0 54.3428 1.86406 54.3428 4.16195V11.5589C54.3428 13.8568 56.2066 15.7208 58.5047 15.7208H62.747C63.3591 15.7208 63.8649 15.2149 63.8649 14.6028C63.8649 13.9919 63.3575 13.4847 62.7468 13.4847L58.5047 13.4848C57.4414 13.4848 56.5787 12.6223 56.5787 11.5588V4.16203C56.5787 3.09851 57.4413 2.23605 58.5047 2.23605L62.747 2.2362C63.3591 2.2362 63.8649 1.7303 63.8649 1.11818L63.8649 1.11818Z" fill="white"/>
<path fill-rule="evenodd" clip-rule="evenodd" d="M76.9216 0C76.3083 0 75.8035 0.504848 75.8035 1.11818C75.8035 1.73135 76.3083 2.2362 76.9216 2.2362C77.5347 2.2362 78.0395 1.73127 78.0395 1.11818C78.0395 0.505 77.5347 0 76.9216 0V0ZM76.9216 4.54333C76.3082 4.54333 75.8035 5.04803 75.8035 5.6612V14.6028C75.8035 15.216 76.3084 15.7208 76.9216 15.7208C77.5346 15.7208 78.0395 15.2158 78.0395 14.6028V5.6612C78.0395 5.04901 77.5338 4.54333 76.9216 4.54333Z" fill="white"/>
<path fill-rule="evenodd" clip-rule="evenodd" d="M87.5019 15.7203C88.1128 15.7203 88.6201 15.213 88.6201 14.6024L88.6204 8.70443C88.6205 6.40661 86.7566 4.54233 84.4584 4.54248L80.9528 4.54278C80.3438 4.54286 79.835 5.05111 79.835 5.66066V14.6024C79.835 15.2173 80.3383 15.7203 80.953 15.7203C81.5638 15.7203 82.071 15.2133 82.071 14.6024V6.7789L84.4584 6.77852C85.5219 6.77829 86.3845 7.64098 86.3844 8.7045L86.3841 14.6024C86.384 15.2145 86.8898 15.7203 87.5019 15.7203V15.7203Z" fill="white"/>
<path fill-rule="evenodd" clip-rule="evenodd" d="M65.4735 8.70413C65.4735 6.41404 67.3254 4.54255 69.6118 4.54248L69.89 4.54271C72.1681 4.5446 74.0082 6.42091 74.0082 8.70412V11.559C74.0082 13.8423 72.168 15.7185 69.89 15.7204L69.6118 15.7207C67.3247 15.7226 65.4735 13.849 65.4735 11.559V8.70412V8.70413ZM71.7723 8.7042C71.7723 7.64205 70.9118 6.77822 69.8504 6.77822H69.631C68.5697 6.77822 67.7095 7.64227 67.7095 8.7042V11.559C67.7095 12.6207 68.5696 13.4849 69.631 13.4849H69.8504C70.912 13.4849 71.7723 12.6211 71.7723 11.559V8.7042Z" fill="white"/>
<path d="M31.6481 19.2621H34.5096V19.5413H33.2183V24.1476H32.9392V19.5413H31.6481V19.2621H31.6481ZM36.8825 21.7048C36.8825 21.4489 36.8138 21.2512 36.6766 21.1116C36.5393 20.9721 36.352 20.9023 36.1147 20.9023C35.8914 20.9023 35.7076 20.9721 35.5634 21.1116C35.4192 21.2512 35.347 21.4489 35.347 21.7048V24.1476H35.0679V19.2621H35.347V21.0209C35.4401 20.9185 35.5541 20.8266 35.6891 20.7452C35.8239 20.6638 35.9659 20.6231 36.1147 20.6231C36.2636 20.6231 36.402 20.6487 36.53 20.6998C36.6579 20.751 36.7685 20.8243 36.8615 20.9197C36.9546 21.0151 37.0278 21.1291 37.0813 21.2616C37.1349 21.3942 37.1617 21.542 37.1617 21.7048V24.1476H36.8825V21.7048L36.8825 21.7048ZM38.5575 22.4027H39.046C39.2694 22.4027 39.4532 22.333 39.5975 22.1934C39.7416 22.0538 39.8138 21.8793 39.8138 21.6699C39.8138 21.4187 39.7416 21.2279 39.5975 21.0976C39.4532 20.9674 39.2694 20.9023 39.046 20.9023C38.8088 20.9023 38.6215 20.9674 38.4842 21.0976C38.3469 21.2279 38.2783 21.4187 38.2783 21.6699V23.1007C38.2783 23.3566 38.3469 23.5544 38.4842 23.6939C38.6215 23.8335 38.8088 23.9033 39.046 23.9033C39.3066 23.9033 39.5183 23.801 39.6811 23.5963L39.9045 23.7428C39.8115 23.8778 39.6882 23.9848 39.5346 24.0638C39.3811 24.1429 39.2182 24.1824 39.046 24.1824C38.8972 24.1824 38.7587 24.1569 38.6308 24.1058C38.5028 24.0546 38.3923 23.9824 38.2992 23.8894C38.2063 23.7963 38.1329 23.6823 38.0794 23.5473C38.0259 23.4125 37.9992 23.2635 37.9992 23.1007V21.7048C37.9992 21.5466 38.0259 21.4013 38.0794 21.2687C38.1329 21.136 38.2063 21.0221 38.2992 20.9266C38.3923 20.8313 38.5028 20.7568 38.6308 20.7033C38.7587 20.6498 38.8972 20.6231 39.046 20.6231C39.1903 20.6231 39.3252 20.6498 39.4508 20.7033C39.5765 20.7568 39.687 20.8313 39.7823 20.9266C39.8778 21.0221 39.9533 21.136 40.0091 21.2687C40.065 21.4013 40.0929 21.5466 40.0929 21.7048C40.0929 21.8397 40.065 21.9665 40.0091 22.0852C39.9533 22.2039 39.8778 22.3074 39.7823 22.3958C39.687 22.4842 39.5765 22.554 39.4508 22.6051C39.3252 22.6563 39.1903 22.682 39.046 22.682H38.5575V22.4027V22.4027ZM43.9457 19.5413V24.1476H43.6664V19.2621H45.2367C45.3949 19.2621 45.5438 19.2923 45.6834 19.3528C45.823 19.4133 45.9452 19.4959 46.0498 19.6006C46.1545 19.7053 46.2372 19.8275 46.2976 19.967C46.3581 20.1067 46.3884 20.2671 46.3884 20.4486C46.3884 20.5835 46.3581 20.7208 46.2976 20.8603C46.2372 20.9999 46.1545 21.1221 46.0498 21.2268C45.9452 21.3314 45.823 21.4141 45.6834 21.4746C45.5438 21.5351 45.3949 21.5653 45.2367 21.5653H44.2248V21.2861H45.2367C45.3578 21.2861 45.4706 21.2628 45.5753 21.2163C45.6799 21.1698 45.7719 21.107 45.8509 21.0279C45.9301 20.9487 45.9928 20.8569 46.0394 20.7522C46.0859 20.6475 46.1092 20.5463 46.1092 20.4486C46.1092 20.3043 46.0859 20.1799 46.0394 20.0752C45.9928 19.9705 45.9301 19.8786 45.8509 19.7995C45.7719 19.7204 45.68 19.6575 45.5753 19.611C45.4706 19.5646 45.3578 19.5413 45.2367 19.5413H43.9456L43.9457 19.5413ZM47.6097 22.4027H48.0983C48.3216 22.4027 48.5054 22.333 48.6497 22.1934C48.7939 22.0538 48.8661 21.8793 48.8661 21.6699C48.8661 21.4187 48.7939 21.2279 48.6497 21.0976C48.5054 20.9674 48.3216 20.9023 48.0983 20.9023C47.861 20.9023 47.6738 20.9674 47.5364 21.0976C47.3991 21.2279 47.3306 21.4187 47.3306 21.6699V23.1007C47.3306 23.3566 47.3991 23.5544 47.5364 23.6939C47.6738 23.8335 47.861 23.9033 48.0983 23.9033C48.3589 23.9033 48.5705 23.801 48.7334 23.5963L48.9567 23.7428C48.8637 23.8778 48.7404 23.9848 48.5869 24.0638C48.4333 24.1429 48.2704 24.1824 48.0983 24.1824C47.9494 24.1824 47.8109 24.1569 47.683 24.1058C47.5551 24.0546 47.4446 23.9824 47.3515 23.8894C47.2585 23.7963 47.1851 23.6823 47.1317 23.5473C47.0781 23.4125 47.0514 23.2635 47.0514 23.1007V21.7048C47.0514 21.5466 47.0781 21.4013 47.1317 21.2687C47.1851 21.136 47.2585 21.0221 47.3515 20.9266C47.4446 20.8313 47.5551 20.7568 47.683 20.7033C47.8109 20.6498 47.9494 20.6231 48.0983 20.6231C48.2426 20.6231 48.3774 20.6498 48.5031 20.7033C48.6287 20.7568 48.7393 20.8313 48.8346 20.9266C48.93 21.0221 49.0056 21.136 49.0614 21.2687C49.1172 21.4013 49.1452 21.5466 49.1452 21.7048C49.1452 21.8397 49.1172 21.9665 49.0614 22.0852C49.0056 22.2039 48.93 22.3074 48.8346 22.3958C48.7393 22.4842 48.6287 22.554 48.5031 22.6051C48.3774 22.6563 48.2426 22.682 48.0983 22.682H47.6097V22.4027V22.4027ZM50.9389 24.1825C50.7901 24.1825 50.6516 24.1557 50.5236 24.1023C50.3957 24.0488 50.2852 23.9743 50.1921 23.879C50.0991 23.7835 50.0258 23.6695 49.9723 23.537C49.9187 23.4043 49.892 23.259 49.892 23.1007V21.7048C49.892 21.542 49.9187 21.3942 49.9723 21.2616C50.0258 21.1291 50.0991 21.0151 50.1921 20.9197C50.2852 20.8243 50.3957 20.751 50.5236 20.6998C50.6516 20.6487 50.7901 20.6231 50.9389 20.6231C51.0832 20.6231 51.2181 20.6487 51.3437 20.6998C51.4693 20.751 51.5798 20.8243 51.6752 20.9197C51.7706 21.0151 51.8462 21.1291 51.902 21.2616C51.9578 21.3942 51.9858 21.542 51.9858 21.7048V23.1007C51.9858 23.259 51.9578 23.4043 51.902 23.537C51.8462 23.6695 51.7706 23.7835 51.6752 23.879C51.5798 23.9743 51.4693 24.0488 51.3437 24.1023C51.2181 24.1557 51.0832 24.1825 50.9389 24.1825ZM50.1712 23.1007C50.1712 23.352 50.2398 23.5485 50.377 23.6905C50.5144 23.8324 50.7016 23.9033 50.9389 23.9033C51.1622 23.9033 51.346 23.8324 51.4903 23.6905C51.6345 23.5485 51.7066 23.352 51.7066 23.1007V21.7048C51.7066 21.4489 51.6345 21.2512 51.4903 21.1116C51.346 20.9721 51.1622 20.9023 50.9389 20.9023C50.7016 20.9023 50.5144 20.9721 50.377 21.1116C50.2398 21.2512 50.1712 21.4489 50.1712 21.7048V23.1007ZM53.4166 23.7218C53.4817 23.7684 53.5561 23.8045 53.6399 23.8301C53.7237 23.8557 53.812 23.8684 53.9051 23.8684C54.1284 23.8684 54.3122 23.7987 54.4565 23.6591C54.6007 23.5195 54.6728 23.3217 54.6728 23.0658V21.7048C54.6728 21.4536 54.6042 21.2571 54.467 21.1151C54.3297 20.9731 54.1424 20.9023 53.9051 20.9023C53.6817 20.9023 53.4979 20.9731 53.3537 21.1151C53.2095 21.2571 53.1374 21.4536 53.1374 21.7048V25.9623H52.8582V20.658H53.1374V21.0279C53.2304 20.9255 53.3444 20.8325 53.4794 20.7487C53.6143 20.6649 53.7562 20.6231 53.9051 20.6231C54.054 20.6231 54.1924 20.6498 54.3204 20.7033C54.4483 20.7568 54.5588 20.8313 54.6518 20.9266C54.745 21.0221 54.8182 21.136 54.8717 21.2687C54.9253 21.4013 54.952 21.5466 54.952 21.7048V23.0658C54.952 23.2287 54.9241 23.3775 54.8683 23.5125C54.8124 23.6475 54.7368 23.7614 54.6415 23.8544C54.546 23.9475 54.4355 24.0196 54.3099 24.0708C54.1843 24.122 54.0493 24.1476 53.9051 24.1476C53.7282 24.1476 53.5654 24.1081 53.4166 24.0289V23.7218ZM55.8244 19.2621H56.1036V23.1357C56.1036 23.2659 56.1048 23.3753 56.1071 23.4637C56.1095 23.552 56.1188 23.6288 56.135 23.694C56.1513 23.7591 56.178 23.8103 56.2153 23.8475C56.2525 23.8847 56.3083 23.9033 56.3828 23.9033V24.1825C56.2525 24.1825 56.1502 24.1557 56.0757 24.1023C56.0013 24.0488 55.9455 23.9766 55.9082 23.8859C55.871 23.7952 55.8477 23.6881 55.8384 23.5648C55.8291 23.4415 55.8244 23.2985 55.8244 23.1357V19.2621ZM57.674 22.4027H58.1625C58.3858 22.4027 58.5696 22.333 58.7139 22.1934C58.8581 22.0538 58.9303 21.8793 58.9303 21.67C58.9303 21.4187 58.8581 21.2279 58.7139 21.0977C58.5696 20.9674 58.3858 20.9023 58.1625 20.9023C57.9252 20.9023 57.738 20.9674 57.6007 21.0977C57.4634 21.2279 57.3948 21.4187 57.3948 21.67V23.1007C57.3948 23.3566 57.4634 23.5544 57.6007 23.694C57.738 23.8335 57.9252 23.9034 58.1625 23.9034C58.4231 23.9034 58.6348 23.801 58.7977 23.5963L59.021 23.7428C58.9279 23.8778 58.8046 23.9848 58.6511 24.0638C58.4975 24.1429 58.3347 24.1825 58.1625 24.1825C58.0136 24.1825 57.8752 24.157 57.7472 24.1058C57.6193 24.0546 57.5089 23.9825 57.4157 23.8894C57.3227 23.7963 57.2494 23.6823 57.1959 23.5473C57.1424 23.4125 57.1157 23.2635 57.1157 23.1007V21.7049C57.1157 21.5466 57.1424 21.4013 57.1959 21.2687C57.2494 21.136 57.3227 21.0221 57.4157 20.9267C57.5089 20.8313 57.6193 20.7569 57.7472 20.7033C57.8752 20.6498 58.0136 20.6231 58.1625 20.6231C58.3068 20.6231 58.4417 20.6498 58.5673 20.7033C58.693 20.7569 58.8035 20.8313 58.8988 20.9267C58.9942 21.0221 59.0698 21.136 59.1257 21.2687C59.1815 21.4013 59.2095 21.5466 59.2095 21.7049C59.2095 21.8398 59.1815 21.9666 59.1257 22.0853C59.0698 22.2039 58.9943 22.3074 58.8988 22.3959C58.8035 22.4842 58.693 22.554 58.5673 22.6052C58.4417 22.6563 58.3068 22.682 58.1625 22.682H57.674V22.4027V22.4027ZM60.04 19.2132C60.0121 19.176 59.9959 19.1342 59.9912 19.0876C59.9865 19.0411 59.9935 18.998 60.0121 18.9585C60.0307 18.9189 60.0587 18.8852 60.0959 18.8573C60.133 18.8294 60.1773 18.8154 60.2285 18.8154C60.2937 18.8154 60.3507 18.8399 60.3995 18.8887C60.4483 18.9375 60.4727 18.9945 60.4727 19.0597C60.4774 19.2179 60.4507 19.3389 60.3924 19.4226C60.3343 19.5064 60.247 19.5925 60.1307 19.6808H59.9912C60.0889 19.5739 60.1342 19.4866 60.1273 19.4191C60.1203 19.3517 60.0912 19.283 60.04 19.2132ZM62.0222 22.1306C62.1617 22.1492 62.2932 22.1864 62.4165 22.2422C62.5398 22.298 62.6468 22.3679 62.7375 22.4516C62.8283 22.5354 62.8992 22.6319 62.9504 22.7413C63.0016 22.8507 63.0271 22.9705 63.0271 23.1007C63.0271 23.259 62.9993 23.4043 62.9435 23.537C62.8876 23.6695 62.812 23.7835 62.7166 23.879C62.6212 23.9743 62.5107 24.0488 62.385 24.1023C62.2594 24.1557 62.1245 24.1825 61.9803 24.1825C61.8314 24.1825 61.6929 24.1546 61.565 24.0988C61.437 24.0429 61.3266 23.9673 61.2335 23.8719C61.1404 23.7765 61.0671 23.666 61.0136 23.5404C60.9601 23.4148 60.9334 23.2799 60.9334 23.1357H61.2126C61.2126 23.359 61.2812 23.5428 61.4184 23.687C61.5557 23.8313 61.743 23.9033 61.9803 23.9033C62.2037 23.9033 62.3874 23.8324 62.5317 23.6905C62.6759 23.5485 62.748 23.352 62.748 23.1007C62.748 22.9007 62.6759 22.7436 62.5317 22.6297C62.3874 22.5157 62.2037 22.44 61.9803 22.4027C61.8547 22.3842 61.7372 22.3504 61.6279 22.3016C61.5185 22.2527 61.4231 22.1922 61.3417 22.1201C61.2603 22.048 61.1951 21.9654 61.1463 21.8724C61.0974 21.7793 61.0729 21.6769 61.0729 21.5653C61.0729 21.4257 61.0962 21.2977 61.1428 21.1814C61.1893 21.0651 61.2544 20.9662 61.3382 20.8848C61.4219 20.8033 61.5185 20.7394 61.6279 20.6928C61.7372 20.6463 61.8547 20.6231 61.9803 20.6231C62.1757 20.6231 62.3525 20.6708 62.5107 20.7662C62.6688 20.8615 62.7922 20.986 62.8806 21.1396L62.6573 21.2861C62.5968 21.1698 62.5084 21.0768 62.392 21.007C62.2757 20.9371 62.1385 20.9023 61.9803 20.9023C61.8035 20.9023 61.6546 20.9628 61.5336 21.0837C61.4126 21.2046 61.3521 21.3653 61.3521 21.5653C61.3521 21.6397 61.3707 21.7084 61.408 21.7712C61.4452 21.8339 61.4953 21.8898 61.558 21.9387C61.6208 21.9875 61.6929 22.0282 61.7744 22.0608C61.8558 22.0933 61.9384 22.1167 62.0222 22.1306V22.1306ZM66.5518 19.2621H68.9247V19.5413H66.831V21.2861H68.2268V21.5653H66.831V23.8685H68.9247V24.1476H66.5518V19.2621V19.2621ZM70.3555 22.7517L69.7274 24.1476H69.4133L70.195 22.4027L69.4133 20.658H69.7274L70.3555 22.0538L70.9836 20.658H71.2977L70.509 22.4027L71.2977 24.1476H70.9836L70.3555 22.7517ZM72.1702 23.1007C72.1702 23.352 72.2388 23.5485 72.376 23.6905C72.5133 23.8324 72.7005 23.9033 72.9379 23.9033C73.0588 23.9033 73.1775 23.879 73.2938 23.8301C73.4102 23.7812 73.5009 23.7033 73.566 23.5963L73.7893 23.7428C73.6963 23.8731 73.5741 23.979 73.423 24.0604C73.2717 24.1418 73.11 24.1825 72.9379 24.1825C72.789 24.1825 72.6505 24.1557 72.5226 24.1023C72.3946 24.0488 72.2842 23.9743 72.1911 23.879C72.098 23.7835 72.0247 23.6695 71.9712 23.537C71.9177 23.4043 71.891 23.259 71.891 23.1007V21.7048C71.891 21.542 71.9177 21.3942 71.9712 21.2616C72.0247 21.1291 72.098 21.0151 72.1911 20.9197C72.2842 20.8243 72.3946 20.751 72.5226 20.6998C72.6505 20.6487 72.789 20.6231 72.9379 20.6231C73.1053 20.6231 73.2659 20.6615 73.4195 20.7382C73.573 20.815 73.6986 20.9278 73.7963 21.0768L73.573 21.2093C73.5451 21.1581 73.5078 21.1128 73.4613 21.0733C73.4148 21.0337 73.3625 21.0011 73.3043 20.9755C73.2461 20.95 73.1845 20.9313 73.1193 20.9197C73.0541 20.9081 72.9937 20.9023 72.9379 20.9023C72.7005 20.9023 72.5133 20.9721 72.376 21.1116C72.2388 21.2512 72.1702 21.4489 72.1702 21.7048V23.1007V23.1007ZM76.3926 21.7048C76.3926 21.4489 76.324 21.2512 76.1868 21.1116C76.0495 20.9721 75.8622 20.9023 75.6249 20.9023C75.4015 20.9023 75.2177 20.9721 75.0735 21.1116C74.9293 21.2512 74.8572 21.4489 74.8572 21.7048V24.1476H74.578V19.2621H74.8572V21.0209C74.9502 20.9185 75.0642 20.8266 75.1992 20.7452C75.3341 20.6638 75.476 20.6231 75.6249 20.6231C75.7738 20.6231 75.9122 20.6487 76.0402 20.6998C76.1681 20.751 76.2786 20.8243 76.3717 20.9197C76.4648 21.0151 76.538 21.1291 76.5915 21.2616C76.6451 21.3943 76.6718 21.542 76.6718 21.7049V24.1476H76.3926V21.7049V21.7048ZM79.0238 22.5494C78.9587 22.5028 78.8842 22.4668 78.8005 22.4412C78.7167 22.4156 78.6284 22.4027 78.5353 22.4027C78.3119 22.4027 78.1281 22.4668 77.9839 22.5947C77.8397 22.7226 77.7676 22.8914 77.7676 23.1007C77.7676 23.352 77.8397 23.5485 77.9839 23.6905C78.1281 23.8324 78.3119 23.9033 78.5353 23.9033C78.7725 23.9033 78.9599 23.8324 79.0971 23.6905C79.2344 23.5485 79.303 23.352 79.303 23.1007V21.7048C79.303 21.4489 79.2344 21.2512 79.0971 21.1116C78.9599 20.9721 78.7725 20.9023 78.5353 20.9023C78.2701 20.9023 78.056 21.0046 77.8932 21.2093L77.6698 21.0768C77.7536 20.9371 77.8758 20.8266 78.0362 20.7452C78.1967 20.6638 78.3631 20.6231 78.5353 20.6231C78.6842 20.6231 78.8226 20.6487 78.9506 20.6998C79.0785 20.751 79.189 20.8243 79.2821 20.9197C79.3752 21.0151 79.4484 21.1291 79.502 21.2616C79.5554 21.3942 79.5821 21.542 79.5821 21.7048V23.1007C79.5821 23.217 79.5833 23.3217 79.5856 23.4148C79.588 23.5078 79.5973 23.5881 79.6136 23.6556C79.6298 23.723 79.6577 23.7754 79.6973 23.8127C79.7369 23.8498 79.7916 23.8684 79.8613 23.8684V24.1476C79.7125 24.1476 79.6007 24.1139 79.5263 24.0464C79.4519 23.979 79.3983 23.8894 79.3658 23.7777C79.2728 23.8987 79.1541 23.9965 79.0098 24.0708C78.8656 24.1453 78.7075 24.1825 78.5353 24.1825C78.3911 24.1825 78.2561 24.1557 78.1305 24.1023C78.0048 24.0488 77.8944 23.9743 77.7989 23.879C77.7035 23.7835 77.6279 23.6695 77.5721 23.537C77.5163 23.4043 77.4884 23.259 77.4884 23.1007C77.4884 22.9658 77.5163 22.839 77.5721 22.7204C77.6279 22.6017 77.7035 22.4982 77.7989 22.4098C77.8944 22.3214 78.0048 22.2516 78.1305 22.2004C78.2561 22.1492 78.3911 22.1236 78.5353 22.1236C78.712 22.1236 78.8749 22.1632 79.0238 22.2422V22.5494V22.5494ZM80.5593 20.658H80.8385V21.0279C80.9315 20.9255 81.0455 20.8325 81.1805 20.7487C81.3154 20.6649 81.4573 20.6231 81.6061 20.6231C81.7551 20.6231 81.8935 20.6498 82.0214 20.7033C82.1494 20.7568 82.26 20.8313 82.3529 20.9266C82.446 21.0221 82.5193 21.136 82.5728 21.2687C82.6264 21.4013 82.6531 21.5466 82.6531 21.7048V24.1476H82.3739V21.7048C82.3739 21.4536 82.3053 21.2571 82.1681 21.1151C82.0307 20.9731 81.8435 20.9023 81.6061 20.9023C81.3828 20.9023 81.199 20.9731 81.0548 21.1151C80.9106 21.2571 80.8385 21.4536 80.8385 21.7048V24.1476H80.5593V20.658V20.658ZM84.5725 23.5893C84.4235 23.5893 84.2851 23.5625 84.1572 23.509C84.0292 23.4555 83.9186 23.381 83.8257 23.2856C83.7326 23.1903 83.6593 23.0763 83.6058 22.9437C83.5523 22.811 83.5255 22.6657 83.5255 22.5075V21.7048C83.5255 21.542 83.5523 21.3942 83.6058 21.2616C83.6593 21.1291 83.7326 21.015 83.8257 20.9197C83.9186 20.8243 84.0292 20.751 84.1572 20.6998C84.2851 20.6487 84.4235 20.6231 84.5725 20.6231C84.7353 20.6231 84.8888 20.6591 85.033 20.7312C85.1772 20.8033 85.2983 20.8999 85.396 21.0209C85.4286 20.8999 85.4832 20.8091 85.56 20.7487C85.6368 20.6882 85.7495 20.658 85.8984 20.658V20.9371C85.824 20.9371 85.7682 20.9558 85.7309 20.9929C85.6938 21.0301 85.667 21.0814 85.6508 21.1465C85.6344 21.2116 85.6251 21.2919 85.6227 21.3873C85.6205 21.4827 85.6193 21.5886 85.6193 21.7048V22.5075C85.6193 22.6657 85.5914 22.811 85.5355 22.9437C85.4798 23.0763 85.4041 23.1903 85.3087 23.2856C85.2133 23.381 85.1028 23.4555 84.9772 23.509C84.8516 23.5625 84.7166 23.5893 84.5725 23.5893V23.5893ZM83.8047 22.5075C83.8047 22.7587 83.8733 22.9553 84.0105 23.0972C84.1479 23.2391 84.3352 23.3101 84.5725 23.3101C84.7958 23.3101 84.9795 23.2391 85.1238 23.0972C85.268 22.9553 85.3401 22.7587 85.3401 22.5075V21.7048C85.3401 21.4489 85.268 21.2512 85.1238 21.1116C84.9795 20.9721 84.7958 20.9023 84.5725 20.9023C84.3352 20.9023 84.1479 20.9721 84.0105 21.1116C83.8733 21.2512 83.8047 21.4489 83.8047 21.7048V22.5075ZM83.8047 24.9154C83.8047 25.1387 83.8769 25.3224 84.021 25.4667C84.1653 25.6109 84.3491 25.6831 84.5725 25.6831C84.8097 25.6831 84.997 25.612 85.1343 25.4702C85.2715 25.3282 85.3401 25.1317 85.3401 24.8804C85.3401 24.6711 85.2715 24.4966 85.1343 24.3569C84.997 24.2174 84.8096 24.1476 84.5725 24.1476V23.8684C84.7213 23.8684 84.8598 23.8963 84.9876 23.9522C85.1156 24.0079 85.2262 24.0824 85.3193 24.1755C85.4122 24.2686 85.4856 24.3756 85.5391 24.4966C85.5925 24.6176 85.6193 24.7455 85.6193 24.8804C85.6193 25.0386 85.5925 25.184 85.5391 25.3167C85.4856 25.4492 85.4122 25.5632 85.3193 25.6587C85.2262 25.754 85.1156 25.8285 84.9876 25.882C84.8598 25.9355 84.7213 25.9622 84.5725 25.9622C84.4282 25.9622 84.2932 25.9343 84.1676 25.8785C84.042 25.8226 83.9315 25.747 83.8361 25.6516C83.7407 25.5563 83.6651 25.4457 83.6093 25.3201C83.5534 25.1945 83.5255 25.0596 83.5255 24.9154H83.8047ZM87.085 22.4027H87.5735C87.7968 22.4027 87.9806 22.333 88.1249 22.1934C88.2691 22.0538 88.3412 21.8793 88.3412 21.6699C88.3412 21.4187 88.2691 21.2279 88.1249 21.0976C87.9806 20.9674 87.7968 20.9023 87.5735 20.9023C87.3362 20.9023 87.1489 20.9674 87.0117 21.0976C86.8744 21.2279 86.8058 21.4187 86.8058 21.6699V23.1007C86.8058 23.3566 86.8744 23.5544 87.0117 23.6939C87.1489 23.8335 87.3362 23.9033 87.5735 23.9033C87.8341 23.9033 88.0458 23.801 88.2086 23.5963L88.4319 23.7428C88.3389 23.8777 88.2156 23.9848 88.062 24.0638C87.9084 24.1429 87.7456 24.1824 87.5735 24.1824C87.4246 24.1824 87.2862 24.1569 87.1582 24.1058C87.0303 24.0546 86.9198 23.9824 86.8267 23.8894C86.7337 23.7963 86.6604 23.6823 86.6069 23.5473C86.5533 23.4125 86.5267 23.2635 86.5267 23.1007V21.7048C86.5267 21.5466 86.5533 21.4013 86.6069 21.2686C86.6604 21.136 86.7337 21.0221 86.8267 20.9266C86.9198 20.8312 87.0303 20.7568 87.1582 20.7033C87.2862 20.6498 87.4246 20.6231 87.5735 20.6231C87.7178 20.6231 87.8527 20.6498 87.9783 20.7033C88.1039 20.7568 88.2144 20.8312 88.3098 20.9266C88.4052 21.0221 88.4808 21.136 88.5366 21.2686C88.5925 21.4013 88.6204 21.5466 88.6204 21.7048C88.6204 21.8397 88.5925 21.9665 88.5366 22.0852C88.4808 22.2039 88.4052 22.3074 88.3098 22.3958C88.2144 22.4842 88.1039 22.554 87.9783 22.6051C87.8527 22.6563 87.7178 22.682 87.5735 22.682H87.085V22.4027Z" fill="white" stroke="white" stroke-width="0.1"/>
</g>
<defs>
<clipPath id="clip0_145_10082">
<rect width="88.6583" height="26" fill="white"/>
</clipPath>
</defs>
</svg>
