<svg width="137" height="53" viewBox="0 0 137 53" fill="none" xmlns="http://www.w3.org/2000/svg">
<path d="M60.098 21L58.971 17.757H52.117L50.99 21H48.115L53.957 4.90002H57.131L62.95 21H60.098ZM52.991 15.273H58.097L55.544 8.00503L52.991 15.273Z" fill="white"/>
<path d="M71.0063 4.90002C73.2143 4.90002 75.0466 5.67436 76.5033 7.22302C77.9753 8.77169 78.7113 10.6807 78.7113 12.95C78.7113 15.204 77.9753 17.113 76.5033 18.677C75.0466 20.2257 73.2143 21 71.0063 21H64.6813V4.90002H71.0063ZM71.0063 18.47C72.5243 18.47 73.7586 17.9487 74.7093 16.906C75.6753 15.8634 76.1583 14.5447 76.1583 12.95C76.1583 11.34 75.6753 10.0214 74.7093 8.99403C73.7586 7.95136 72.5243 7.43003 71.0063 7.43003H67.3263V18.47H71.0063Z" fill="white"/>
<path d="M83.7677 18.47H90.8977V21H81.1227V4.90002H90.7827V7.43003H83.7677V11.616H90.2077V14.123H83.7677V18.47Z" fill="white"/>
<path d="M105.164 21H102.151L98.609 15.181L95.067 21H92.054L97.114 12.72L92.353 4.90002H95.343L98.609 10.259L101.875 4.90002H104.888L100.127 12.72L105.164 21Z" fill="white"/>
<path d="M57.2231 47.299C54.8004 47.299 52.7917 46.5016 51.1971 44.907C49.6024 43.297 48.8051 41.3113 48.8051 38.95C48.8051 36.5886 49.6024 34.6106 51.1971 33.016C52.7917 31.406 54.8004 30.601 57.2231 30.601C58.6797 30.601 60.0214 30.946 61.2481 31.636C62.4901 32.326 63.4561 33.2613 64.1461 34.442L61.8461 35.776C61.4167 34.9786 60.7881 34.35 59.9601 33.89C59.1474 33.4146 58.2351 33.177 57.2231 33.177C55.5057 33.177 54.1104 33.7213 53.0371 34.81C51.9791 35.8986 51.4501 37.2786 51.4501 38.95C51.4501 40.6213 51.9791 42.0013 53.0371 43.09C54.1104 44.1786 55.5057 44.723 57.2231 44.723C58.2351 44.723 59.1551 44.493 59.9831 44.033C60.8111 43.5576 61.4321 42.9213 61.8461 42.124L64.1461 43.435C63.4714 44.6156 62.5131 45.5586 61.2711 46.264C60.0444 46.954 58.6951 47.299 57.2231 47.299Z" fill="white"/>
<path d="M76.7191 47L75.5921 43.757H68.7381L67.6111 47H64.7361L70.5781 30.9H73.7521L79.5711 47H76.7191ZM69.6121 41.273H74.7181L72.1651 34.005L69.6121 41.273Z" fill="white"/>
<path d="M87.2364 30.9C88.7544 30.9 90.0194 31.406 91.0314 32.418C92.0588 33.43 92.5724 34.6873 92.5724 36.19C92.5724 37.6773 92.0588 38.9346 91.0314 39.962C90.0194 40.974 88.7544 41.48 87.2364 41.48H83.9474V47H81.3024V30.9H87.2364ZM87.2364 38.996C88.0184 38.996 88.6624 38.7353 89.1684 38.214C89.6744 37.6773 89.9274 37.0026 89.9274 36.19C89.9274 35.3773 89.6744 34.7103 89.1684 34.189C88.6624 33.6523 88.0184 33.384 87.2364 33.384H83.9474V38.996H87.2364Z" fill="white"/>
<path d="M94.8688 30.9H97.5138V47H94.8688V30.9Z" fill="white"/>
<path d="M111.196 30.9V33.43H106.665V47H104.02V33.43H99.4661V30.9H111.196Z" fill="white"/>
<path d="M122.495 47L121.368 43.757H114.514L113.387 47H110.512L116.354 30.9H119.528L125.347 47H122.495ZM115.388 41.273H120.494L117.941 34.005L115.388 41.273Z" fill="white"/>
<path d="M129.723 44.47H136.278V47H127.078V30.9H129.723V44.47Z" fill="white"/>
<path fill-rule="evenodd" clip-rule="evenodd" d="M1.01312 32.9999C0.453591 32.9999 -0.00368546 32.5448 0.0349554 31.9866C0.569803 24.2604 7.17565 18.1545 15.2461 18.1545H32V26.3113H15.2461C11.8047 26.3113 8.95441 28.7755 8.45466 31.9906C8.36871 32.5435 7.92337 32.9999 7.36384 32.9999H1.01312Z" fill="#535FE6"/>
<path fill-rule="evenodd" clip-rule="evenodd" d="M0 31.6902C0 20.3885 9.37624 11.2267 20.9424 11.2267H32V19.4121H20.9424C14.0027 19.4121 8.37696 24.9092 8.37696 31.6902V31.9868C8.37696 32.5463 7.92337 32.9999 7.36384 32.9999H1.01312C0.453591 32.9999 0 32.5463 0 31.9868V31.6902Z" fill="#4452EE"/>
<path fill-rule="evenodd" clip-rule="evenodd" d="M0 30.3046C0 18.675 9.37624 9.24731 20.9424 9.24731H32V17.6702H20.9424C14.0027 17.6702 8.37696 23.3268 8.37696 30.3046V31.9868C8.37696 32.5463 7.92337 32.9999 7.36384 32.9999H1.01312C0.453591 32.9999 0 32.5463 0 31.9868V30.3046Z" fill="#1B1A1A"/>
<path fill-rule="evenodd" clip-rule="evenodd" d="M0 23.2681C0 11.8808 9.37624 2.64954 20.9424 2.64954H32V10.897H20.9424C14.0027 10.897 8.37696 16.4357 8.37696 23.2681V31.9869C8.37696 32.5465 7.92337 33.0001 7.36384 33.0001H1.01312C0.453591 33.0001 0 32.5465 0 31.9869V23.2681Z" fill="#0F828C"/>
<path fill-rule="evenodd" clip-rule="evenodd" d="M0 21.9424C0 10.3762 9.37624 1 20.9424 1H30.9869C31.5464 1 32 1.45359 32 2.01312V9.37696H20.9424C14.0027 9.37696 8.37696 15.0027 8.37696 21.9424V31.9869C8.37696 32.5464 7.92337 33 7.36384 33H1.01312C0.453591 33 0 32.5464 0 31.9869V21.9424Z" fill="#20C1CF"/>
<path fill-rule="evenodd" clip-rule="evenodd" d="M24.7657 33C24.2062 33 23.7526 32.5464 23.7526 31.9869V1H30.9869C31.5464 1 32 1.45359 32 2.01312V31.9869C32 32.5464 31.5464 33 30.9869 33H24.7657Z" fill="#535FE6"/>
</svg>
