<svg width="24" height="24" viewBox="0 0 24 24" fill="none" xmlns="http://www.w3.org/2000/svg">
<path fill-rule="evenodd" clip-rule="evenodd" d="M1.01312 24.0002C0.453591 24.0002 -0.00494421 23.5451 0.0466238 22.9879C0.57186 17.3132 5.46987 12.8662 11.4346 12.8662H24V18.9838H11.4346C8.94318 18.9838 6.86484 20.7058 6.38637 22.9941C6.27186 23.5418 5.82913 24.0002 5.2696 24.0002H1.01312Z" fill="#535FE6"/>
<path fill-rule="evenodd" clip-rule="evenodd" d="M0 23.0176C0 14.5413 7.03218 7.66992 15.7068 7.66992H24V13.809H15.7068C10.502 13.809 6.28272 17.9318 6.28272 23.0176C6.28272 23.5601 5.84295 23.9998 5.30047 23.9998H0.98225C0.439768 23.9998 0 23.5601 0 23.0176Z" fill="#4452EE"/>
<path fill-rule="evenodd" clip-rule="evenodd" d="M0 21.9785C0 13.2563 7.03218 6.18555 15.7068 6.18555H24V12.5027H15.7068C10.502 12.5027 6.28272 16.7452 6.28272 21.9785V22.9869C6.28272 23.5464 5.82913 24 5.2696 24H1.01312C0.453591 24 0 23.5464 0 22.9869V21.9785Z" fill="#1B1A1A"/>
<path fill-rule="evenodd" clip-rule="evenodd" d="M0 16.701C0 8.16049 7.03218 1.23706 15.7068 1.23706H24V7.42263H15.7068C10.502 7.42263 6.28272 11.5767 6.28272 16.701V22.9868C6.28272 23.5464 5.82913 23.9999 5.2696 23.9999H1.01312C0.453591 23.9999 0 23.5464 0 22.9868V16.701Z" fill="#0F828C"/>
<path fill-rule="evenodd" clip-rule="evenodd" d="M0 15.7068C0 7.03218 7.03218 0 15.7068 0H22.9869C23.5464 0 24 0.453592 24 1.01312V6.28272H15.7068C10.502 6.28272 6.28272 10.502 6.28272 15.7068V22.9869C6.28272 23.5464 5.82913 24 5.2696 24H1.01312C0.453591 24 0 23.5464 0 22.9869V15.7068Z" fill="#20C1CF"/>
<path fill-rule="evenodd" clip-rule="evenodd" d="M18.8275 24C18.2679 24 17.8143 23.5464 17.8143 22.9869V0H22.9868C23.5463 0 23.9999 0.453591 23.9999 1.01312V22.9869C23.9999 23.5464 23.5463 24 22.9868 24H18.8275Z" fill="#535FE6"/>
</svg>
