<svg width="612" height="308" viewBox="0 0 612 308" fill="none" xmlns="http://www.w3.org/2000/svg">
<path d="M611.991 -9.15535e-05C612.295 40.0695 604.554 80.1391 589.377 117.173C574.199 154.359 551.583 188.357 523.201 216.892C494.97 245.426 460.82 268.193 423.786 283.674C386.752 299.156 346.53 307.048 306.309 307.2C266.088 307.2 225.866 299.156 188.832 283.674C151.798 268.193 117.648 245.426 89.4172 216.892C61.1863 188.357 38.4195 154.359 23.2417 117.173C8.0638 79.9873 0.474816 39.9177 0.626614 -0.000145001C0.930138 40.0695 8.97432 79.8355 24.6075 116.718C39.9371 153.6 62.7041 187.143 91.0867 215.222C119.318 243.301 153.012 265.916 189.895 281.094C226.625 296.272 266.543 304.165 306.309 304.013C346.075 304.013 385.993 296.272 422.723 281.094C459.606 265.916 493.3 243.301 521.531 215.222C549.762 187.143 572.529 153.448 588.01 116.718C603.644 79.8356 611.688 40.0695 611.991 -9.15535e-05Z" fill="url(#paint0_linear_119_9816)"/>
<path d="M594.537 -0.000213624C594.84 37.6409 587.555 75.5856 573.288 110.495C559.021 145.556 537.62 177.581 510.907 204.446C484.194 231.311 452.168 252.863 417.108 267.434C382.198 282.005 344.254 289.442 306.309 289.594C268.364 289.594 230.571 282.005 195.51 267.434C160.601 252.863 128.424 231.462 101.711 204.446C74.9981 177.581 53.749 145.404 39.3301 110.495C25.0629 75.4338 17.9293 37.6409 18.0811 -0.000264019C18.3846 37.6409 25.9736 75.2821 40.6961 109.888C55.2669 144.645 76.6676 176.367 103.381 202.776C130.094 229.186 161.816 250.435 196.573 264.854C231.178 279.273 268.82 286.558 306.309 286.558C343.798 286.558 381.288 279.273 416.045 264.854C450.802 250.587 482.524 229.186 509.237 202.776C535.95 176.367 557.351 144.493 571.922 109.888C586.644 75.2821 594.233 37.7927 594.537 -0.000213624Z" fill="url(#paint1_linear_119_9816)"/>
<path d="M576.93 0.00024414C577.234 35.3647 570.404 70.881 557.047 103.817C543.539 136.753 523.504 166.805 498.461 192.152C473.417 217.499 443.213 237.686 410.429 251.346C377.493 265.006 341.977 272.14 306.309 272.14C270.641 272.14 235.124 265.006 202.188 251.346C169.252 237.686 139.2 217.499 114.157 192.152C89.1132 166.957 69.0785 136.753 55.5701 103.817C42.2136 70.8809 35.3836 35.3647 35.6872 0.000196823C35.9907 35.3647 43.1243 70.7291 56.9362 103.21C70.5963 135.842 90.7829 165.591 115.826 190.483C140.87 215.223 170.77 235.257 203.251 248.766C235.883 262.274 271.096 269.104 306.309 269.104C341.521 269.104 376.734 262.274 409.366 248.766C441.999 235.409 471.748 215.374 496.791 190.483C521.835 165.591 542.021 135.842 555.681 103.21C569.493 70.7292 576.778 35.3647 576.93 0.00024414Z" fill="url(#paint2_linear_119_9816)"/>
<path d="M559.476 0.000152587C559.78 33.0879 553.405 66.3275 540.959 97.1386C528.361 127.95 509.693 156.181 486.167 179.706C462.793 203.384 434.562 222.204 403.751 235.106C372.94 248.007 339.7 254.533 306.309 254.533C272.918 254.533 239.678 247.855 208.867 235.106C178.056 222.356 149.825 203.384 126.451 179.706C103.077 156.029 84.2565 127.798 71.6589 97.1385C59.0613 66.3274 52.8384 33.0879 53.142 0.000108322C53.4455 33.0879 60.1237 66.1757 73.0249 96.5314C85.7744 127.039 104.595 154.815 128.121 178.037C151.495 201.259 179.422 219.928 209.93 232.525C240.437 245.123 273.373 251.498 306.309 251.498C339.245 251.498 372.181 245.123 402.689 232.525C433.196 219.928 460.972 201.259 484.497 178.037C507.871 154.815 526.692 126.887 539.593 96.5315C552.494 66.1757 559.324 33.0879 559.476 0.000152587Z" fill="url(#paint3_linear_119_9816)"/>
<path d="M542.021 0.000183104C542.325 30.8113 536.406 61.7742 524.87 90.4604C513.184 119.147 495.729 145.404 473.873 167.412C452.017 189.42 425.759 207.026 397.224 219.017C368.538 231.008 337.575 237.079 306.461 237.23C275.498 237.23 244.383 231.008 215.697 219.017C187.011 207.026 160.753 189.572 139.049 167.412C117.193 145.404 99.738 119.147 88.0511 90.4603C76.3641 61.7741 70.5965 30.8112 70.9 0.000141918C71.2036 30.8112 77.4266 61.6224 89.5689 89.8532C101.408 118.236 119.014 144.19 140.87 165.743C162.726 187.295 188.68 204.75 217.063 216.437C245.446 228.124 276.105 234.195 306.764 234.043C337.424 234.043 368.083 228.124 396.465 216.437C424.848 204.75 450.802 187.295 472.659 165.743C494.515 144.19 511.969 118.236 523.96 89.8533C535.495 61.6224 541.718 30.8113 542.021 0.000183104Z" fill="url(#paint4_linear_119_9816)"/>
<path d="M524.567 -0.000335694C524.87 28.5341 519.406 57.2203 508.63 83.7816C497.854 110.343 481.614 134.627 461.427 155.118C441.24 175.608 416.956 191.848 390.394 202.928C363.833 214.008 335.147 219.624 306.461 219.775C277.775 219.775 248.937 214.008 222.527 202.928C195.966 191.848 171.681 175.608 151.495 155.118C131.308 134.779 115.219 110.343 104.291 83.7815C93.5151 57.2203 88.2028 28.534 88.3546 -0.000373829C88.6582 28.5341 94.4258 57.0685 105.657 83.1744C116.737 109.432 132.978 133.413 153.164 153.448C173.351 173.331 197.332 189.571 223.59 200.348C249.847 211.124 278.23 216.74 306.461 216.74C334.843 216.74 363.226 211.276 389.332 200.348C415.59 189.571 439.571 173.483 459.757 153.448C479.944 133.413 496.184 109.432 507.264 83.1745C518.344 57.0685 524.263 28.5341 524.567 -0.000335694Z" fill="url(#paint5_linear_119_9816)"/>
<path d="M507.112 -0.000411988C507.416 26.2573 502.407 52.6669 492.542 77.1032C482.676 101.54 467.802 124.003 449.133 142.672C430.616 161.492 408.153 176.518 383.716 186.687C359.28 196.857 332.87 202.169 306.461 202.169C280.051 202.169 253.49 196.857 229.205 186.687C204.769 176.518 182.457 161.492 163.789 142.672C145.272 123.851 130.397 101.54 120.38 77.1032C110.514 52.6668 105.506 26.2573 105.809 -0.000447071C106.113 26.2573 111.425 52.3633 121.746 76.4961C131.915 100.629 146.789 122.637 165.458 141.002C183.975 159.367 206.135 174.09 230.268 184.107C254.401 194.125 280.507 199.133 306.461 199.133C332.567 199.133 358.673 194.125 382.654 184.107C406.786 174.242 428.794 159.367 447.463 141.002C465.98 122.637 481.006 100.629 491.175 76.4961C501.345 52.3633 506.657 26.2573 507.112 -0.000411988Z" fill="url(#paint6_linear_119_9816)"/>
<path d="M489.506 4.57751e-05C489.81 23.9811 485.256 48.114 476.301 70.4254C467.195 92.7369 453.686 113.227 436.687 130.378C419.688 147.529 399.349 161.189 377.038 170.599C354.727 179.858 330.594 184.715 306.461 184.715C282.328 184.715 258.195 179.858 235.884 170.599C213.572 161.341 193.082 147.681 176.235 130.378C159.235 113.227 145.727 92.7369 136.62 70.4254C127.665 48.1139 123.112 23.9811 123.416 1.37705e-05C123.719 23.9811 128.576 47.8103 137.986 69.8183C147.245 91.8262 160.905 111.861 177.904 128.708C194.903 145.404 214.938 158.912 236.946 168.019C258.954 177.126 282.783 181.679 306.461 181.679C330.29 181.679 353.967 177.126 375.975 168.019C397.983 158.912 418.17 145.404 435.017 128.708C452.017 112.013 465.525 91.8262 474.935 69.8183C484.346 47.8104 489.202 23.9811 489.506 4.57751e-05Z" fill="url(#paint7_linear_119_9816)"/>
<path d="M472.051 -0.000488283C472.355 21.7039 468.257 43.4083 460.213 63.5949C452.017 83.7814 439.723 102.298 424.393 117.932C409.063 133.565 390.546 145.859 370.36 154.359C350.173 162.858 328.317 167.108 306.461 167.26C284.605 167.26 262.749 162.858 242.562 154.359C222.375 146.011 203.858 133.565 188.529 117.932C173.199 102.45 160.905 83.7814 152.709 63.5948C144.513 43.4083 140.415 21.5521 140.87 -0.000517235C141.174 21.7039 145.575 43.2565 154.075 63.1395C162.423 83.0225 174.869 101.236 190.198 116.262C205.528 131.288 223.741 143.582 243.624 151.778C263.507 159.974 285.06 164.224 306.461 164.072C328.013 164.072 349.414 159.974 369.297 151.778C389.18 143.582 407.394 131.44 422.723 116.262C438.053 101.084 450.347 83.0225 458.847 63.1395C467.346 43.2565 471.748 21.7039 472.051 -0.000488283Z" fill="url(#paint8_linear_119_9816)"/>
<path d="M454.597 0.000396727C454.901 19.4281 451.258 38.8558 443.972 56.9174C436.687 74.9791 425.759 91.523 411.947 105.487C398.287 119.45 381.591 130.53 363.53 138.119C345.468 145.708 325.889 149.503 306.309 149.654C286.73 149.654 267.15 145.708 249.088 138.119C231.027 130.53 214.483 119.45 200.671 105.487C187.011 91.523 175.931 74.9791 168.646 56.9174C161.36 38.8557 157.718 19.2763 158.021 0.0003708C158.477 38.8557 174.717 76.9522 202.189 103.969C215.849 117.477 232.089 128.405 249.999 135.691C267.757 142.976 287.033 146.77 306.157 146.77C325.281 146.77 344.557 143.128 362.315 135.691C380.074 128.405 396.314 117.477 410.126 103.969C437.901 76.9522 454.142 38.8558 454.597 0.000396727Z" fill="url(#paint9_linear_119_9816)"/>
<path d="M437.142 -0.000122072C437.446 17.1509 434.259 34.3019 427.884 50.2387C421.509 66.1754 411.795 80.898 399.653 93.1921C387.511 105.486 372.94 115.352 357.003 122.03C341.066 128.708 323.764 132.199 306.461 132.199C289.158 132.199 271.855 128.708 255.918 122.03C239.982 115.352 225.259 105.638 213.269 93.1921C201.126 80.898 191.564 66.1754 185.038 50.2386C178.663 34.3019 175.476 16.9991 175.779 -0.000144921C176.235 34.3019 190.653 67.845 214.938 91.5225C227.08 103.361 241.348 112.923 256.981 119.45C272.614 125.976 289.613 129.164 306.461 129.164C323.308 129.164 340.307 125.976 355.941 119.45C371.574 113.075 385.841 103.361 397.983 91.5225C422.268 67.845 436.535 34.3019 437.142 -0.000122072Z" fill="url(#paint10_linear_119_9816)"/>
<path d="M419.536 -0.000205996C419.84 14.8741 417.107 29.7485 411.643 43.5603C406.028 57.3722 397.68 70.1216 387.207 80.7461C376.734 91.5224 363.985 99.8702 350.173 105.79C336.361 111.557 321.335 114.593 306.309 114.593C291.283 114.593 276.257 111.557 262.445 105.79C248.633 100.022 235.884 91.5224 225.411 80.7461C214.938 70.1216 206.59 57.3722 200.975 43.5603C195.511 29.7484 192.778 14.7223 193.082 -0.000225793C193.537 29.5966 205.983 58.7382 227.08 79.2283C237.553 89.3975 249.999 97.7453 263.507 103.361C277.016 108.977 291.587 111.709 306.309 111.709C320.88 111.709 335.602 108.977 349.111 103.361C362.619 97.8971 375.065 89.5493 385.538 79.2283C406.635 58.7382 419.081 29.5967 419.536 -0.000205996Z" fill="url(#paint11_linear_119_9816)"/>
<path d="M402.082 0.000244138C402.385 12.5979 400.108 25.1955 395.555 36.8825C390.85 48.5695 383.868 59.3458 374.913 68.4525C366.11 77.5592 355.334 84.6928 343.647 89.7015C331.96 94.5584 319.21 97.1387 306.461 97.1387C293.711 97.1387 281.114 94.5584 269.275 89.7015C257.588 84.8446 246.812 77.5592 238.009 68.4525C229.206 59.3457 222.072 48.5695 217.367 36.8825C212.813 25.1955 210.385 12.4461 210.84 0.000227419C211.296 25.0437 221.92 49.4801 239.678 66.7829C248.481 75.4343 258.954 82.4162 270.337 87.1213C281.721 91.8264 294.015 94.2549 306.461 94.1031C318.755 94.1031 331.049 91.8264 342.584 87.1213C353.968 82.4162 364.44 75.4343 373.244 66.7829C391.002 49.4801 401.626 25.0437 402.082 0.000244138Z" fill="url(#paint12_linear_119_9816)"/>
<path d="M384.627 -0.000274661C384.93 10.1689 383.109 20.4899 379.315 30.2037C375.52 39.7658 369.753 48.7207 362.467 56.1579C348.048 71.184 327.254 79.6836 306.309 79.6836C285.515 79.6836 264.722 71.0322 250.151 56.1579C242.865 48.7207 237.098 39.9176 233.303 30.2037C229.509 20.6417 227.687 10.3207 227.991 -0.000288355C228.598 20.4899 237.25 40.3729 251.669 54.4883C258.954 61.4702 267.454 67.2378 276.712 71.0322C285.971 74.8267 295.988 76.7998 306.157 76.7998C316.174 76.7998 326.192 74.8267 335.602 71.0322C344.861 67.2378 353.36 61.4702 360.646 54.4883C375.368 40.3729 384.02 20.4899 384.627 -0.000274661Z" fill="url(#paint13_linear_119_9816)"/>
<path d="M367.172 0.000190731C367.476 7.89269 366.11 15.937 363.226 23.5259C360.342 30.9631 355.941 37.9449 350.173 43.7125C344.557 49.4801 337.727 54.1852 330.138 57.3726C322.701 60.5599 314.505 62.0777 306.309 62.2295C298.113 62.2295 290.069 60.5599 282.48 57.3726C275.043 54.1852 268.213 49.6319 262.445 43.7125C256.829 37.9449 252.428 30.9631 249.392 23.5259C246.508 16.0887 245.142 8.04446 245.446 0.00018009C246.053 15.937 252.883 31.2666 264.115 42.0429C275.346 52.971 290.676 59.1939 306.157 59.1939C321.639 59.1939 337.12 52.971 348.2 42.0429C359.735 31.2666 366.565 15.937 367.172 0.000190731Z" fill="url(#paint14_linear_119_9816)"/>
<path d="M349.566 -0.000328069C349.87 5.61549 348.959 11.3831 346.986 16.8471C345.013 22.1594 341.825 27.1681 337.727 31.4179C333.781 35.6677 328.772 39.0068 323.46 41.2835C318.148 43.5602 312.228 44.7744 306.461 44.7744C300.541 44.7744 294.774 43.5602 289.462 41.2835C284.149 39.0068 279.141 35.6677 275.194 31.4179C271.096 27.1681 268.061 22.3112 265.936 16.8471C263.963 11.3831 263.052 5.76726 263.356 -0.000335606C263.963 11.3831 268.972 22.0076 276.864 29.7483C284.757 37.3373 295.685 41.7388 306.613 41.7388C317.541 41.7388 328.317 37.3373 336.361 29.7483C344.102 22.0076 349.111 11.3831 349.566 -0.000328069Z" fill="url(#paint15_linear_119_9816)"/>
<path d="M332.111 -0.00047303C332.719 6.6778 330.29 13.8114 325.433 18.9719C323.005 21.5521 320.121 23.5252 316.782 25.043C313.594 26.409 309.952 27.168 306.461 27.168C302.97 27.168 299.327 26.409 296.14 25.043C292.952 23.677 289.917 21.5521 287.488 18.9719C282.632 13.8114 280.203 6.67779 280.81 -0.000477515C281.417 6.67779 284.453 12.9008 289.158 17.3023C293.863 21.7039 300.086 24.1324 306.461 24.1324C312.835 24.1324 319.058 21.7039 323.764 17.3023C328.469 12.9008 331.504 6.6778 332.111 -0.00047303Z" fill="url(#paint16_linear_119_9816)"/>
<defs>
<linearGradient id="paint0_linear_119_9816" x1="581.431" y1="307.2" x2="389.211" y2="-124.393" gradientUnits="userSpaceOnUse">
<stop stop-color="#535FE6"/>
<stop offset="0.524768" stop-color="#20C1CF" stop-opacity="0.33"/>
<stop offset="1" stop-color="#535FE6" stop-opacity="0.34"/>
</linearGradient>
<linearGradient id="paint1_linear_119_9816" x1="565.723" y1="289.594" x2="384.546" y2="-117.295" gradientUnits="userSpaceOnUse">
<stop stop-color="#535FE6"/>
<stop offset="0.524768" stop-color="#20C1CF" stop-opacity="0.33"/>
<stop offset="1" stop-color="#535FE6" stop-opacity="0.34"/>
</linearGradient>
<linearGradient id="paint2_linear_119_9816" x1="549.877" y1="272.14" x2="379.524" y2="-110.117" gradientUnits="userSpaceOnUse">
<stop stop-color="#535FE6"/>
<stop offset="0.524768" stop-color="#20C1CF" stop-opacity="0.33"/>
<stop offset="1" stop-color="#535FE6" stop-opacity="0.34"/>
</linearGradient>
<linearGradient id="paint3_linear_119_9816" x1="534.169" y1="254.533" x2="374.86" y2="-103.019" gradientUnits="userSpaceOnUse">
<stop stop-color="#535FE6"/>
<stop offset="0.524768" stop-color="#20C1CF" stop-opacity="0.33"/>
<stop offset="1" stop-color="#535FE6" stop-opacity="0.34"/>
</linearGradient>
<linearGradient id="paint4_linear_119_9816" x1="518.475" y1="237.23" x2="369.83" y2="-95.8306" gradientUnits="userSpaceOnUse">
<stop stop-color="#535FE6"/>
<stop offset="0.524768" stop-color="#20C1CF" stop-opacity="0.33"/>
<stop offset="1" stop-color="#535FE6" stop-opacity="0.34"/>
</linearGradient>
<linearGradient id="paint5_linear_119_9816" x1="502.767" y1="219.775" x2="365.006" y2="-88.7211" gradientUnits="userSpaceOnUse">
<stop stop-color="#535FE6"/>
<stop offset="0.524768" stop-color="#20C1CF" stop-opacity="0.33"/>
<stop offset="1" stop-color="#535FE6" stop-opacity="0.34"/>
</linearGradient>
<linearGradient id="paint6_linear_119_9816" x1="487.059" y1="202.169" x2="360.343" y2="-81.6251" gradientUnits="userSpaceOnUse">
<stop stop-color="#535FE6"/>
<stop offset="0.524768" stop-color="#20C1CF" stop-opacity="0.33"/>
<stop offset="1" stop-color="#535FE6" stop-opacity="0.34"/>
</linearGradient>
<linearGradient id="paint7_linear_119_9816" x1="471.214" y1="184.715" x2="355.321" y2="-74.4453" gradientUnits="userSpaceOnUse">
<stop stop-color="#535FE6"/>
<stop offset="0.524768" stop-color="#20C1CF" stop-opacity="0.33"/>
<stop offset="1" stop-color="#535FE6" stop-opacity="0.34"/>
</linearGradient>
<linearGradient id="paint8_linear_119_9816" x1="455.506" y1="167.26" x2="350.502" y2="-67.3423" gradientUnits="userSpaceOnUse">
<stop stop-color="#535FE6"/>
<stop offset="0.524768" stop-color="#20C1CF" stop-opacity="0.33"/>
<stop offset="1" stop-color="#535FE6" stop-opacity="0.34"/>
</linearGradient>
<linearGradient id="paint9_linear_119_9816" x1="439.784" y1="149.654" x2="345.885" y2="-60.311" gradientUnits="userSpaceOnUse">
<stop stop-color="#535FE6"/>
<stop offset="0.524768" stop-color="#20C1CF" stop-opacity="0.33"/>
<stop offset="1" stop-color="#535FE6" stop-opacity="0.34"/>
</linearGradient>
<linearGradient id="paint10_linear_119_9816" x1="424.092" y1="132.199" x2="341.015" y2="-53.132" gradientUnits="userSpaceOnUse">
<stop stop-color="#535FE6"/>
<stop offset="0.524768" stop-color="#20C1CF" stop-opacity="0.33"/>
<stop offset="1" stop-color="#535FE6" stop-opacity="0.34"/>
</linearGradient>
<linearGradient id="paint11_linear_119_9816" x1="408.234" y1="114.593" x2="336.202" y2="-46.0348" gradientUnits="userSpaceOnUse">
<stop stop-color="#535FE6"/>
<stop offset="0.524768" stop-color="#20C1CF" stop-opacity="0.33"/>
<stop offset="1" stop-color="#535FE6" stop-opacity="0.34"/>
</linearGradient>
<linearGradient id="paint12_linear_119_9816" x1="392.542" y1="97.1387" x2="331.339" y2="-38.8609" gradientUnits="userSpaceOnUse">
<stop stop-color="#535FE6"/>
<stop offset="0.524768" stop-color="#20C1CF" stop-opacity="0.33"/>
<stop offset="1" stop-color="#535FE6" stop-opacity="0.34"/>
</linearGradient>
<linearGradient id="paint13_linear_119_9816" x1="376.824" y1="79.6836" x2="326.567" y2="-31.8203" gradientUnits="userSpaceOnUse">
<stop stop-color="#535FE6"/>
<stop offset="0.524768" stop-color="#20C1CF" stop-opacity="0.33"/>
<stop offset="1" stop-color="#535FE6" stop-opacity="0.34"/>
</linearGradient>
<linearGradient id="paint14_linear_119_9816" x1="361.123" y1="62.2295" x2="321.754" y2="-24.7129" gradientUnits="userSpaceOnUse">
<stop stop-color="#535FE6"/>
<stop offset="0.524768" stop-color="#20C1CF" stop-opacity="0.33"/>
<stop offset="1" stop-color="#535FE6" stop-opacity="0.34"/>
</linearGradient>
<linearGradient id="paint15_linear_119_9816" x1="345.307" y1="44.7744" x2="316.698" y2="-17.4557" gradientUnits="userSpaceOnUse">
<stop stop-color="#535FE6"/>
<stop offset="0.524768" stop-color="#20C1CF" stop-opacity="0.33"/>
<stop offset="1" stop-color="#535FE6" stop-opacity="0.34"/>
</linearGradient>
<linearGradient id="paint16_linear_119_9816" x1="329.629" y1="27.168" x2="312.075" y2="-10.3623" gradientUnits="userSpaceOnUse">
<stop stop-color="#535FE6"/>
<stop offset="0.524768" stop-color="#20C1CF" stop-opacity="0.33"/>
<stop offset="1" stop-color="#535FE6" stop-opacity="0.34"/>
</linearGradient>
</defs>
</svg>
